NotoSerifSinhala-Bold.ufo
<glyph name="exclam.sinh" format="2">
  <advance width="379"/>
  <unicode hex="0021"/>
  <outline>
    <contour>
      <point x="81" y="714" type="line"/>
      <point x="147" y="238" type="line"/>
      <point x="232" y="238" type="line"/>
      <point x="298" y="714" type="line"/>
    </contour>
    <contour>
      <point x="190" y="-9" type="curve" smooth="yes"/>
      <point x="240" y="-9"/>
      <point x="284" y="14"/>
      <point x="284" y="83" type="curve" smooth="yes"/>
      <point x="284" y="153"/>
      <point x="240" y="175"/>
      <point x="190" y="175" type="curve" smooth="yes"/>
      <point x="138" y="175"/>
      <point x="97" y="153"/>
      <point x="97" y="83" type="curve" smooth="yes"/>
      <point x="97" y="14"/>
      <point x="138" y="-9"/>
    </contour>
  </outline>
</glyph>
<glyph name="quotedbl.sinh" format="2">
  <advance width="545"/>
  <unicode hex="0022"/>
  <outline>
    <contour>
      <point x="296" y="799" type="line"/>
      <point x="352" y="495" type="line"/>
      <point x="433" y="495" type="line"/>
      <point x="489" y="799" type="line"/>
    </contour>
    <contour>
      <point x="56" y="799" type="line"/>
      <point x="112" y="495" type="line"/>
      <point x="193" y="495" type="line"/>
      <point x="249" y="799" type="line"/>
    </contour>
  </outline>
</glyph>
<glyph name="numbersign.sinh" format="2">
  <advance width="601"/>
  <unicode hex="0023"/>
  <outline>
    <contour>
      <point x="125" y="198" type="line"/>
      <point x="87" y="0" type="line"/>
      <point x="169" y="0" type="line"/>
      <point x="207" y="198" type="line"/>
      <point x="333" y="198" type="line"/>
      <point x="297" y="0" type="line"/>
      <point x="379" y="0" type="line"/>
      <point x="415" y="198" type="line"/>
      <point x="540" y="198" type="line"/>
      <point x="540" y="274" type="line"/>
      <point x="431" y="274" type="line"/>
      <point x="463" y="444" type="line"/>
      <point x="572" y="444" type="line"/>
      <point x="572" y="522" type="line"/>
      <point x="477" y="522" type="line"/>
      <point x="514" y="714" type="line"/>
      <point x="432" y="714" type="line"/>
      <point x="395" y="522" type="line"/>
      <point x="269" y="522" type="line"/>
      <point x="304" y="714" type="line"/>
      <point x="222" y="714" type="line"/>
      <point x="187" y="522" type="line"/>
      <point x="61" y="522" type="line"/>
      <point x="61" y="444" type="line"/>
      <point x="172" y="444" type="line"/>
      <point x="139" y="274" type="line"/>
      <point x="29" y="274" type="line"/>
      <point x="29" y="198" type="line"/>
    </contour>
    <contour>
      <point x="349" y="274" type="line"/>
      <point x="221" y="274" type="line"/>
      <point x="255" y="444" type="line"/>
      <point x="382" y="444" type="line"/>
    </contour>
  </outline>
</glyph>
<glyph name="percent.sinh" format="2">
  <advance width="964"/>
  <unicode hex="0025"/>
  <outline>
    <contour>
      <point x="605" y="714" type="line"/>
      <point x="269" y="0" type="line"/>
      <point x="356" y="0" type="line"/>
      <point x="691" y="714" type="line"/>
    </contour>
    <contour>
      <point x="237" y="280" type="curve" smooth="yes"/>
      <point x="366" y="280"/>
      <point x="429" y="369"/>
      <point x="429" y="503" type="curve"/>
      <point x="429" y="637"/>
      <point x="366" y="724"/>
      <point x="238" y="724" type="curve" smooth="yes"/>
      <point x="101" y="724"/>
      <point x="45" y="637"/>
      <point x="45" y="503" type="curve" smooth="yes"/>
      <point x="45" y="369"/>
      <point x="101" y="280"/>
    </contour>
    <contour>
      <point x="237" y="337" type="curve" smooth="yes"/>
      <point x="192" y="337"/>
      <point x="173" y="398"/>
      <point x="173" y="503" type="curve" smooth="yes"/>
      <point x="173" y="606"/>
      <point x="192" y="666"/>
      <point x="238" y="666" type="curve" smooth="yes"/>
      <point x="283" y="666"/>
      <point x="300" y="606"/>
      <point x="300" y="503" type="curve" smooth="yes"/>
      <point x="300" y="398"/>
      <point x="283" y="337"/>
    </contour>
    <contour>
      <point x="727" y="-10" type="curve" smooth="yes"/>
      <point x="856" y="-10"/>
      <point x="919" y="79"/>
      <point x="919" y="213" type="curve" smooth="yes"/>
      <point x="919" y="347"/>
      <point x="856" y="434"/>
      <point x="728" y="434" type="curve" smooth="yes"/>
      <point x="591" y="434"/>
      <point x="535" y="347"/>
      <point x="535" y="213" type="curve" smooth="yes"/>
      <point x="535" y="79"/>
      <point x="591" y="-10"/>
    </contour>
    <contour>
      <point x="727" y="47" type="curve" smooth="yes"/>
      <point x="682" y="47"/>
      <point x="663" y="108"/>
      <point x="663" y="213" type="curve" smooth="yes"/>
      <point x="663" y="316"/>
      <point x="682" y="376"/>
      <point x="728" y="376" type="curve" smooth="yes"/>
      <point x="773" y="376"/>
      <point x="790" y="316"/>
      <point x="790" y="213" type="curve" smooth="yes"/>
      <point x="790" y="108"/>
      <point x="773" y="47"/>
    </contour>
  </outline>
</glyph>
<glyph name="quotesingle.sinh" format="2">
  <advance width="305"/>
  <unicode hex="0027"/>
  <outline>
    <contour>
      <point x="56" y="799" type="line"/>
      <point x="112" y="495" type="line"/>
      <point x="193" y="495" type="line"/>
      <point x="249" y="799" type="line"/>
    </contour>
  </outline>
</glyph>
<glyph name="parenleft.sinh" format="2">
  <advance width="438"/>
  <unicode hex="0028"/>
  <outline>
    <contour>
      <point x="406" y="-264" type="curve"/>
      <point x="406" y="-187" type="line"/>
      <point x="279" y="-114"/>
      <point x="229" y="28"/>
      <point x="229" y="271" type="curve" smooth="yes"/>
      <point x="229" y="512"/>
      <point x="279" y="654"/>
      <point x="406" y="727" type="curve"/>
      <point x="406" y="804" type="line"/>
      <point x="137" y="732"/>
      <point x="53" y="520"/>
      <point x="53" y="271" type="curve" smooth="yes"/>
      <point x="53" y="20"/>
      <point x="137" y="-192"/>
    </contour>
  </outline>
</glyph>
<glyph name="parenright.sinh" format="2">
  <advance width="438"/>
  <unicode hex="0029"/>
  <outline>
    <contour>
      <point x="32" y="804" type="curve"/>
      <point x="32" y="727" type="line"/>
      <point x="159" y="654"/>
      <point x="209" y="512"/>
      <point x="209" y="269" type="curve" smooth="yes"/>
      <point x="209" y="28"/>
      <point x="159" y="-114"/>
      <point x="32" y="-187" type="curve"/>
      <point x="32" y="-264" type="line"/>
      <point x="301" y="-192"/>
      <point x="385" y="20"/>
      <point x="385" y="269" type="curve" smooth="yes"/>
      <point x="385" y="520"/>
      <point x="301" y="732"/>
    </contour>
  </outline>
</glyph>
<glyph name="asterisk.sinh" format="2">
  <advance width="539"/>
  <unicode hex="002A"/>
  <outline>
    <contour>
      <point x="243" y="555" type="line"/>
      <point x="206" y="388" type="line"/>
      <point x="334" y="388" type="line"/>
      <point x="294" y="553" type="line"/>
      <point x="440" y="441" type="line"/>
      <point x="493" y="556" type="line"/>
      <point x="336" y="597" type="line"/>
      <point x="493" y="631" type="line"/>
      <point x="440" y="747" type="line"/>
      <point x="294" y="636" type="line"/>
      <point x="336" y="799" type="line"/>
      <point x="206" y="799" type="line"/>
      <point x="244" y="633" type="line"/>
      <point x="98" y="749" type="line"/>
      <point x="46" y="632" type="line"/>
      <point x="205" y="597" type="line"/>
      <point x="46" y="555" type="line"/>
      <point x="98" y="440" type="line"/>
    </contour>
  </outline>
</glyph>
<glyph name="plus.sinh" format="2">
  <advance width="569"/>
  <unicode hex="002B"/>
  <outline>
    <contour>
      <point x="244" y="318" type="line"/>
      <point x="244" y="135" type="line"/>
      <point x="324" y="135" type="line"/>
      <point x="324" y="318" type="line"/>
      <point x="509" y="318" type="line"/>
      <point x="509" y="397" type="line"/>
      <point x="324" y="397" type="line"/>
      <point x="324" y="580" type="line"/>
      <point x="244" y="580" type="line"/>
      <point x="244" y="397" type="line"/>
      <point x="60" y="397" type="line"/>
      <point x="60" y="318" type="line"/>
    </contour>
  </outline>
</glyph>
<glyph name="comma.sinh" format="2">
  <advance width="319"/>
  <unicode hex="002C"/>
  <outline>
    <contour>
      <point x="156" y="175" type="curve" smooth="yes"/>
      <point x="105" y="175"/>
      <point x="63" y="146"/>
      <point x="63" y="93" type="curve" smooth="yes"/>
      <point x="63" y="8"/>
      <point x="158" y="18"/>
      <point x="158" y="-25" type="curve" smooth="yes"/>
      <point x="158" y="-61"/>
      <point x="110" y="-81"/>
      <point x="54" y="-98" type="curve"/>
      <point x="54" y="-157" type="line"/>
      <point x="195" y="-123"/>
      <point x="262" y="-44"/>
      <point x="262" y="53" type="curve" smooth="yes"/>
      <point x="262" y="127"/>
      <point x="223" y="175"/>
    </contour>
  </outline>
</glyph>
<glyph name="period.sinh" format="2">
  <advance width="319"/>
  <unicode hex="002E"/>
  <outline>
    <contour>
      <point x="159" y="-9" type="curve" smooth="yes"/>
      <point x="209" y="-9"/>
      <point x="253" y="14"/>
      <point x="253" y="83" type="curve" smooth="yes"/>
      <point x="253" y="153"/>
      <point x="209" y="175"/>
      <point x="159" y="175" type="curve" smooth="yes"/>
      <point x="107" y="175"/>
      <point x="66" y="153"/>
      <point x="66" y="83" type="curve" smooth="yes"/>
      <point x="66" y="14"/>
      <point x="107" y="-9"/>
    </contour>
  </outline>
</glyph>
<glyph name="zero.sinh" format="2">
  <advance width="569"/>
  <unicode hex="0030"/>
  <outline>
    <contour>
      <point x="285" y="-10" type="curve" smooth="yes"/>
      <point x="461" y="-10"/>
      <point x="530" y="126"/>
      <point x="530" y="358" type="curve" smooth="yes"/>
      <point x="530" y="589"/>
      <point x="460" y="724"/>
      <point x="286" y="724" type="curve" smooth="yes"/>
      <point x="99" y="724"/>
      <point x="39" y="581"/>
      <point x="39" y="358" type="curve" smooth="yes"/>
      <point x="39" y="138"/>
      <point x="99" y="-10"/>
    </contour>
    <contour>
      <point x="285" y="63" type="curve" smooth="yes"/>
      <point x="223" y="63"/>
      <point x="219" y="172"/>
      <point x="219" y="358" type="curve" smooth="yes"/>
      <point x="219" y="544"/>
      <point x="223" y="651"/>
      <point x="286" y="651" type="curve" smooth="yes"/>
      <point x="346" y="651"/>
      <point x="349" y="544"/>
      <point x="349" y="358" type="curve" smooth="yes"/>
      <point x="349" y="172"/>
      <point x="346" y="63"/>
    </contour>
  </outline>
</glyph>
<glyph name="one.sinh" format="2">
  <advance width="569"/>
  <unicode hex="0031"/>
  <outline>
    <contour>
      <point x="82" y="61" type="line"/>
      <point x="82" y="0" type="line"/>
      <point x="529" y="0" type="line"/>
      <point x="529" y="61" type="line"/>
      <point x="451" y="61" type="line" smooth="yes"/>
      <point x="412" y="61"/>
      <point x="403" y="94"/>
      <point x="403" y="121" type="curve" smooth="yes"/>
      <point x="403" y="718" type="line"/>
      <point x="259" y="718" type="line"/>
      <point x="189" y="666" type="line" smooth="yes"/>
      <point x="123" y="617"/>
      <point x="69" y="599"/>
      <point x="29" y="589" type="curve"/>
      <point x="29" y="534"/>
      <point x="59" y="500"/>
      <point x="93" y="500" type="curve" smooth="yes"/>
      <point x="133" y="500"/>
      <point x="174" y="543"/>
      <point x="225" y="605" type="curve"/>
      <point x="225" y="121" type="line" smooth="yes"/>
      <point x="225" y="81"/>
      <point x="210" y="61"/>
      <point x="178" y="61" type="curve" smooth="yes"/>
    </contour>
  </outline>
</glyph>
<glyph name="two.sinh" format="2">
  <advance width="569"/>
  <unicode hex="0032"/>
  <outline>
    <contour>
      <point x="29" y="115" type="line"/>
      <point x="29" y="0" type="line"/>
      <point x="530" y="0" type="line"/>
      <point x="535" y="237" type="line"/>
      <point x="463" y="237" type="line"/>
      <point x="452" y="197" type="line" smooth="yes"/>
      <point x="438" y="149"/>
      <point x="397" y="132"/>
      <point x="370" y="132" type="curve" smooth="yes"/>
      <point x="156" y="132" type="line"/>
      <point x="190" y="159" type="line" smooth="yes"/>
      <point x="475" y="386"/>
      <point x="510" y="456"/>
      <point x="510" y="549" type="curve" smooth="yes"/>
      <point x="510" y="653"/>
      <point x="428" y="724"/>
      <point x="262" y="724" type="curve" smooth="yes"/>
      <point x="103" y="724"/>
      <point x="29" y="646"/>
      <point x="29" y="577" type="curve" smooth="yes"/>
      <point x="29" y="494"/>
      <point x="94" y="473"/>
      <point x="173" y="473" type="curve"/>
      <point x="173" y="613"/>
      <point x="208" y="655"/>
      <point x="262" y="655" type="curve" smooth="yes"/>
      <point x="297" y="655"/>
      <point x="330" y="633"/>
      <point x="330" y="550" type="curve" smooth="yes"/>
      <point x="330" y="451"/>
      <point x="291" y="377"/>
      <point x="159" y="245" type="curve" smooth="yes"/>
    </contour>
  </outline>
</glyph>
<glyph name="three.sinh" format="2">
  <advance width="569"/>
  <unicode hex="0033"/>
  <outline>
    <contour>
      <point x="246" y="-10" type="curve" smooth="yes"/>
      <point x="401" y="-10"/>
      <point x="535" y="43"/>
      <point x="535" y="201" type="curve" smooth="yes"/>
      <point x="535" y="310"/>
      <point x="447" y="361"/>
      <point x="362" y="381" type="curve"/>
      <point x="445" y="415"/>
      <point x="510" y="468"/>
      <point x="510" y="558" type="curve" smooth="yes"/>
      <point x="510" y="664"/>
      <point x="417" y="724"/>
      <point x="263" y="724" type="curve" smooth="yes"/>
      <point x="105" y="724"/>
      <point x="32" y="655"/>
      <point x="32" y="588" type="curve" smooth="yes"/>
      <point x="32" y="520"/>
      <point x="81" y="495"/>
      <point x="167" y="495" type="curve"/>
      <point x="167" y="573"/>
      <point x="188" y="655"/>
      <point x="255" y="655" type="curve" smooth="yes"/>
      <point x="301" y="655"/>
      <point x="328" y="612"/>
      <point x="328" y="545" type="curve" smooth="yes"/>
      <point x="328" y="462"/>
      <point x="300" y="404"/>
      <point x="215" y="404" type="curve"/>
      <point x="134" y="404" type="line"/>
      <point x="134" y="334" type="line"/>
      <point x="208" y="334" type="line" smooth="yes"/>
      <point x="305" y="334"/>
      <point x="353" y="282"/>
      <point x="353" y="200" type="curve" smooth="yes"/>
      <point x="353" y="97"/>
      <point x="307" y="72"/>
      <point x="246" y="72" type="curve" smooth="yes"/>
      <point x="167" y="72"/>
      <point x="120" y="119"/>
      <point x="120" y="215" type="curve"/>
      <point x="68" y="215"/>
      <point x="19" y="186"/>
      <point x="19" y="127" type="curve" smooth="yes"/>
      <point x="19" y="48"/>
      <point x="81" y="-10"/>
    </contour>
  </outline>
</glyph>
<glyph name="four.sinh" format="2">
  <advance width="569"/>
  <unicode hex="0034"/>
  <outline>
    <contour>
      <point x="166" y="61" type="line"/>
      <point x="166" y="0" type="line"/>
      <point x="554" y="0" type="line"/>
      <point x="554" y="61" type="line"/>
      <point x="538" y="61" type="line" smooth="yes"/>
      <point x="493" y="61"/>
      <point x="456" y="70"/>
      <point x="456" y="133" type="curve" smooth="yes"/>
      <point x="456" y="188" type="line"/>
      <point x="549" y="188" type="line"/>
      <point x="549" y="261" type="line"/>
      <point x="456" y="261" type="line"/>
      <point x="456" y="714" type="line"/>
      <point x="277" y="714" type="line"/>
      <point x="17" y="254" type="line"/>
      <point x="17" y="188" type="line"/>
      <point x="279" y="188" type="line"/>
      <point x="279" y="133" type="line" smooth="yes"/>
      <point x="279" y="70"/>
      <point x="242" y="61"/>
      <point x="197" y="61" type="curve" smooth="yes"/>
    </contour>
    <contour>
      <point x="280" y="261" type="line"/>
      <point x="106" y="261" type="line"/>
      <point x="219" y="463" type="line" smooth="yes"/>
      <point x="237" y="495"/>
      <point x="274" y="565"/>
      <point x="287" y="599" type="curve"/>
      <point x="282" y="537"/>
      <point x="280" y="473"/>
      <point x="280" y="415" type="curve" smooth="yes"/>
    </contour>
  </outline>
</glyph>
<glyph name="five.sinh" format="2">
  <advance width="569"/>
  <unicode hex="0035"/>
  <outline>
    <contour>
      <point x="251" y="-10" type="curve" smooth="yes"/>
      <point x="348" y="-10"/>
      <point x="526" y="21"/>
      <point x="526" y="221" type="curve" smooth="yes"/>
      <point x="526" y="366"/>
      <point x="419" y="438"/>
      <point x="262" y="438" type="curve" smooth="yes"/>
      <point x="215" y="438"/>
      <point x="172" y="431"/>
      <point x="144" y="424" type="curve"/>
      <point x="158" y="583" type="line"/>
      <point x="376" y="583" type="line" smooth="yes"/>
      <point x="401" y="583"/>
      <point x="411" y="569"/>
      <point x="417" y="547" type="curve" smooth="yes"/>
      <point x="427" y="510" type="line"/>
      <point x="496" y="510" type="line"/>
      <point x="491" y="715" type="line"/>
      <point x="96" y="715" type="line"/>
      <point x="64" y="375" type="line"/>
      <point x="110" y="349" type="line"/>
      <point x="142" y="357"/>
      <point x="175" y="364"/>
      <point x="218" y="364" type="curve" smooth="yes"/>
      <point x="302" y="364"/>
      <point x="345" y="318"/>
      <point x="345" y="219" type="curve" smooth="yes"/>
      <point x="345" y="101"/>
      <point x="295" y="68"/>
      <point x="232" y="68" type="curve" smooth="yes"/>
      <point x="145" y="68"/>
      <point x="127" y="145"/>
      <point x="127" y="202" type="curve"/>
      <point x="75" y="202"/>
      <point x="34" y="178"/>
      <point x="34" y="126" type="curve" smooth="yes"/>
      <point x="34" y="51"/>
      <point x="99" y="-10"/>
    </contour>
  </outline>
</glyph>
<glyph name="six.sinh" format="2">
  <advance width="569"/>
  <unicode hex="0036"/>
  <outline>
    <contour>
      <point x="297" y="-10" type="curve" smooth="yes"/>
      <point x="461" y="-10"/>
      <point x="540" y="88"/>
      <point x="540" y="232" type="curve" smooth="yes"/>
      <point x="540" y="364"/>
      <point x="460" y="441"/>
      <point x="338" y="441" type="curve" smooth="yes"/>
      <point x="287" y="441"/>
      <point x="247" y="429"/>
      <point x="209" y="408" type="curve"/>
      <point x="218" y="559"/>
      <point x="249" y="657"/>
      <point x="316" y="657" type="curve" smooth="yes"/>
      <point x="364" y="657"/>
      <point x="387" y="592"/>
      <point x="387" y="519" type="curve"/>
      <point x="486" y="519"/>
      <point x="520" y="561"/>
      <point x="520" y="610" type="curve" smooth="yes"/>
      <point x="520" y="670"/>
      <point x="464" y="724"/>
      <point x="322" y="724" type="curve" smooth="yes"/>
      <point x="133" y="724"/>
      <point x="37" y="572"/>
      <point x="37" y="329" type="curve" smooth="yes"/>
      <point x="37" y="97"/>
      <point x="138" y="-10"/>
    </contour>
    <contour>
      <point x="302" y="64" type="curve" smooth="yes"/>
      <point x="246" y="64"/>
      <point x="210" y="143"/>
      <point x="210" y="336" type="curve"/>
      <point x="234" y="353"/>
      <point x="269" y="368"/>
      <point x="293" y="368" type="curve" smooth="yes"/>
      <point x="337" y="368"/>
      <point x="370" y="331"/>
      <point x="370" y="222" type="curve" smooth="yes"/>
      <point x="370" y="100"/>
      <point x="340" y="64"/>
    </contour>
  </outline>
</glyph>
<glyph name="seven.sinh" format="2">
  <advance width="569"/>
  <unicode hex="0037"/>
  <outline>
    <contour>
      <point x="423" y="579" type="line"/>
      <point x="141" y="0" type="line"/>
      <point x="258" y="0" type="line"/>
      <point x="534" y="651" type="line"/>
      <point x="534" y="715" type="line"/>
      <point x="44" y="715" type="line"/>
      <point x="39" y="483" type="line"/>
      <point x="112" y="483" type="line"/>
      <point x="119" y="526" type="line" smooth="yes"/>
      <point x="125" y="566"/>
      <point x="142" y="579"/>
      <point x="178" y="579" type="curve"/>
    </contour>
  </outline>
</glyph>
<glyph name="eight.sinh" format="2">
  <advance width="569"/>
  <unicode hex="0038"/>
  <outline>
    <contour>
      <point x="278" y="-10" type="curve" smooth="yes"/>
      <point x="450" y="-10"/>
      <point x="546" y="72"/>
      <point x="546" y="188" type="curve" smooth="yes"/>
      <point x="546" y="284"/>
      <point x="504" y="335"/>
      <point x="388" y="394" type="curve"/>
      <point x="472" y="430"/>
      <point x="521" y="474"/>
      <point x="521" y="561" type="curve" smooth="yes"/>
      <point x="521" y="649"/>
      <point x="445" y="724"/>
      <point x="292" y="724" type="curve" smooth="yes"/>
      <point x="115" y="724"/>
      <point x="46" y="641"/>
      <point x="46" y="540" type="curve" smooth="yes"/>
      <point x="46" y="450"/>
      <point x="97" y="401"/>
      <point x="176" y="359" type="curve"/>
      <point x="90" y="326"/>
      <point x="23" y="276"/>
      <point x="23" y="174" type="curve" smooth="yes"/>
      <point x="23" y="77"/>
      <point x="98" y="-10"/>
    </contour>
    <contour>
      <point x="283" y="57" type="curve" smooth="yes"/>
      <point x="230" y="57"/>
      <point x="184" y="94"/>
      <point x="184" y="185" type="curve" smooth="yes"/>
      <point x="184" y="247"/>
      <point x="206" y="288"/>
      <point x="240" y="318" type="curve"/>
      <point x="318" y="278"/>
      <point x="369" y="229"/>
      <point x="369" y="165" type="curve" smooth="yes"/>
      <point x="369" y="95"/>
      <point x="334" y="57"/>
    </contour>
    <contour>
      <point x="315" y="430" type="curve"/>
      <point x="259" y="455"/>
      <point x="218" y="495"/>
      <point x="218" y="565" type="curve" smooth="yes"/>
      <point x="218" y="622"/>
      <point x="244" y="658"/>
      <point x="289" y="658" type="curve" smooth="yes"/>
      <point x="337" y="658"/>
      <point x="364" y="615"/>
      <point x="364" y="556" type="curve" smooth="yes"/>
      <point x="364" y="486"/>
      <point x="340" y="450"/>
    </contour>
  </outline>
</glyph>
<glyph name="nine.sinh" format="2">
  <advance width="569"/>
  <unicode hex="0039"/>
  <outline>
    <contour>
      <point x="233" y="-9" type="curve"/>
      <point x="446" y="-9"/>
      <point x="532" y="152"/>
      <point x="532" y="382" type="curve" smooth="yes"/>
      <point x="532" y="623"/>
      <point x="421" y="724"/>
      <point x="269" y="724" type="curve" smooth="yes"/>
      <point x="119" y="724"/>
      <point x="29" y="629"/>
      <point x="29" y="485" type="curve" smooth="yes"/>
      <point x="29" y="350"/>
      <point x="111" y="275"/>
      <point x="226" y="275" type="curve" smooth="yes"/>
      <point x="293" y="275"/>
      <point x="330" y="298"/>
      <point x="360" y="331" type="curve"/>
      <point x="353" y="141"/>
      <point x="318" y="60"/>
      <point x="243" y="60" type="curve" smooth="yes"/>
      <point x="172" y="60"/>
      <point x="149" y="112"/>
      <point x="126" y="193" type="curve"/>
      <point x="74" y="185"/>
      <point x="55" y="147"/>
      <point x="55" y="115" type="curve" smooth="yes"/>
      <point x="55" y="47"/>
      <point x="106" y="-9"/>
    </contour>
    <contour>
      <point x="282" y="357" type="curve" smooth="yes"/>
      <point x="228" y="357"/>
      <point x="200" y="409"/>
      <point x="200" y="488" type="curve" smooth="yes"/>
      <point x="200" y="603"/>
      <point x="228" y="648"/>
      <point x="279" y="648" type="curve" smooth="yes"/>
      <point x="334" y="648"/>
      <point x="358" y="586"/>
      <point x="359" y="407" type="curve"/>
      <point x="336" y="369"/>
      <point x="313" y="357"/>
    </contour>
  </outline>
</glyph>
<glyph name="colon.sinh" format="2">
  <advance width="331"/>
  <unicode hex="003A"/>
  <outline>
    <contour>
      <point x="165" y="346" type="curve" smooth="yes"/>
      <point x="215" y="346"/>
      <point x="259" y="369"/>
      <point x="259" y="438" type="curve" smooth="yes"/>
      <point x="259" y="508"/>
      <point x="215" y="530"/>
      <point x="165" y="530" type="curve" smooth="yes"/>
      <point x="113" y="530"/>
      <point x="72" y="508"/>
      <point x="72" y="438" type="curve" smooth="yes"/>
      <point x="72" y="369"/>
      <point x="113" y="346"/>
    </contour>
    <contour>
      <point x="165" y="-9" type="curve" smooth="yes"/>
      <point x="215" y="-9"/>
      <point x="259" y="14"/>
      <point x="259" y="83" type="curve" smooth="yes"/>
      <point x="259" y="153"/>
      <point x="215" y="175"/>
      <point x="165" y="175" type="curve" smooth="yes"/>
      <point x="113" y="175"/>
      <point x="72" y="153"/>
      <point x="72" y="83" type="curve" smooth="yes"/>
      <point x="72" y="14"/>
      <point x="113" y="-9"/>
    </contour>
  </outline>
</glyph>
<glyph name="semicolon.sinh" format="2">
  <advance width="331"/>
  <unicode hex="003B"/>
  <outline>
    <contour>
      <point x="165" y="346" type="curve" smooth="yes"/>
      <point x="215" y="346"/>
      <point x="259" y="369"/>
      <point x="259" y="438" type="curve" smooth="yes"/>
      <point x="259" y="508"/>
      <point x="215" y="530"/>
      <point x="165" y="530" type="curve" smooth="yes"/>
      <point x="113" y="530"/>
      <point x="72" y="508"/>
      <point x="72" y="438" type="curve" smooth="yes"/>
      <point x="72" y="369"/>
      <point x="113" y="346"/>
    </contour>
    <component base="comma.sinh" xOffset="6"/>
  </outline>
</glyph>
<glyph name="less.sinh" format="2">
  <advance width="569"/>
  <unicode hex="003C"/>
  <outline>
    <contour>
      <point x="70" y="335" type="line"/>
      <point x="499" y="100" type="line"/>
      <point x="499" y="187" type="line"/>
      <point x="187" y="357" type="line"/>
      <point x="499" y="529" type="line"/>
      <point x="499" y="616" type="line"/>
      <point x="70" y="380" type="line"/>
    </contour>
  </outline>
</glyph>
<glyph name="equal.sinh" format="2">
  <advance width="569"/>
  <unicode hex="003D"/>
  <outline>
    <contour>
      <point x="60" y="492" type="line"/>
      <point x="60" y="414" type="line"/>
      <point x="510" y="414" type="line"/>
      <point x="510" y="492" type="line"/>
    </contour>
    <contour>
      <point x="60" y="300" type="line"/>
      <point x="60" y="222" type="line"/>
      <point x="510" y="222" type="line"/>
      <point x="510" y="300" type="line"/>
    </contour>
  </outline>
</glyph>
<glyph name="greater.sinh" format="2">
  <advance width="569"/>
  <unicode hex="003E"/>
  <outline>
    <contour>
      <point x="70" y="187" type="line"/>
      <point x="70" y="100" type="line"/>
      <point x="499" y="335" type="line"/>
      <point x="499" y="380" type="line"/>
      <point x="70" y="616" type="line"/>
      <point x="70" y="529" type="line"/>
      <point x="382" y="357" type="line"/>
    </contour>
  </outline>
</glyph>
<glyph name="question.sinh" format="2">
  <advance width="557"/>
  <unicode hex="003F"/>
  <outline>
    <contour>
      <point x="261" y="724" type="curve" smooth="yes"/>
      <point x="101" y="724"/>
      <point x="29" y="657"/>
      <point x="29" y="590" type="curve" smooth="yes"/>
      <point x="29" y="524"/>
      <point x="87" y="506"/>
      <point x="194" y="506" type="curve"/>
      <point x="194" y="612"/>
      <point x="218" y="656"/>
      <point x="262" y="656" type="curve" smooth="yes"/>
      <point x="302" y="656"/>
      <point x="326" y="619"/>
      <point x="326" y="553" type="curve" smooth="yes"/>
      <point x="326" y="468"/>
      <point x="303" y="404"/>
      <point x="192" y="350" type="curve"/>
      <point x="215" y="238" type="line"/>
      <point x="300" y="238" type="line"/>
      <point x="323" y="323" type="line"/>
      <point x="462" y="381"/>
      <point x="522" y="433"/>
      <point x="522" y="538" type="curve" smooth="yes"/>
      <point x="522" y="655"/>
      <point x="421" y="724"/>
    </contour>
    <contour>
      <point x="255" y="-9" type="curve" smooth="yes"/>
      <point x="305" y="-9"/>
      <point x="349" y="14"/>
      <point x="349" y="83" type="curve" smooth="yes"/>
      <point x="349" y="153"/>
      <point x="305" y="175"/>
      <point x="255" y="175" type="curve" smooth="yes"/>
      <point x="203" y="175"/>
      <point x="162" y="153"/>
      <point x="162" y="83" type="curve" smooth="yes"/>
      <point x="162" y="14"/>
      <point x="203" y="-9"/>
    </contour>
  </outline>
</glyph>
<glyph name="bracketleft.sinh" format="2">
  <advance width="429"/>
  <unicode hex="005B"/>
  <outline>
    <contour>
      <point x="87" y="799" type="line"/>
      <point x="87" y="-259" type="line"/>
      <point x="389" y="-259" type="line"/>
      <point x="389" y="-198" type="line"/>
      <point x="332" y="-198" type="line" smooth="yes"/>
      <point x="287" y="-198"/>
      <point x="257" y="-189"/>
      <point x="257" y="-126" type="curve" smooth="yes"/>
      <point x="257" y="666" type="line" smooth="yes"/>
      <point x="257" y="729"/>
      <point x="287" y="738"/>
      <point x="332" y="738" type="curve" smooth="yes"/>
      <point x="389" y="738" type="line"/>
      <point x="389" y="799" type="line"/>
    </contour>
  </outline>
</glyph>
<glyph name="backslash.sinh" format="2">
  <advance width="446"/>
  <unicode hex="005C"/>
  <outline>
    <contour>
      <point x="412" y="-259" type="line"/>
      <point x="124" y="799" type="line"/>
      <point x="34" y="799" type="line"/>
      <point x="322" y="-259" type="line"/>
    </contour>
  </outline>
</glyph>
<glyph name="bracketright.sinh" format="2">
  <advance width="429"/>
  <unicode hex="005D"/>
  <outline>
    <contour>
      <point x="342" y="-259" type="line"/>
      <point x="342" y="799" type="line"/>
      <point x="40" y="799" type="line"/>
      <point x="40" y="738" type="line"/>
      <point x="97" y="738" type="line" smooth="yes"/>
      <point x="142" y="738"/>
      <point x="172" y="729"/>
      <point x="172" y="666" type="curve" smooth="yes"/>
      <point x="172" y="-126" type="line" smooth="yes"/>
      <point x="172" y="-189"/>
      <point x="142" y="-198"/>
      <point x="97" y="-198" type="curve" smooth="yes"/>
      <point x="40" y="-198" type="line"/>
      <point x="40" y="-259" type="line"/>
    </contour>
  </outline>
</glyph>
<glyph name="asciicircum.sinh" format="2">
  <advance width="569"/>
  <unicode hex="005E"/>
  <outline>
    <contour>
      <point x="258" y="714" type="line"/>
      <point x="44" y="259" type="line"/>
      <point x="133" y="259" type="line"/>
      <point x="283" y="592" type="line"/>
      <point x="434" y="259" type="line"/>
      <point x="523" y="259" type="line"/>
      <point x="308" y="714" type="line"/>
    </contour>
  </outline>
</glyph>
<glyph name="braceleft.sinh" format="2">
  <advance width="480"/>
  <unicode hex="007B"/>
  <outline>
    <contour>
      <point x="443" y="-259" type="line"/>
      <point x="443" y="-198" type="line"/>
      <point x="381" y="-198" type="line" smooth="yes"/>
      <point x="326" y="-198"/>
      <point x="318" y="-165"/>
      <point x="318" y="-122" type="curve" smooth="yes"/>
      <point x="318" y="111" type="line" smooth="yes"/>
      <point x="318" y="209"/>
      <point x="279" y="245"/>
      <point x="203" y="269" type="curve"/>
      <point x="203" y="271" type="line"/>
      <point x="282" y="293"/>
      <point x="318" y="336"/>
      <point x="318" y="423" type="curve" smooth="yes"/>
      <point x="318" y="656" type="line" smooth="yes"/>
      <point x="318" y="705"/>
      <point x="326" y="738"/>
      <point x="381" y="738" type="curve" smooth="yes"/>
      <point x="443" y="738" type="line"/>
      <point x="443" y="799" type="line"/>
      <point x="336" y="799" type="line" smooth="yes"/>
      <point x="213" y="799"/>
      <point x="148" y="745"/>
      <point x="148" y="651" type="curve" smooth="yes"/>
      <point x="148" y="392" type="line" smooth="yes"/>
      <point x="148" y="315"/>
      <point x="99" y="303"/>
      <point x="35" y="301" type="curve"/>
      <point x="35" y="240" type="line"/>
      <point x="99" y="237"/>
      <point x="148" y="227"/>
      <point x="148" y="149" type="curve" smooth="yes"/>
      <point x="148" y="-108" type="line" smooth="yes"/>
      <point x="148" y="-201"/>
      <point x="213" y="-259"/>
      <point x="336" y="-259" type="curve" smooth="yes"/>
    </contour>
  </outline>
</glyph>
<glyph name="braceright.sinh" format="2">
  <advance width="480"/>
  <unicode hex="007D"/>
  <outline>
    <contour>
      <point x="37" y="799" type="line"/>
      <point x="37" y="738" type="line"/>
      <point x="99" y="738" type="line" smooth="yes"/>
      <point x="154" y="738"/>
      <point x="162" y="705"/>
      <point x="162" y="662" type="curve" smooth="yes"/>
      <point x="162" y="429" type="line" smooth="yes"/>
      <point x="162" y="331"/>
      <point x="201" y="295"/>
      <point x="277" y="271" type="curve"/>
      <point x="277" y="269" type="line"/>
      <point x="198" y="247"/>
      <point x="162" y="204"/>
      <point x="162" y="117" type="curve" smooth="yes"/>
      <point x="162" y="-116" type="line" smooth="yes"/>
      <point x="162" y="-165"/>
      <point x="154" y="-198"/>
      <point x="99" y="-198" type="curve" smooth="yes"/>
      <point x="37" y="-198" type="line"/>
      <point x="37" y="-259" type="line"/>
      <point x="144" y="-259" type="line" smooth="yes"/>
      <point x="267" y="-259"/>
      <point x="332" y="-205"/>
      <point x="332" y="-111" type="curve" smooth="yes"/>
      <point x="332" y="148" type="line" smooth="yes"/>
      <point x="332" y="225"/>
      <point x="381" y="237"/>
      <point x="445" y="239" type="curve"/>
      <point x="445" y="300" type="line"/>
      <point x="381" y="303"/>
      <point x="332" y="313"/>
      <point x="332" y="391" type="curve" smooth="yes"/>
      <point x="332" y="648" type="line" smooth="yes"/>
      <point x="332" y="741"/>
      <point x="267" y="799"/>
      <point x="144" y="799" type="curve"/>
    </contour>
  </outline>
</glyph>
<glyph name="asciitilde.sinh" format="2">
  <advance width="582"/>
  <unicode hex="007E"/>
  <outline>
    <contour>
      <point x="45" y="257" type="curve"/>
      <point x="128" y="257" type="line"/>
      <point x="128" y="343"/>
      <point x="149" y="373"/>
      <point x="182" y="373" type="curve" smooth="yes"/>
      <point x="206" y="373"/>
      <point x="218" y="357"/>
      <point x="256" y="323" type="curve" smooth="yes"/>
      <point x="311" y="274"/>
      <point x="337" y="257"/>
      <point x="390" y="257" type="curve" smooth="yes"/>
      <point x="493" y="257"/>
      <point x="520" y="323"/>
      <point x="523" y="456" type="curve"/>
      <point x="438" y="456" type="line"/>
      <point x="438" y="371"/>
      <point x="424" y="340"/>
      <point x="392" y="340" type="curve" smooth="yes"/>
      <point x="370" y="340"/>
      <point x="352" y="355"/>
      <point x="314" y="388" type="curve" smooth="yes"/>
      <point x="251" y="443"/>
      <point x="233" y="456"/>
      <point x="189" y="456" type="curve" smooth="yes"/>
      <point x="82" y="456"/>
      <point x="45" y="379"/>
    </contour>
  </outline>
</glyph>
<glyph name="multiply.sinh" format="2">
  <advance width="569"/>
  <unicode hex="00D7"/>
  <outline>
    <contour>
      <point x="69" y="199" type="line"/>
      <point x="127" y="142" type="line"/>
      <point x="285" y="302" type="line"/>
      <point x="444" y="142" type="line"/>
      <point x="500" y="198" type="line"/>
      <point x="341" y="358" type="line"/>
      <point x="500" y="518" type="line"/>
      <point x="443" y="575" type="line"/>
      <point x="285" y="416" type="line"/>
      <point x="127" y="574" type="line"/>
      <point x="69" y="518" type="line"/>
      <point x="227" y="359" type="line"/>
    </contour>
  </outline>
</glyph>
<glyph name="divide.sinh" format="2">
  <advance width="569"/>
  <unicode hex="00F7"/>
  <outline>
    <contour>
      <point x="60" y="397" type="line"/>
      <point x="60" y="318" type="line"/>
      <point x="509" y="318" type="line"/>
      <point x="509" y="397" type="line"/>
    </contour>
    <contour>
      <point x="285" y="103" type="curve" smooth="yes"/>
      <point x="318" y="103"/>
      <point x="344" y="120"/>
      <point x="344" y="168" type="curve" smooth="yes"/>
      <point x="344" y="217"/>
      <point x="318" y="233"/>
      <point x="285" y="233" type="curve" smooth="yes"/>
      <point x="250" y="233"/>
      <point x="225" y="217"/>
      <point x="225" y="168" type="curve" smooth="yes"/>
      <point x="225" y="120"/>
      <point x="250" y="103"/>
    </contour>
    <contour>
      <point x="285" y="482" type="curve" smooth="yes"/>
      <point x="318" y="482"/>
      <point x="344" y="499"/>
      <point x="344" y="547" type="curve" smooth="yes"/>
      <point x="344" y="596"/>
      <point x="318" y="612"/>
      <point x="285" y="612" type="curve" smooth="yes"/>
      <point x="250" y="612"/>
      <point x="225" y="596"/>
      <point x="225" y="547" type="curve" smooth="yes"/>
      <point x="225" y="499"/>
      <point x="250" y="482"/>
    </contour>
  </outline>
</glyph>
<glyph name="dbldanda.sinh" format="2">
  <advance width="560"/>
  <unicode hex="0965"/>
  <outline>
    <contour>
      <point x="191" y="662" type="line"/>
      <point x="191" y="-65" type="line"/>
      <point x="281" y="-65" type="line"/>
      <point x="281" y="662" type="line"/>
    </contour>
    <contour>
      <point x="388" y="662" type="line"/>
      <point x="388" y="-65" type="line"/>
      <point x="478" y="-65" type="line"/>
      <point x="478" y="662" type="line"/>
    </contour>
  </outline>
</glyph>
<glyph name="anusvarasinh" format="2">
  <advance width="480"/>
  <unicode hex="0D82"/>
  <outline>
    <contour>
      <point x="27" y="272" type="curve" smooth="yes"/>
      <point x="27" y="124"/>
      <point x="109" y="48"/>
      <point x="239" y="48" type="curve" smooth="yes"/>
      <point x="370" y="48"/>
      <point x="453" y="123"/>
      <point x="453" y="272" type="curve" smooth="yes"/>
      <point x="453" y="393"/>
      <point x="371" y="480"/>
      <point x="241" y="480" type="curve" smooth="yes"/>
      <point x="110" y="480"/>
      <point x="27" y="391"/>
    </contour>
    <contour>
      <point x="117" y="296" type="curve" smooth="yes"/>
      <point x="117" y="366"/>
      <point x="160" y="408"/>
      <point x="239" y="408" type="curve" smooth="yes"/>
      <point x="320" y="408"/>
      <point x="363" y="366"/>
      <point x="363" y="296" type="curve" smooth="yes"/>
      <point x="363" y="235"/>
      <point x="330" y="189"/>
      <point x="239" y="189" type="curve" smooth="yes"/>
      <point x="150" y="189"/>
      <point x="117" y="235"/>
    </contour>
  </outline>
</glyph>
<glyph name="visargasinh" format="2">
  <advance width="324"/>
  <unicode hex="0D83"/>
  <outline>
    <contour>
      <point x="297" y="421" type="curve" smooth="yes"/>
      <point x="297" y="498"/>
      <point x="244" y="547"/>
      <point x="161" y="547" type="curve" smooth="yes"/>
      <point x="79" y="547"/>
      <point x="27" y="491"/>
      <point x="27" y="418" type="curve" smooth="yes"/>
      <point x="27" y="346"/>
      <point x="73" y="291"/>
      <point x="163" y="291" type="curve" smooth="yes"/>
      <point x="244" y="291"/>
      <point x="297" y="339"/>
    </contour>
    <contour>
      <point x="221" y="422" type="curve" smooth="yes"/>
      <point x="221" y="386"/>
      <point x="196" y="367"/>
      <point x="160" y="367" type="curve" smooth="yes"/>
      <point x="120" y="367"/>
      <point x="103" y="394"/>
      <point x="103" y="419" type="curve" smooth="yes"/>
      <point x="103" y="455"/>
      <point x="127" y="475"/>
      <point x="162" y="475" type="curve" smooth="yes"/>
      <point x="201" y="475"/>
      <point x="221" y="452"/>
    </contour>
    <contour>
      <point x="297" y="130" type="curve" smooth="yes"/>
      <point x="297" y="206"/>
      <point x="244" y="256"/>
      <point x="161" y="256" type="curve" smooth="yes"/>
      <point x="79" y="256"/>
      <point x="27" y="200"/>
      <point x="27" y="127" type="curve" smooth="yes"/>
      <point x="27" y="54"/>
      <point x="73" y="0"/>
      <point x="163" y="0" type="curve" smooth="yes"/>
      <point x="244" y="0"/>
      <point x="297" y="48"/>
    </contour>
    <contour>
      <point x="221" y="132" type="curve" smooth="yes"/>
      <point x="221" y="95"/>
      <point x="196" y="76"/>
      <point x="160" y="76" type="curve" smooth="yes"/>
      <point x="120" y="76"/>
      <point x="103" y="103"/>
      <point x="103" y="128" type="curve" smooth="yes"/>
      <point x="103" y="164"/>
      <point x="127" y="184"/>
      <point x="162" y="184" type="curve" smooth="yes"/>
      <point x="201" y="184"/>
      <point x="221" y="161"/>
    </contour>
  </outline>
</glyph>
<glyph name="asinh" format="2">
  <advance width="745"/>
  <unicode hex="0D85"/>
  <outline>
    <contour>
      <point x="355" y="-10" type="curve" smooth="yes"/>
      <point x="480" y="-10"/>
      <point x="597" y="22"/>
      <point x="668" y="58" type="curve"/>
      <point x="637" y="133" type="line"/>
      <point x="544" y="88"/>
      <point x="472" y="74"/>
      <point x="397" y="74" type="curve" smooth="yes"/>
      <point x="290" y="74"/>
      <point x="220" y="121"/>
      <point x="220" y="218" type="curve" smooth="yes"/>
      <point x="220" y="318"/>
      <point x="276" y="374"/>
      <point x="438" y="374" type="curve" smooth="yes"/>
      <point x="532" y="374" type="line"/>
      <point x="532" y="396" type="line" smooth="yes"/>
      <point x="532" y="520"/>
      <point x="474" y="598"/>
      <point x="365" y="598" type="curve" smooth="yes"/>
      <point x="265" y="598"/>
      <point x="217" y="555"/>
      <point x="217" y="499" type="curve" smooth="yes"/>
      <point x="217" y="479"/>
      <point x="221" y="459"/>
      <point x="229" y="445" type="curve"/>
      <point x="359" y="458" type="line"/>
      <point x="358" y="464"/>
      <point x="357" y="471"/>
      <point x="357" y="478" type="curve" smooth="yes"/>
      <point x="357" y="498"/>
      <point x="367" y="515"/>
      <point x="395" y="515" type="curve" smooth="yes"/>
      <point x="434" y="515"/>
      <point x="449" y="481"/>
      <point x="458" y="442" type="curve"/>
      <point x="409" y="442" type="line" smooth="yes"/>
      <point x="164" y="442"/>
      <point x="28" y="368"/>
      <point x="28" y="213" type="curve" smooth="yes"/>
      <point x="28" y="75"/>
      <point x="123" y="-10"/>
    </contour>
    <contour>
      <point x="462" y="-226" type="line"/>
      <point x="541" y="-226" type="line"/>
      <point x="541" y="366" type="line" smooth="yes"/>
      <point x="541" y="447"/>
      <point x="572" y="499"/>
      <point x="638" y="548" type="curve"/>
      <point x="576" y="598" type="line"/>
      <point x="503" y="534"/>
      <point x="462" y="447"/>
      <point x="462" y="331" type="curve" smooth="yes"/>
    </contour>
    <contour>
      <point x="608" y="247" type="curve" smooth="yes"/>
      <point x="681" y="247"/>
      <point x="725" y="280"/>
      <point x="725" y="346" type="curve" smooth="yes"/>
      <point x="725" y="390"/>
      <point x="711" y="417"/>
      <point x="668" y="464" type="curve" smooth="yes"/>
      <point x="633" y="502"/>
      <point x="625" y="517"/>
      <point x="625" y="533" type="curve" smooth="yes"/>
      <point x="625" y="540"/>
      <point x="626" y="546"/>
      <point x="629" y="553" type="curve"/>
      <point x="564" y="504" type="line"/>
      <point x="565" y="478"/>
      <point x="580" y="447"/>
      <point x="603" y="423" type="curve" smooth="yes"/>
      <point x="634" y="390"/>
      <point x="644" y="374"/>
      <point x="644" y="355" type="curve" smooth="yes"/>
      <point x="644" y="331"/>
      <point x="631" y="319"/>
      <point x="602" y="319" type="curve" smooth="yes"/>
      <point x="568" y="319"/>
      <point x="540" y="335"/>
      <point x="517" y="359" type="curve"/>
      <point x="488" y="287" type="line"/>
      <point x="521" y="264"/>
      <point x="564" y="247"/>
    </contour>
  </outline>
</glyph>
<glyph name="isinh" format="2">
  <advance width="780"/>
  <unicode hex="0D89"/>
  <outline>
    <contour>
      <point x="308" y="70" type="curve" smooth="yes"/>
      <point x="427" y="70"/>
      <point x="525" y="119"/>
      <point x="525" y="247" type="curve" smooth="yes"/>
      <point x="525" y="353"/>
      <point x="456" y="398"/>
      <point x="384" y="398" type="curve" smooth="yes"/>
      <point x="310" y="398"/>
      <point x="257" y="352"/>
      <point x="257" y="281" type="curve" smooth="yes"/>
      <point x="257" y="211"/>
      <point x="304" y="166"/>
      <point x="385" y="166" type="curve" smooth="yes"/>
      <point x="436" y="166"/>
      <point x="466" y="194"/>
      <point x="481" y="226" type="curve"/>
      <point x="465" y="227" type="line"/>
      <point x="446" y="153"/>
      <point x="377" y="141"/>
      <point x="309" y="141" type="curve" smooth="yes"/>
      <point x="213" y="141"/>
      <point x="134" y="177"/>
      <point x="134" y="283" type="curve" smooth="yes"/>
      <point x="134" y="387"/>
      <point x="222" y="445"/>
      <point x="379" y="445" type="curve" smooth="yes"/>
      <point x="547" y="445"/>
      <point x="644" y="376"/>
      <point x="644" y="249" type="curve" smooth="yes"/>
      <point x="644" y="141"/>
      <point x="577" y="73"/>
      <point x="412" y="73" type="curve" smooth="yes"/>
      <point x="372" y="73" type="line"/>
      <point x="371" y="0" type="line"/>
      <point x="405" y="0" type="line" smooth="yes"/>
      <point x="646" y="0"/>
      <point x="747" y="125"/>
      <point x="747" y="303" type="curve" smooth="yes"/>
      <point x="747" y="468"/>
      <point x="630" y="598"/>
      <point x="385" y="598" type="curve" smooth="yes"/>
      <point x="142" y="598"/>
      <point x="31" y="463"/>
      <point x="31" y="315" type="curve" smooth="yes"/>
      <point x="31" y="152"/>
      <point x="148" y="70"/>
    </contour>
    <contour>
      <point x="387" y="232" type="curve" smooth="yes"/>
      <point x="351" y="232"/>
      <point x="338" y="258"/>
      <point x="338" y="282" type="curve" smooth="yes"/>
      <point x="338" y="307"/>
      <point x="354" y="330"/>
      <point x="387" y="330" type="curve" smooth="yes"/>
      <point x="420" y="330"/>
      <point x="434" y="307"/>
      <point x="434" y="281" type="curve" smooth="yes"/>
      <point x="434" y="254"/>
      <point x="422" y="232"/>
    </contour>
    <contour>
      <point x="291" y="-16" type="curve"/>
      <point x="199" y="15" type="line"/>
      <point x="184" y="-10"/>
      <point x="171" y="-39"/>
      <point x="171" y="-80" type="curve" smooth="yes"/>
      <point x="171" y="-175"/>
      <point x="237" y="-252"/>
      <point x="395" y="-252" type="curve" smooth="yes"/>
      <point x="529" y="-252"/>
      <point x="601" y="-191"/>
      <point x="601" y="-84" type="curve" smooth="yes"/>
      <point x="601" y="-33"/>
      <point x="585" y="2"/>
      <point x="555" y="36" type="curve"/>
      <point x="472" y="17" type="line"/>
      <point x="496" y="-2"/>
      <point x="515" y="-35"/>
      <point x="515" y="-81" type="curve" smooth="yes"/>
      <point x="515" y="-161"/>
      <point x="448" y="-179"/>
      <point x="396" y="-179" type="curve" smooth="yes"/>
      <point x="321" y="-179"/>
      <point x="278" y="-148"/>
      <point x="278" y="-79" type="curve" smooth="yes"/>
      <point x="278" y="-57"/>
      <point x="282" y="-34"/>
    </contour>
  </outline>
</glyph>
<glyph name="iisinh" format="2">
  <advance width="719"/>
  <unicode hex="0D8A"/>
  <outline>
    <contour>
      <point x="359" y="-10" type="curve" smooth="yes"/>
      <point x="562" y="-10"/>
      <point x="686" y="89"/>
      <point x="686" y="297" type="curve" smooth="yes"/>
      <point x="686" y="460"/>
      <point x="561" y="590"/>
      <point x="359" y="590" type="curve" smooth="yes"/>
      <point x="169" y="590"/>
      <point x="33" y="468"/>
      <point x="33" y="294" type="curve" smooth="yes"/>
      <point x="33" y="91"/>
      <point x="152" y="-10"/>
    </contour>
    <contour>
      <point x="360" y="188" type="curve" smooth="yes"/>
      <point x="229" y="188"/>
      <point x="140" y="232"/>
      <point x="140" y="346" type="curve" smooth="yes"/>
      <point x="140" y="457"/>
      <point x="231" y="518"/>
      <point x="359" y="518" type="curve" smooth="yes"/>
      <point x="475" y="518"/>
      <point x="579" y="461"/>
      <point x="579" y="347" type="curve" smooth="yes"/>
      <point x="579" y="235"/>
      <point x="492" y="188"/>
    </contour>
    <contour>
      <point x="216" y="539" type="curve"/>
      <point x="310" y="532" type="line"/>
      <point x="418" y="590"/>
      <point x="591" y="718"/>
      <point x="679" y="793" type="curve"/>
      <point x="610" y="870" type="line"/>
      <point x="517" y="782"/>
      <point x="367" y="645"/>
    </contour>
    <contour>
      <point x="397" y="733" type="curve" smooth="yes"/>
      <point x="397" y="790"/>
      <point x="358" y="826"/>
      <point x="298" y="826" type="curve" smooth="yes"/>
      <point x="238" y="826"/>
      <point x="199" y="785"/>
      <point x="199" y="731" type="curve" smooth="yes"/>
      <point x="199" y="678"/>
      <point x="233" y="637"/>
      <point x="299" y="637" type="curve" smooth="yes"/>
      <point x="358" y="637"/>
      <point x="397" y="674"/>
    </contour>
    <contour>
      <point x="334" y="732" type="curve" smooth="yes"/>
      <point x="334" y="709"/>
      <point x="320" y="697"/>
      <point x="298" y="697" type="curve" smooth="yes"/>
      <point x="272" y="697"/>
      <point x="262" y="714"/>
      <point x="262" y="730" type="curve" smooth="yes"/>
      <point x="262" y="753"/>
      <point x="277" y="767"/>
      <point x="299" y="767" type="curve" smooth="yes"/>
      <point x="323" y="767"/>
      <point x="334" y="751"/>
    </contour>
    <contour>
      <point x="719" y="618" type="curve" smooth="yes"/>
      <point x="719" y="674"/>
      <point x="680" y="711"/>
      <point x="620" y="711" type="curve" smooth="yes"/>
      <point x="560" y="711"/>
      <point x="521" y="670"/>
      <point x="521" y="616" type="curve" smooth="yes"/>
      <point x="521" y="563"/>
      <point x="555" y="522"/>
      <point x="621" y="522" type="curve" smooth="yes"/>
      <point x="680" y="522"/>
      <point x="719" y="559"/>
    </contour>
    <contour>
      <point x="656" y="618" type="curve" smooth="yes"/>
      <point x="656" y="595"/>
      <point x="641" y="582"/>
      <point x="619" y="582" type="curve" smooth="yes"/>
      <point x="594" y="582"/>
      <point x="584" y="599"/>
      <point x="584" y="615" type="curve" smooth="yes"/>
      <point x="584" y="639"/>
      <point x="599" y="652"/>
      <point x="621" y="652" type="curve" smooth="yes"/>
      <point x="645" y="652"/>
      <point x="656" y="636"/>
    </contour>
  </outline>
</glyph>
<glyph name="usinh" format="2">
  <advance width="808"/>
  <unicode hex="0D8B"/>
  <outline>
    <contour>
      <point x="415" y="-276" type="curve" smooth="yes"/>
      <point x="690" y="-276"/>
      <point x="799" y="-124"/>
      <point x="799" y="59" type="curve" smooth="yes"/>
      <point x="799" y="97"/>
      <point x="796" y="124"/>
      <point x="793" y="144" type="curve"/>
      <point x="714" y="138" type="line"/>
      <point x="717" y="117"/>
      <point x="718" y="100"/>
      <point x="718" y="78" type="curve" smooth="yes"/>
      <point x="718" y="-74"/>
      <point x="628" y="-151"/>
      <point x="459" y="-151" type="curve" smooth="yes"/>
      <point x="293" y="-151"/>
      <point x="199" y="-62"/>
      <point x="199" y="98" type="curve" smooth="yes"/>
      <point x="199" y="248"/>
      <point x="301" y="371"/>
      <point x="581" y="371" type="curve" smooth="yes"/>
      <point x="711" y="371" type="line"/>
      <point x="711" y="393" type="line" smooth="yes"/>
      <point x="711" y="496"/>
      <point x="660" y="598"/>
      <point x="525" y="598" type="curve" smooth="yes"/>
      <point x="419" y="598"/>
      <point x="372" y="555"/>
      <point x="372" y="499" type="curve" smooth="yes"/>
      <point x="372" y="479"/>
      <point x="376" y="459"/>
      <point x="384" y="445" type="curve"/>
      <point x="514" y="458" type="line"/>
      <point x="513" y="464"/>
      <point x="512" y="473"/>
      <point x="512" y="478" type="curve" smooth="yes"/>
      <point x="512" y="498"/>
      <point x="521" y="515"/>
      <point x="554" y="515" type="curve" smooth="yes"/>
      <point x="599" y="515"/>
      <point x="615" y="481"/>
      <point x="625" y="442" type="curve"/>
      <point x="552" y="442" type="line" smooth="yes"/>
      <point x="233" y="442"/>
      <point x="25" y="321"/>
      <point x="25" y="72" type="curve" smooth="yes"/>
      <point x="25" y="-127"/>
      <point x="151" y="-276"/>
    </contour>
  </outline>
</glyph>
<glyph name="lvocalicsinh" format="2">
  <advance width="1121"/>
  <unicode hex="0D8F"/>
  <outline>
    <contour>
      <point x="811" y="435" type="curve"/>
      <point x="888" y="414" type="line"/>
      <point x="894" y="431"/>
      <point x="897" y="453"/>
      <point x="897" y="478" type="curve" smooth="yes"/>
      <point x="897" y="535"/>
      <point x="865" y="598"/>
      <point x="756" y="598" type="curve" smooth="yes"/>
      <point x="648" y="598"/>
      <point x="578" y="515"/>
      <point x="578" y="400" type="curve" smooth="yes"/>
      <point x="578" y="374" type="line"/>
      <point x="683" y="374" type="line" smooth="yes"/>
      <point x="767" y="374"/>
      <point x="822" y="360"/>
      <point x="822" y="296" type="curve" smooth="yes"/>
      <point x="822" y="210"/>
      <point x="718" y="188"/>
      <point x="559" y="188" type="curve" smooth="yes"/>
      <point x="395" y="188"/>
      <point x="299" y="214"/>
      <point x="299" y="294" type="curve" smooth="yes"/>
      <point x="299" y="362"/>
      <point x="358" y="374"/>
      <point x="453" y="374" type="curve" smooth="yes"/>
      <point x="552" y="374" type="line"/>
      <point x="552" y="405" type="line" smooth="yes"/>
      <point x="552" y="520"/>
      <point x="482" y="598"/>
      <point x="372" y="598" type="curve" smooth="yes"/>
      <point x="277" y="598"/>
      <point x="229" y="554"/>
      <point x="229" y="498" type="curve" smooth="yes"/>
      <point x="229" y="468"/>
      <point x="239" y="444"/>
      <point x="256" y="428" type="curve"/>
      <point x="367" y="452" type="line"/>
      <point x="365" y="459"/>
      <point x="364" y="467"/>
      <point x="364" y="477" type="curve" smooth="yes"/>
      <point x="364" y="498"/>
      <point x="374" y="515"/>
      <point x="402" y="515" type="curve" smooth="yes"/>
      <point x="440" y="515"/>
      <point x="458" y="480"/>
      <point x="466" y="438" type="curve"/>
      <point x="473" y="442" type="line"/>
      <point x="437" y="442" type="line" smooth="yes"/>
      <point x="281" y="442"/>
      <point x="196" y="373"/>
      <point x="196" y="244" type="curve" smooth="yes"/>
      <point x="196" y="88"/>
      <point x="310" y="-10"/>
      <point x="559" y="-10" type="curve" smooth="yes"/>
      <point x="800" y="-10"/>
      <point x="925" y="81"/>
      <point x="925" y="244" type="curve" smooth="yes"/>
      <point x="925" y="374"/>
      <point x="838" y="442"/>
      <point x="697" y="442" type="curve" smooth="yes"/>
      <point x="657" y="442" type="line"/>
      <point x="667" y="437" type="line"/>
      <point x="678" y="501"/>
      <point x="717" y="516"/>
      <point x="755" y="516" type="curve" smooth="yes"/>
      <point x="789" y="516"/>
      <point x="815" y="497"/>
      <point x="815" y="461" type="curve" smooth="yes"/>
      <point x="815" y="454"/>
      <point x="814" y="444"/>
    </contour>
    <contour>
      <point x="32" y="326" type="curve" smooth="yes"/>
      <point x="32" y="196"/>
      <point x="94" y="101"/>
      <point x="165" y="37" type="curve"/>
      <point x="225" y="94" type="line"/>
      <point x="165" y="154"/>
      <point x="120" y="220"/>
      <point x="120" y="316" type="curve" smooth="yes"/>
      <point x="120" y="452"/>
      <point x="219" y="526"/>
      <point x="310" y="526" type="curve" smooth="yes"/>
      <point x="321" y="526"/>
      <point x="330" y="526"/>
      <point x="339" y="525" type="curve"/>
      <point x="371" y="590" type="line"/>
      <point x="355" y="593"/>
      <point x="339" y="595"/>
      <point x="309" y="595" type="curve" smooth="yes"/>
      <point x="169" y="595"/>
      <point x="32" y="504"/>
    </contour>
    <contour>
      <point x="1089" y="333" type="curve" smooth="yes"/>
      <point x="1089" y="507"/>
      <point x="952" y="595"/>
      <point x="825" y="595" type="curve" smooth="yes"/>
      <point x="782" y="595"/>
      <point x="766" y="593"/>
      <point x="750" y="590" type="curve"/>
      <point x="782" y="523" type="line"/>
      <point x="790" y="525"/>
      <point x="812" y="526"/>
      <point x="826" y="526" type="curve" smooth="yes"/>
      <point x="902" y="526"/>
      <point x="1001" y="455"/>
      <point x="1001" y="329" type="curve" smooth="yes"/>
      <point x="1001" y="220"/>
      <point x="956" y="154"/>
      <point x="896" y="94" type="curve"/>
      <point x="956" y="37" type="line"/>
      <point x="1027" y="101"/>
      <point x="1089" y="196"/>
    </contour>
  </outline>
</glyph>
<glyph name="esinh" format="2">
  <advance width="823"/>
  <unicode hex="0D91"/>
  <outline>
    <contour>
      <point x="361" y="-10" type="curve" smooth="yes"/>
      <point x="665" y="-10"/>
      <point x="791" y="165"/>
      <point x="791" y="403" type="curve" smooth="yes"/>
      <point x="791" y="660"/>
      <point x="607" y="790"/>
      <point x="320" y="817" type="curve"/>
      <point x="309" y="734" type="line"/>
      <point x="541" y="726"/>
      <point x="687" y="638"/>
      <point x="687" y="439" type="curve" smooth="yes"/>
      <point x="687" y="313"/>
      <point x="612" y="188"/>
      <point x="360" y="188" type="curve" smooth="yes"/>
      <point x="209" y="188"/>
      <point x="159" y="221"/>
      <point x="159" y="284" type="curve" smooth="yes"/>
      <point x="159" y="324"/>
      <point x="190" y="362"/>
      <point x="271" y="382" type="curve"/>
      <point x="202" y="374" type="line"/>
      <point x="437" y="374" type="line"/>
      <point x="437" y="405" type="line" smooth="yes"/>
      <point x="437" y="520"/>
      <point x="367" y="598"/>
      <point x="257" y="598" type="curve" smooth="yes"/>
      <point x="156" y="598"/>
      <point x="109" y="555"/>
      <point x="109" y="499" type="curve" smooth="yes"/>
      <point x="109" y="485"/>
      <point x="111" y="466"/>
      <point x="118" y="452" type="curve"/>
      <point x="250" y="460" type="line"/>
      <point x="249" y="467"/>
      <point x="249" y="472"/>
      <point x="249" y="477" type="curve" smooth="yes"/>
      <point x="249" y="498"/>
      <point x="259" y="515"/>
      <point x="287" y="515" type="curve" smooth="yes"/>
      <point x="325" y="515"/>
      <point x="342" y="480"/>
      <point x="350" y="442" type="curve"/>
      <point x="21" y="442" type="line"/>
      <point x="21" y="374" type="line"/>
      <point x="43" y="374" type="line" smooth="yes"/>
      <point x="76" y="374"/>
      <point x="129" y="376"/>
      <point x="157" y="380" type="curve"/>
      <point x="190" y="406" type="line"/>
      <point x="110" y="374"/>
      <point x="52" y="314"/>
      <point x="52" y="221" type="curve" smooth="yes"/>
      <point x="52" y="81"/>
      <point x="139" y="-10"/>
    </contour>
    <contour>
      <point x="498" y="540" type="curve" smooth="yes"/>
      <point x="580" y="540"/>
      <point x="622" y="585"/>
      <point x="654" y="667" type="curve"/>
      <point x="591" y="717" type="line"/>
      <point x="567" y="653"/>
      <point x="552" y="625"/>
      <point x="504" y="625" type="curve" smooth="yes"/>
      <point x="470" y="625"/>
      <point x="449" y="641"/>
      <point x="437" y="676" type="curve" smooth="yes"/>
      <point x="419" y="728"/>
      <point x="388" y="765"/>
      <point x="337" y="781" type="curve"/>
      <point x="315" y="737" type="line"/>
      <point x="331" y="732"/>
      <point x="343" y="720"/>
      <point x="355" y="672" type="curve" smooth="yes"/>
      <point x="378" y="583"/>
      <point x="419" y="540"/>
    </contour>
  </outline>
</glyph>
<glyph name="eesinh" format="2">
  <advance width="823"/>
  <unicode hex="0D92"/>
  <outline>
    <contour>
      <point x="528" y="963" type="curve" smooth="yes"/>
      <point x="502" y="963"/>
      <point x="484" y="958"/>
      <point x="473" y="953" type="curve"/>
      <point x="484" y="889" type="line"/>
      <point x="490" y="890"/>
      <point x="497" y="891"/>
      <point x="504" y="891" type="curve" smooth="yes"/>
      <point x="526" y="891"/>
      <point x="544" y="879"/>
      <point x="544" y="835" type="curve" smooth="yes"/>
      <point x="544" y="825" type="line" smooth="yes"/>
      <point x="544" y="795"/>
      <point x="546" y="764"/>
      <point x="549" y="736" type="curve"/>
      <point x="616" y="698" type="line"/>
      <point x="616" y="728" type="line" smooth="yes"/>
      <point x="616" y="758"/>
      <point x="616" y="789"/>
      <point x="613" y="819" type="curve"/>
      <point x="616" y="836" type="line"/>
      <point x="616" y="901" type="line"/>
      <point x="605" y="901" type="line"/>
      <point x="594" y="941"/>
      <point x="562" y="963"/>
    </contour>
    <contour>
      <point x="670" y="963" type="curve" smooth="yes"/>
      <point x="628" y="963"/>
      <point x="595" y="937"/>
      <point x="575" y="896" type="curve"/>
      <point x="614" y="863" type="line"/>
      <point x="619" y="886"/>
      <point x="635" y="899"/>
      <point x="651" y="899" type="curve" smooth="yes"/>
      <point x="674" y="899"/>
      <point x="685" y="882"/>
      <point x="685" y="855" type="curve" smooth="yes"/>
      <point x="685" y="829"/>
      <point x="673" y="814"/>
      <point x="653" y="814" type="curve" smooth="yes"/>
      <point x="628" y="814"/>
      <point x="617" y="834"/>
      <point x="612" y="862" type="curve"/>
      <point x="594" y="795" type="line"/>
      <point x="607" y="764"/>
      <point x="641" y="749"/>
      <point x="669" y="749" type="curve" smooth="yes"/>
      <point x="729" y="749"/>
      <point x="757" y="793"/>
      <point x="757" y="856" type="curve" smooth="yes"/>
      <point x="757" y="920"/>
      <point x="726" y="963"/>
    </contour>
    <component base="esinh"/>
  </outline>
</glyph>
<glyph name="osinh" format="2">
  <advance width="890"/>
  <unicode hex="0D94"/>
  <outline>
    <contour>
      <point x="618" y="-10" type="curve" smooth="yes"/>
      <point x="733" y="-10"/>
      <point x="854" y="76"/>
      <point x="854" y="345" type="curve" smooth="yes"/>
      <point x="854" y="653"/>
      <point x="680" y="804"/>
      <point x="408" y="804" type="curve" smooth="yes"/>
      <point x="250" y="804"/>
      <point x="143" y="753"/>
      <point x="43" y="694" type="curve"/>
      <point x="85" y="625" type="line"/>
      <point x="170" y="685"/>
      <point x="275" y="731"/>
      <point x="411" y="731" type="curve" smooth="yes"/>
      <point x="634" y="731"/>
      <point x="750" y="607"/>
      <point x="750" y="381" type="curve" smooth="yes"/>
      <point x="750" y="222"/>
      <point x="684" y="177"/>
      <point x="595" y="177" type="curve" smooth="yes"/>
      <point x="521" y="177"/>
      <point x="485" y="211"/>
      <point x="467" y="235" type="curve"/>
      <point x="378" y="235" type="line"/>
      <point x="350" y="202"/>
      <point x="320" y="177"/>
      <point x="261" y="177" type="curve" smooth="yes"/>
      <point x="185" y="177"/>
      <point x="137" y="206"/>
      <point x="137" y="322" type="curve" smooth="yes"/>
      <point x="137" y="419"/>
      <point x="178" y="495"/>
      <point x="217" y="495" type="curve" smooth="yes"/>
      <point x="236" y="495"/>
      <point x="238" y="483"/>
      <point x="238" y="468" type="curve" smooth="yes"/>
      <point x="238" y="435"/>
      <point x="230" y="426"/>
      <point x="230" y="387" type="curve" smooth="yes"/>
      <point x="230" y="290"/>
      <point x="294" y="227"/>
      <point x="440" y="227" type="curve" smooth="yes"/>
      <point x="562" y="227"/>
      <point x="651" y="286"/>
      <point x="651" y="412" type="curve" smooth="yes"/>
      <point x="651" y="506"/>
      <point x="584" y="581"/>
      <point x="470" y="581" type="curve" smooth="yes"/>
      <point x="368" y="581"/>
      <point x="327" y="520"/>
      <point x="327" y="461" type="curve" smooth="yes"/>
      <point x="327" y="392"/>
      <point x="369" y="346"/>
      <point x="454" y="346" type="curve" smooth="yes"/>
      <point x="526" y="346"/>
      <point x="563" y="390"/>
      <point x="563" y="452" type="curve" smooth="yes"/>
      <point x="563" y="477"/>
      <point x="549" y="502"/>
      <point x="525" y="519" type="curve"/>
      <point x="532" y="502" type="line"/>
      <point x="556" y="484"/>
      <point x="573" y="454"/>
      <point x="573" y="413" type="curve" smooth="yes"/>
      <point x="573" y="346"/>
      <point x="527" y="303"/>
      <point x="437" y="303" type="curve" smooth="yes"/>
      <point x="354" y="303"/>
      <point x="310" y="337"/>
      <point x="310" y="401" type="curve" smooth="yes"/>
      <point x="310" y="435"/>
      <point x="319" y="457"/>
      <point x="319" y="484" type="curve" smooth="yes"/>
      <point x="319" y="533"/>
      <point x="296" y="567"/>
      <point x="229" y="567" type="curve" smooth="yes"/>
      <point x="122" y="567"/>
      <point x="36" y="457"/>
      <point x="36" y="275" type="curve" smooth="yes"/>
      <point x="36" y="80"/>
      <point x="112" y="-10"/>
      <point x="232" y="-10" type="curve" smooth="yes"/>
      <point x="338" y="-10"/>
      <point x="399" y="65"/>
      <point x="422" y="135" type="curve"/>
      <point x="450" y="49"/>
      <point x="502" y="-10"/>
    </contour>
    <contour>
      <point x="503" y="463" type="curve" smooth="yes"/>
      <point x="503" y="436"/>
      <point x="492" y="414"/>
      <point x="456" y="414" type="curve" smooth="yes"/>
      <point x="420" y="414"/>
      <point x="407" y="437"/>
      <point x="407" y="464" type="curve" smooth="yes"/>
      <point x="407" y="489"/>
      <point x="423" y="511"/>
      <point x="456" y="511" type="curve" smooth="yes"/>
      <point x="488" y="511"/>
      <point x="503" y="490"/>
    </contour>
  </outline>
</glyph>
<glyph name="kasinh" format="2">
  <advance width="1039"/>
  <unicode hex="0D9A"/>
  <outline>
    <contour>
      <point x="556" y="-10" type="curve" smooth="yes"/>
      <point x="655" y="-10"/>
      <point x="718" y="75"/>
      <point x="718" y="211" type="curve" smooth="yes"/>
      <point x="718" y="377"/>
      <point x="616" y="442"/>
      <point x="449" y="442" type="curve" smooth="yes"/>
      <point x="385" y="442"/>
      <point x="316" y="431"/>
      <point x="278" y="419" type="curve"/>
      <point x="264" y="369" type="line"/>
      <point x="300" y="372"/>
      <point x="346" y="374"/>
      <point x="424" y="374" type="curve" smooth="yes"/>
      <point x="586" y="374"/>
      <point x="618" y="320"/>
      <point x="618" y="261" type="curve" smooth="yes"/>
      <point x="618" y="204"/>
      <point x="585" y="180"/>
      <point x="533" y="180" type="curve" smooth="yes"/>
      <point x="481" y="180"/>
      <point x="451" y="200"/>
      <point x="440" y="253" type="curve"/>
      <point x="367" y="253" type="line"/>
      <point x="353" y="213"/>
      <point x="335" y="180"/>
      <point x="274" y="180" type="curve" smooth="yes"/>
      <point x="229" y="180"/>
      <point x="199" y="195"/>
      <point x="199" y="242" type="curve" smooth="yes"/>
      <point x="199" y="248"/>
      <point x="199" y="251"/>
      <point x="200" y="257" type="curve"/>
      <point x="140" y="260" type="line"/>
      <point x="89" y="216" type="line"/>
      <point x="72" y="162" type="line"/>
      <point x="157" y="157" type="line"/>
      <point x="122" y="207" type="line"/>
      <point x="117" y="189"/>
      <point x="119" y="178"/>
      <point x="119" y="161" type="curve" smooth="yes"/>
      <point x="119" y="68"/>
      <point x="166" y="-10"/>
      <point x="259" y="-10" type="curve" smooth="yes"/>
      <point x="351" y="-10"/>
      <point x="387" y="50"/>
      <point x="409" y="117" type="curve"/>
      <point x="429" y="41"/>
      <point x="472" y="-10"/>
    </contour>
    <contour>
      <point x="756" y="-8" type="curve" smooth="yes"/>
      <point x="926" y="-8"/>
      <point x="1007" y="109"/>
      <point x="1007" y="274" type="curve" smooth="yes"/>
      <point x="1007" y="462"/>
      <point x="880" y="598"/>
      <point x="642" y="598" type="curve" smooth="yes"/>
      <point x="466" y="598"/>
      <point x="317" y="516"/>
      <point x="12" y="213" type="curve"/>
      <point x="72" y="162" type="line"/>
      <point x="175" y="275"/>
      <point x="261" y="348"/>
      <point x="329" y="396" type="curve"/>
      <point x="366" y="424" type="line"/>
      <point x="432" y="455"/>
      <point x="500" y="471"/>
      <point x="610" y="471" type="curve" smooth="yes"/>
      <point x="794" y="471"/>
      <point x="884" y="369"/>
      <point x="884" y="235" type="curve" smooth="yes"/>
      <point x="884" y="143"/>
      <point x="851" y="65"/>
      <point x="756" y="65" type="curve" smooth="yes"/>
      <point x="731" y="65"/>
      <point x="707" y="67"/>
      <point x="693" y="71" type="curve"/>
      <point x="678" y="0" type="line"/>
      <point x="700" y="-6"/>
      <point x="727" y="-8"/>
    </contour>
    <contour>
      <point x="172" y="578" type="curve" smooth="yes"/>
      <point x="92" y="578"/>
      <point x="28" y="542"/>
      <point x="28" y="458" type="curve" smooth="yes"/>
      <point x="28" y="423"/>
      <point x="41" y="393"/>
      <point x="55" y="369" type="curve"/>
      <point x="181" y="402" type="line"/>
      <point x="175" y="418"/>
      <point x="170" y="433"/>
      <point x="170" y="457" type="curve" smooth="yes"/>
      <point x="170" y="480"/>
      <point x="182" y="495"/>
      <point x="206" y="495" type="curve" smooth="yes"/>
      <point x="238" y="495"/>
      <point x="255" y="459"/>
      <point x="266" y="419" type="curve"/>
      <point x="344" y="438" type="line"/>
      <point x="327" y="504"/>
      <point x="287" y="578"/>
    </contour>
  </outline>
</glyph>
<glyph name="khasinh" format="2">
  <advance width="904"/>
  <unicode hex="0D9B"/>
  <outline>
    <contour>
      <point x="272" y="-10" type="curve" smooth="yes"/>
      <point x="364" y="-10"/>
      <point x="414" y="45"/>
      <point x="414" y="127" type="curve" smooth="yes"/>
      <point x="414" y="202"/>
      <point x="365" y="255"/>
      <point x="276" y="255" type="curve" smooth="yes"/>
      <point x="185" y="255"/>
      <point x="146" y="196"/>
      <point x="146" y="133" type="curve" smooth="yes"/>
      <point x="146" y="108"/>
      <point x="164" y="66"/>
      <point x="175" y="57" type="curve"/>
      <point x="191" y="64" type="line"/>
      <point x="148" y="110"/>
      <point x="130" y="151"/>
      <point x="130" y="218" type="curve" smooth="yes"/>
      <point x="130" y="327"/>
      <point x="200" y="405"/>
      <point x="321" y="405" type="curve" smooth="yes"/>
      <point x="424" y="405"/>
      <point x="474" y="344"/>
      <point x="474" y="254" type="curve" smooth="yes"/>
      <point x="474" y="225"/>
      <point x="468" y="182"/>
      <point x="449" y="138" type="curve"/>
      <point x="428" y="97"/>
      <point x="408" y="52"/>
      <point x="393" y="21" type="curve"/>
      <point x="472" y="-10" type="line"/>
      <point x="489" y="32"/>
      <point x="509" y="77"/>
      <point x="527" y="119" type="curve"/>
      <point x="534" y="140" type="line"/>
      <point x="564" y="195"/>
      <point x="598" y="253"/>
      <point x="598" y="333" type="curve" smooth="yes"/>
      <point x="598" y="452"/>
      <point x="517" y="563"/>
      <point x="336" y="563" type="curve" smooth="yes"/>
      <point x="174" y="563"/>
      <point x="32" y="456"/>
      <point x="32" y="257" type="curve" smooth="yes"/>
      <point x="32" y="100"/>
      <point x="121" y="-10"/>
    </contour>
    <contour>
      <point x="682" y="-10" type="curve" smooth="yes"/>
      <point x="768" y="-10"/>
      <point x="866" y="65"/>
      <point x="866" y="339" type="curve" smooth="yes"/>
      <point x="866" y="666"/>
      <point x="678" y="804"/>
      <point x="432" y="804" type="curve" smooth="yes"/>
      <point x="266" y="804"/>
      <point x="159" y="753"/>
      <point x="59" y="694" type="curve"/>
      <point x="101" y="625" type="line"/>
      <point x="186" y="685"/>
      <point x="291" y="731"/>
      <point x="430" y="731" type="curve" smooth="yes"/>
      <point x="646" y="731"/>
      <point x="762" y="588"/>
      <point x="762" y="361" type="curve" smooth="yes"/>
      <point x="762" y="205"/>
      <point x="721" y="172"/>
      <point x="676" y="172" type="curve" smooth="yes"/>
      <point x="639" y="172"/>
      <point x="621" y="188"/>
      <point x="617" y="222" type="curve"/>
      <point x="510" y="223" type="line"/>
      <point x="491" y="118" type="line"/>
      <point x="547" y="116" type="line"/>
      <point x="536" y="194" type="line"/>
      <point x="536" y="70"/>
      <point x="571" y="-10"/>
    </contour>
    <contour>
      <point x="277" y="185" type="curve" smooth="yes"/>
      <point x="316" y="185"/>
      <point x="333" y="159"/>
      <point x="333" y="127" type="curve" smooth="yes"/>
      <point x="333" y="94"/>
      <point x="313" y="72"/>
      <point x="277" y="72" type="curve" smooth="yes"/>
      <point x="241" y="72"/>
      <point x="223" y="95"/>
      <point x="223" y="128" type="curve" smooth="yes"/>
      <point x="223" y="160"/>
      <point x="239" y="185"/>
    </contour>
  </outline>
</glyph>
<glyph name="ghasinh" format="2">
  <advance width="824"/>
  <unicode hex="0D9D"/>
  <outline>
    <contour>
      <point x="260" y="-10" type="curve" smooth="yes"/>
      <point x="315" y="-10"/>
      <point x="349" y="-7"/>
      <point x="385" y="6" type="curve"/>
      <point x="311" y="183" type="line"/>
      <point x="291" y="180"/>
      <point x="271" y="177"/>
      <point x="253" y="177" type="curve" smooth="yes"/>
      <point x="192" y="177"/>
      <point x="151" y="199"/>
      <point x="151" y="258" type="curve" smooth="yes"/>
      <point x="151" y="319"/>
      <point x="203" y="361"/>
      <point x="282" y="379" type="curve"/>
      <point x="204" y="374" type="line"/>
      <point x="412" y="374" type="line"/>
      <point x="412" y="405" type="line" smooth="yes"/>
      <point x="412" y="520"/>
      <point x="342" y="598"/>
      <point x="232" y="598" type="curve" smooth="yes"/>
      <point x="131" y="598"/>
      <point x="84" y="555"/>
      <point x="84" y="499" type="curve" smooth="yes"/>
      <point x="84" y="485"/>
      <point x="86" y="466"/>
      <point x="93" y="452" type="curve"/>
      <point x="225" y="460" type="line"/>
      <point x="224" y="466"/>
      <point x="224" y="473"/>
      <point x="224" y="477" type="curve" smooth="yes"/>
      <point x="224" y="498"/>
      <point x="234" y="515"/>
      <point x="262" y="515" type="curve" smooth="yes"/>
      <point x="300" y="515"/>
      <point x="317" y="480"/>
      <point x="325" y="442" type="curve"/>
      <point x="21" y="442" type="line"/>
      <point x="21" y="374" type="line"/>
      <point x="65" y="374" type="line" smooth="yes"/>
      <point x="98" y="374"/>
      <point x="151" y="376"/>
      <point x="179" y="380" type="curve"/>
      <point x="211" y="409" type="line"/>
      <point x="114" y="379"/>
      <point x="44" y="298"/>
      <point x="44" y="191" type="curve" smooth="yes"/>
      <point x="44" y="62"/>
      <point x="121" y="-10"/>
    </contour>
    <contour>
      <point x="570" y="-10" type="curve" smooth="yes"/>
      <point x="724" y="-10"/>
      <point x="792" y="77"/>
      <point x="792" y="204" type="curve" smooth="yes"/>
      <point x="792" y="368"/>
      <point x="677" y="442"/>
      <point x="506" y="442" type="curve"/>
      <point x="527" y="437" type="line"/>
      <point x="538" y="501"/>
      <point x="577" y="516"/>
      <point x="615" y="516" type="curve" smooth="yes"/>
      <point x="649" y="516"/>
      <point x="675" y="497"/>
      <point x="675" y="461" type="curve" smooth="yes"/>
      <point x="675" y="447"/>
      <point x="672" y="437"/>
      <point x="669" y="428" type="curve"/>
      <point x="745" y="405" type="line"/>
      <point x="753" y="428"/>
      <point x="758" y="449"/>
      <point x="758" y="477" type="curve" smooth="yes"/>
      <point x="758" y="539"/>
      <point x="725" y="598"/>
      <point x="616" y="598" type="curve" smooth="yes"/>
      <point x="508" y="598"/>
      <point x="438" y="515"/>
      <point x="438" y="400" type="curve" smooth="yes"/>
      <point x="438" y="374" type="line"/>
      <point x="489" y="374" type="line" smooth="yes"/>
      <point x="629" y="374"/>
      <point x="689" y="335"/>
      <point x="689" y="261" type="curve" smooth="yes"/>
      <point x="689" y="188"/>
      <point x="628" y="177"/>
      <point x="592" y="177" type="curve" smooth="yes"/>
      <point x="560" y="177"/>
      <point x="547" y="179"/>
      <point x="528" y="182" type="curve"/>
      <point x="449" y="6" type="line"/>
      <point x="493" y="-5"/>
      <point x="532" y="-10"/>
    </contour>
    <contour>
      <point x="415" y="223" type="curve" smooth="yes"/>
      <point x="473" y="223"/>
      <point x="493" y="202"/>
      <point x="493" y="181" type="curve" smooth="yes"/>
      <point x="493" y="162"/>
      <point x="482" y="153"/>
      <point x="465" y="147" type="curve"/>
      <point x="449" y="6" type="line"/>
      <point x="491" y="85" type="line"/>
      <point x="539" y="96"/>
      <point x="575" y="125"/>
      <point x="575" y="183" type="curve" smooth="yes"/>
      <point x="575" y="238"/>
      <point x="532" y="295"/>
      <point x="416" y="295" type="curve" smooth="yes"/>
      <point x="299" y="295"/>
      <point x="258" y="243"/>
      <point x="258" y="184" type="curve" smooth="yes"/>
      <point x="258" y="128"/>
      <point x="288" y="100"/>
      <point x="345" y="84" type="curve"/>
      <point x="385" y="6" type="line"/>
      <point x="367" y="147" type="line"/>
      <point x="352" y="155"/>
      <point x="342" y="165"/>
      <point x="342" y="182" type="curve" smooth="yes"/>
      <point x="342" y="204"/>
      <point x="363" y="223"/>
    </contour>
  </outline>
</glyph>
<glyph name="ngasinh" format="2">
  <advance width="884"/>
  <unicode hex="0D9E"/>
  <outline>
    <contour>
      <point x="616" y="-10" type="curve" smooth="yes"/>
      <point x="735" y="-10"/>
      <point x="848" y="76"/>
      <point x="848" y="345" type="curve" smooth="yes"/>
      <point x="848" y="655"/>
      <point x="674" y="804"/>
      <point x="415" y="804" type="curve" smooth="yes"/>
      <point x="266" y="804"/>
      <point x="159" y="753"/>
      <point x="59" y="694" type="curve"/>
      <point x="101" y="625" type="line"/>
      <point x="186" y="685"/>
      <point x="291" y="731"/>
      <point x="416" y="731" type="curve" smooth="yes"/>
      <point x="628" y="731"/>
      <point x="744" y="607"/>
      <point x="744" y="381" type="curve" smooth="yes"/>
      <point x="744" y="222"/>
      <point x="677" y="182"/>
      <point x="597" y="182" type="curve" smooth="yes"/>
      <point x="518" y="182"/>
      <point x="482" y="222"/>
      <point x="466" y="268" type="curve"/>
      <point x="393" y="268" type="line"/>
      <point x="370" y="210"/>
      <point x="327" y="182"/>
      <point x="237" y="182" type="curve" smooth="yes"/>
      <point x="178" y="182"/>
      <point x="147" y="196"/>
      <point x="147" y="232" type="curve" smooth="yes"/>
      <point x="147" y="262"/>
      <point x="171" y="282"/>
      <point x="277" y="309" type="curve" smooth="yes"/>
      <point x="453" y="354"/>
      <point x="492" y="395"/>
      <point x="492" y="474" type="curve" smooth="yes"/>
      <point x="492" y="545"/>
      <point x="431" y="598"/>
      <point x="286" y="598" type="curve" smooth="yes"/>
      <point x="116" y="598"/>
      <point x="19" y="549"/>
      <point x="19" y="454" type="curve" smooth="yes"/>
      <point x="19" y="383"/>
      <point x="62" y="333"/>
      <point x="147" y="333" type="curve" smooth="yes"/>
      <point x="232" y="333"/>
      <point x="276" y="384"/>
      <point x="276" y="446" type="curve" smooth="yes"/>
      <point x="276" y="513"/>
      <point x="231" y="553"/>
      <point x="174" y="553" type="curve" smooth="yes"/>
      <point x="160" y="553"/>
      <point x="147" y="551"/>
      <point x="136" y="548" type="curve"/>
      <point x="150" y="508" type="line"/>
      <point x="186" y="516"/>
      <point x="229" y="526"/>
      <point x="287" y="526" type="curve" smooth="yes"/>
      <point x="362" y="526"/>
      <point x="405" y="512"/>
      <point x="405" y="474" type="curve" smooth="yes"/>
      <point x="405" y="434"/>
      <point x="378" y="415"/>
      <point x="271" y="383" type="curve" smooth="yes"/>
      <point x="115" y="336"/>
      <point x="41" y="290"/>
      <point x="41" y="171" type="curve" smooth="yes"/>
      <point x="41" y="70"/>
      <point x="96" y="-10"/>
      <point x="231" y="-10" type="curve" smooth="yes"/>
      <point x="349" y="-10"/>
      <point x="406" y="65"/>
      <point x="429" y="135" type="curve"/>
      <point x="456" y="48"/>
      <point x="512" y="-10"/>
    </contour>
    <contour>
      <point x="196" y="450" type="curve" smooth="yes"/>
      <point x="196" y="423"/>
      <point x="184" y="401"/>
      <point x="149" y="401" type="curve" smooth="yes"/>
      <point x="113" y="401"/>
      <point x="100" y="425"/>
      <point x="100" y="451" type="curve" smooth="yes"/>
      <point x="100" y="476"/>
      <point x="116" y="499"/>
      <point x="149" y="499" type="curve" smooth="yes"/>
      <point x="182" y="499"/>
      <point x="196" y="476"/>
    </contour>
  </outline>
</glyph>
<glyph name="nngasinh" format="2">
  <advance width="1109"/>
  <unicode hex="0D9F"/>
  <outline>
    <contour>
      <point x="790" y="-8" type="curve" smooth="yes"/>
      <point x="904" y="-8"/>
      <point x="1076" y="45"/>
      <point x="1076" y="297" type="curve" smooth="yes"/>
      <point x="1076" y="498"/>
      <point x="945" y="598"/>
      <point x="806" y="598" type="curve" smooth="yes"/>
      <point x="647" y="598"/>
      <point x="543" y="489"/>
      <point x="513" y="292" type="curve"/>
      <point x="570" y="278" type="line"/>
      <point x="578" y="281"/>
      <point x="586" y="283"/>
      <point x="596" y="283" type="curve" smooth="yes"/>
      <point x="618" y="283"/>
      <point x="628" y="271"/>
      <point x="628" y="253" type="curve" smooth="yes"/>
      <point x="628" y="206"/>
      <point x="565" y="187"/>
      <point x="484" y="187" type="curve" smooth="yes"/>
      <point x="345" y="187"/>
      <point x="306" y="261"/>
      <point x="306" y="332" type="curve" smooth="yes"/>
      <point x="306" y="416"/>
      <point x="359" y="488"/>
      <point x="485" y="488" type="curve" smooth="yes"/>
      <point x="495" y="488"/>
      <point x="505" y="487"/>
      <point x="512" y="486" type="curve"/>
      <point x="542" y="575" type="line"/>
      <point x="525" y="553" type="line"/>
      <point x="515" y="555"/>
      <point x="504" y="555"/>
      <point x="495" y="555" type="curve" smooth="yes"/>
      <point x="315" y="555"/>
      <point x="204" y="442"/>
      <point x="204" y="281" type="curve" smooth="yes"/>
      <point x="204" y="116"/>
      <point x="290" y="-10"/>
      <point x="476" y="-10" type="curve" smooth="yes"/>
      <point x="661" y="-10"/>
      <point x="726" y="103"/>
      <point x="726" y="210" type="curve" smooth="yes"/>
      <point x="726" y="314"/>
      <point x="660" y="354"/>
      <point x="587" y="354" type="curve" smooth="yes"/>
      <point x="569" y="354"/>
      <point x="555" y="352"/>
      <point x="543" y="349" type="curve"/>
      <point x="585" y="315" type="line"/>
      <point x="625" y="418"/>
      <point x="691" y="462"/>
      <point x="781" y="462" type="curve" smooth="yes"/>
      <point x="872" y="462"/>
      <point x="953" y="403"/>
      <point x="953" y="248" type="curve" smooth="yes"/>
      <point x="953" y="142"/>
      <point x="896" y="65"/>
      <point x="781" y="65" type="curve" smooth="yes"/>
      <point x="743" y="65"/>
      <point x="720" y="68"/>
      <point x="696" y="74" type="curve"/>
      <point x="677" y="2" type="line"/>
      <point x="705" y="-4"/>
      <point x="743" y="-8"/>
    </contour>
    <contour>
      <point x="33" y="317" type="curve" smooth="yes"/>
      <point x="33" y="214"/>
      <point x="75" y="111"/>
      <point x="127" y="29" type="curve"/>
      <point x="200" y="70" type="line"/>
      <point x="151" y="148"/>
      <point x="121" y="220"/>
      <point x="121" y="312" type="curve" smooth="yes"/>
      <point x="121" y="468"/>
      <point x="228" y="535"/>
      <point x="351" y="535" type="curve" smooth="yes"/>
      <point x="411" y="535"/>
      <point x="460" y="528"/>
      <point x="511" y="519" type="curve"/>
      <point x="542" y="575" type="line"/>
      <point x="471" y="596"/>
      <point x="419" y="607"/>
      <point x="338" y="607" type="curve" smooth="yes"/>
      <point x="164" y="607"/>
      <point x="33" y="504"/>
    </contour>
  </outline>
</glyph>
<glyph name="casinh" format="2">
  <advance width="823"/>
  <unicode hex="0DA0"/>
  <outline>
    <contour>
      <point x="365" y="-10" type="curve" smooth="yes"/>
      <point x="672" y="-10"/>
      <point x="791" y="173"/>
      <point x="791" y="412" type="curve" smooth="yes"/>
      <point x="791" y="698"/>
      <point x="612" y="804"/>
      <point x="396" y="804" type="curve" smooth="yes"/>
      <point x="241" y="804"/>
      <point x="135" y="753"/>
      <point x="35" y="694" type="curve"/>
      <point x="82" y="625" type="line"/>
      <point x="166" y="685"/>
      <point x="267" y="731"/>
      <point x="395" y="731" type="curve" smooth="yes"/>
      <point x="561" y="731"/>
      <point x="687" y="656"/>
      <point x="687" y="458" type="curve" smooth="yes"/>
      <point x="687" y="313"/>
      <point x="613" y="188"/>
      <point x="357" y="188" type="curve" smooth="yes"/>
      <point x="224" y="188"/>
      <point x="159" y="221"/>
      <point x="159" y="284" type="curve" smooth="yes"/>
      <point x="159" y="326"/>
      <point x="189" y="362"/>
      <point x="270" y="382" type="curve"/>
      <point x="202" y="374" type="line"/>
      <point x="440" y="374" type="line"/>
      <point x="440" y="405" type="line" smooth="yes"/>
      <point x="440" y="520"/>
      <point x="370" y="598"/>
      <point x="260" y="598" type="curve" smooth="yes"/>
      <point x="159" y="598"/>
      <point x="112" y="555"/>
      <point x="112" y="499" type="curve" smooth="yes"/>
      <point x="112" y="485"/>
      <point x="114" y="466"/>
      <point x="121" y="452" type="curve"/>
      <point x="253" y="460" type="line"/>
      <point x="252" y="467"/>
      <point x="252" y="472"/>
      <point x="252" y="477" type="curve" smooth="yes"/>
      <point x="252" y="498"/>
      <point x="262" y="515"/>
      <point x="290" y="515" type="curve" smooth="yes"/>
      <point x="328" y="515"/>
      <point x="345" y="480"/>
      <point x="353" y="442" type="curve"/>
      <point x="21" y="442" type="line"/>
      <point x="21" y="374" type="line"/>
      <point x="43" y="374" type="line" smooth="yes"/>
      <point x="76" y="374"/>
      <point x="129" y="376"/>
      <point x="157" y="380" type="curve"/>
      <point x="188" y="406" type="line"/>
      <point x="108" y="374"/>
      <point x="52" y="314"/>
      <point x="52" y="229" type="curve" smooth="yes"/>
      <point x="52" y="81"/>
      <point x="143" y="-10"/>
    </contour>
  </outline>
</glyph>
<glyph name="chasinh" format="2">
  <advance width="793"/>
  <unicode hex="0DA1"/>
  <outline>
    <contour>
      <point x="395" y="-10" type="curve" smooth="yes"/>
      <point x="635" y="-10"/>
      <point x="761" y="84"/>
      <point x="761" y="244" type="curve" smooth="yes"/>
      <point x="761" y="371"/>
      <point x="675" y="442"/>
      <point x="532" y="442" type="curve" smooth="yes"/>
      <point x="450" y="442" type="line"/>
      <point x="492" y="424" type="line"/>
      <point x="501" y="495"/>
      <point x="535" y="530"/>
      <point x="582" y="530" type="curve" smooth="yes"/>
      <point x="627" y="530"/>
      <point x="649" y="497"/>
      <point x="649" y="433" type="curve" smooth="yes"/>
      <point x="649" y="342"/>
      <point x="612" y="300"/>
      <point x="559" y="300" type="curve" smooth="yes"/>
      <point x="511" y="300"/>
      <point x="490" y="330"/>
      <point x="490" y="398" type="curve"/>
      <point x="444" y="440" type="line"/>
      <point x="505" y="540" type="line"/>
      <point x="552" y="622"/>
      <point x="648" y="658"/>
      <point x="758" y="683" type="curve"/>
      <point x="720" y="799" type="line"/>
      <point x="574" y="759"/>
      <point x="413" y="613"/>
      <point x="413" y="408" type="curve" smooth="yes"/>
      <point x="413" y="283"/>
      <point x="463" y="232"/>
      <point x="554" y="232" type="curve" smooth="yes"/>
      <point x="660" y="232"/>
      <point x="737" y="326"/>
      <point x="737" y="437" type="curve" smooth="yes"/>
      <point x="737" y="517"/>
      <point x="704" y="598"/>
      <point x="598" y="598" type="curve" smooth="yes"/>
      <point x="518" y="598"/>
      <point x="437" y="518"/>
      <point x="437" y="430" type="curve" smooth="yes"/>
      <point x="437" y="374" type="line"/>
      <point x="518" y="374" type="line" smooth="yes"/>
      <point x="601" y="374"/>
      <point x="660" y="360"/>
      <point x="660" y="296" type="curve" smooth="yes"/>
      <point x="660" y="210"/>
      <point x="554" y="188"/>
      <point x="395" y="188" type="curve" smooth="yes"/>
      <point x="231" y="188"/>
      <point x="135" y="214"/>
      <point x="135" y="294" type="curve" smooth="yes"/>
      <point x="135" y="362"/>
      <point x="194" y="374"/>
      <point x="289" y="374" type="curve" smooth="yes"/>
      <point x="388" y="374" type="line"/>
      <point x="388" y="405" type="line" smooth="yes"/>
      <point x="388" y="520"/>
      <point x="318" y="598"/>
      <point x="208" y="598" type="curve" smooth="yes"/>
      <point x="107" y="598"/>
      <point x="60" y="555"/>
      <point x="60" y="499" type="curve" smooth="yes"/>
      <point x="60" y="466"/>
      <point x="70" y="442"/>
      <point x="87" y="427" type="curve"/>
      <point x="203" y="452" type="line"/>
      <point x="201" y="459"/>
      <point x="200" y="467"/>
      <point x="200" y="477" type="curve" smooth="yes"/>
      <point x="200" y="498"/>
      <point x="210" y="515"/>
      <point x="238" y="515" type="curve" smooth="yes"/>
      <point x="276" y="515"/>
      <point x="294" y="480"/>
      <point x="302" y="438" type="curve"/>
      <point x="310" y="442" type="line"/>
      <point x="273" y="442" type="line" smooth="yes"/>
      <point x="117" y="442"/>
      <point x="32" y="373"/>
      <point x="32" y="244" type="curve" smooth="yes"/>
      <point x="32" y="86"/>
      <point x="146" y="-10"/>
    </contour>
  </outline>
</glyph>
<glyph name="jasinh" format="2">
  <advance width="793"/>
  <unicode hex="0DA2"/>
  <outline>
    <contour>
      <point x="395" y="-10" type="curve" smooth="yes"/>
      <point x="635" y="-10"/>
      <point x="761" y="84"/>
      <point x="761" y="244" type="curve" smooth="yes"/>
      <point x="761" y="371"/>
      <point x="675" y="442"/>
      <point x="533" y="442" type="curve" smooth="yes"/>
      <point x="465" y="442" type="line"/>
      <point x="497" y="441" type="line"/>
      <point x="509" y="501"/>
      <point x="546" y="530"/>
      <point x="596" y="530" type="curve" smooth="yes"/>
      <point x="641" y="530"/>
      <point x="653" y="505"/>
      <point x="653" y="481" type="curve" smooth="yes"/>
      <point x="653" y="458"/>
      <point x="642" y="446"/>
      <point x="621" y="446" type="curve" smooth="yes"/>
      <point x="589" y="446"/>
      <point x="578" y="468"/>
      <point x="578" y="506" type="curve" smooth="yes"/>
      <point x="578" y="604"/>
      <point x="638" y="654"/>
      <point x="758" y="683" type="curve"/>
      <point x="720" y="799" type="line"/>
      <point x="592" y="764"/>
      <point x="508" y="660"/>
      <point x="508" y="534" type="curve" smooth="yes"/>
      <point x="508" y="510" type="line" smooth="yes"/>
      <point x="508" y="442"/>
      <point x="547" y="386"/>
      <point x="616" y="386" type="curve" smooth="yes"/>
      <point x="695" y="386"/>
      <point x="735" y="420"/>
      <point x="735" y="486" type="curve" smooth="yes"/>
      <point x="735" y="558"/>
      <point x="683" y="598"/>
      <point x="596" y="598" type="curve" smooth="yes"/>
      <point x="480" y="598"/>
      <point x="414" y="508"/>
      <point x="414" y="400" type="curve" smooth="yes"/>
      <point x="414" y="374" type="line"/>
      <point x="519" y="374" type="line" smooth="yes"/>
      <point x="601" y="374"/>
      <point x="658" y="360"/>
      <point x="658" y="296" type="curve" smooth="yes"/>
      <point x="658" y="210"/>
      <point x="554" y="188"/>
      <point x="395" y="188" type="curve" smooth="yes"/>
      <point x="231" y="188"/>
      <point x="135" y="214"/>
      <point x="135" y="294" type="curve" smooth="yes"/>
      <point x="135" y="362"/>
      <point x="194" y="374"/>
      <point x="289" y="374" type="curve" smooth="yes"/>
      <point x="388" y="374" type="line"/>
      <point x="388" y="405" type="line" smooth="yes"/>
      <point x="388" y="520"/>
      <point x="318" y="598"/>
      <point x="208" y="598" type="curve" smooth="yes"/>
      <point x="107" y="598"/>
      <point x="60" y="555"/>
      <point x="60" y="499" type="curve" smooth="yes"/>
      <point x="60" y="466"/>
      <point x="70" y="442"/>
      <point x="87" y="427" type="curve"/>
      <point x="203" y="452" type="line"/>
      <point x="201" y="459"/>
      <point x="200" y="467"/>
      <point x="200" y="477" type="curve" smooth="yes"/>
      <point x="200" y="498"/>
      <point x="210" y="515"/>
      <point x="238" y="515" type="curve" smooth="yes"/>
      <point x="276" y="515"/>
      <point x="294" y="480"/>
      <point x="302" y="438" type="curve"/>
      <point x="310" y="442" type="line"/>
      <point x="273" y="442" type="line" smooth="yes"/>
      <point x="117" y="442"/>
      <point x="32" y="373"/>
      <point x="32" y="244" type="curve" smooth="yes"/>
      <point x="32" y="86"/>
      <point x="146" y="-10"/>
    </contour>
  </outline>
</glyph>
<glyph name="jnyasinh" format="2">
  <advance width="1145"/>
  <unicode hex="0DA5"/>
  <outline>
    <contour>
      <point x="850" y="520" type="curve"/>
      <point x="908" y="577" type="line"/>
      <point x="876" y="590"/>
      <point x="841" y="598"/>
      <point x="803" y="598" type="curve" smooth="yes"/>
      <point x="647" y="598"/>
      <point x="543" y="489"/>
      <point x="513" y="292" type="curve"/>
      <point x="570" y="278" type="line"/>
      <point x="578" y="281"/>
      <point x="586" y="283"/>
      <point x="596" y="283" type="curve" smooth="yes"/>
      <point x="618" y="283"/>
      <point x="628" y="271"/>
      <point x="628" y="253" type="curve" smooth="yes"/>
      <point x="628" y="206"/>
      <point x="565" y="187"/>
      <point x="484" y="187" type="curve" smooth="yes"/>
      <point x="345" y="187"/>
      <point x="306" y="261"/>
      <point x="306" y="332" type="curve" smooth="yes"/>
      <point x="306" y="416"/>
      <point x="359" y="488"/>
      <point x="485" y="488" type="curve" smooth="yes"/>
      <point x="495" y="488"/>
      <point x="505" y="487"/>
      <point x="512" y="486" type="curve"/>
      <point x="542" y="575" type="line"/>
      <point x="525" y="553" type="line"/>
      <point x="515" y="554"/>
      <point x="504" y="555"/>
      <point x="495" y="555" type="curve" smooth="yes"/>
      <point x="315" y="555"/>
      <point x="204" y="442"/>
      <point x="204" y="281" type="curve" smooth="yes"/>
      <point x="204" y="116"/>
      <point x="290" y="-10"/>
      <point x="476" y="-10" type="curve" smooth="yes"/>
      <point x="661" y="-10"/>
      <point x="713" y="102"/>
      <point x="713" y="206" type="curve" smooth="yes"/>
      <point x="713" y="312"/>
      <point x="660" y="354"/>
      <point x="587" y="354" type="curve" smooth="yes"/>
      <point x="569" y="354"/>
      <point x="555" y="352"/>
      <point x="543" y="349" type="curve"/>
      <point x="589" y="315" type="line"/>
      <point x="632" y="462"/>
      <point x="702" y="525"/>
      <point x="806" y="525" type="curve" smooth="yes"/>
      <point x="821" y="525"/>
      <point x="836" y="523"/>
    </contour>
    <contour>
      <point x="33" y="317" type="curve" smooth="yes"/>
      <point x="33" y="214"/>
      <point x="75" y="111"/>
      <point x="127" y="29" type="curve"/>
      <point x="200" y="70" type="line"/>
      <point x="151" y="148"/>
      <point x="121" y="220"/>
      <point x="121" y="312" type="curve" smooth="yes"/>
      <point x="121" y="468"/>
      <point x="228" y="535"/>
      <point x="351" y="535" type="curve" smooth="yes"/>
      <point x="411" y="535"/>
      <point x="460" y="528"/>
      <point x="511" y="519" type="curve"/>
      <point x="542" y="575" type="line"/>
      <point x="471" y="596"/>
      <point x="419" y="607"/>
      <point x="338" y="607" type="curve" smooth="yes"/>
      <point x="164" y="607"/>
      <point x="33" y="504"/>
    </contour>
    <contour>
      <point x="921" y="-10" type="curve" smooth="yes"/>
      <point x="1008" y="-10"/>
      <point x="1088" y="8"/>
      <point x="1145" y="40" type="curve"/>
      <point x="1116" y="111" type="line"/>
      <point x="1060" y="81"/>
      <point x="1018" y="74"/>
      <point x="958" y="74" type="curve" smooth="yes"/>
      <point x="874" y="74"/>
      <point x="800" y="121"/>
      <point x="800" y="218" type="curve" smooth="yes"/>
      <point x="800" y="318"/>
      <point x="860" y="374"/>
      <point x="1022" y="374" type="curve" smooth="yes"/>
      <point x="1114" y="374" type="line"/>
      <point x="1114" y="396" type="line" smooth="yes"/>
      <point x="1114" y="519"/>
      <point x="1044" y="598"/>
      <point x="935" y="598" type="curve" smooth="yes"/>
      <point x="835" y="598"/>
      <point x="787" y="555"/>
      <point x="787" y="499" type="curve" smooth="yes"/>
      <point x="787" y="479"/>
      <point x="791" y="459"/>
      <point x="799" y="445" type="curve"/>
      <point x="929" y="458" type="line"/>
      <point x="928" y="464"/>
      <point x="927" y="471"/>
      <point x="927" y="478" type="curve" smooth="yes"/>
      <point x="927" y="498"/>
      <point x="940" y="515"/>
      <point x="965" y="515" type="curve" smooth="yes"/>
      <point x="1004" y="515"/>
      <point x="1019" y="481"/>
      <point x="1028" y="442" type="curve"/>
      <point x="989" y="442" type="line" smooth="yes"/>
      <point x="753" y="442"/>
      <point x="633" y="378"/>
      <point x="633" y="214" type="curve" smooth="yes"/>
      <point x="633" y="71"/>
      <point x="712" y="-10"/>
    </contour>
    <contour>
      <point x="1024" y="-286" type="curve" smooth="yes"/>
      <point x="1087" y="-286"/>
      <point x="1139" y="-273"/>
      <point x="1194" y="-241" type="curve"/>
      <point x="1157" y="-176" type="line"/>
      <point x="1125" y="-197"/>
      <point x="1098" y="-204"/>
      <point x="1068" y="-204" type="curve" smooth="yes"/>
      <point x="1012" y="-204"/>
      <point x="976" y="-174"/>
      <point x="976" y="-119" type="curve" smooth="yes"/>
      <point x="976" y="-63"/>
      <point x="1003" y="-30"/>
      <point x="1090" y="26" type="curve"/>
      <point x="976" y="10" type="line"/>
      <point x="898" y="-18"/>
      <point x="841" y="-63"/>
      <point x="841" y="-143" type="curve" smooth="yes"/>
      <point x="841" y="-230"/>
      <point x="909" y="-286"/>
    </contour>
  </outline>
</glyph>
<glyph name="nyjasinh" format="2">
  <advance width="957"/>
  <unicode hex="0DA6"/>
  <outline>
    <contour>
      <point x="559" y="-10" type="curve" smooth="yes"/>
      <point x="799" y="-10"/>
      <point x="925" y="84"/>
      <point x="925" y="244" type="curve" smooth="yes"/>
      <point x="925" y="371"/>
      <point x="839" y="442"/>
      <point x="697" y="442" type="curve" smooth="yes"/>
      <point x="629" y="442" type="line"/>
      <point x="661" y="441" type="line"/>
      <point x="673" y="501"/>
      <point x="710" y="530"/>
      <point x="760" y="530" type="curve" smooth="yes"/>
      <point x="805" y="530"/>
      <point x="817" y="505"/>
      <point x="817" y="481" type="curve" smooth="yes"/>
      <point x="817" y="458"/>
      <point x="806" y="446"/>
      <point x="785" y="446" type="curve" smooth="yes"/>
      <point x="753" y="446"/>
      <point x="742" y="468"/>
      <point x="742" y="506" type="curve" smooth="yes"/>
      <point x="742" y="604"/>
      <point x="802" y="654"/>
      <point x="922" y="683" type="curve"/>
      <point x="884" y="799" type="line"/>
      <point x="756" y="764"/>
      <point x="672" y="660"/>
      <point x="672" y="534" type="curve" smooth="yes"/>
      <point x="672" y="510" type="line" smooth="yes"/>
      <point x="672" y="442"/>
      <point x="711" y="386"/>
      <point x="780" y="386" type="curve" smooth="yes"/>
      <point x="859" y="386"/>
      <point x="899" y="420"/>
      <point x="899" y="486" type="curve" smooth="yes"/>
      <point x="899" y="558"/>
      <point x="847" y="598"/>
      <point x="760" y="598" type="curve" smooth="yes"/>
      <point x="644" y="598"/>
      <point x="578" y="508"/>
      <point x="578" y="400" type="curve" smooth="yes"/>
      <point x="578" y="374" type="line"/>
      <point x="683" y="374" type="line" smooth="yes"/>
      <point x="765" y="374"/>
      <point x="822" y="360"/>
      <point x="822" y="296" type="curve" smooth="yes"/>
      <point x="822" y="210"/>
      <point x="718" y="188"/>
      <point x="559" y="188" type="curve" smooth="yes"/>
      <point x="395" y="188"/>
      <point x="299" y="214"/>
      <point x="299" y="294" type="curve" smooth="yes"/>
      <point x="299" y="362"/>
      <point x="358" y="374"/>
      <point x="453" y="374" type="curve" smooth="yes"/>
      <point x="552" y="374" type="line"/>
      <point x="552" y="405" type="line" smooth="yes"/>
      <point x="552" y="520"/>
      <point x="482" y="598"/>
      <point x="372" y="598" type="curve" smooth="yes"/>
      <point x="277" y="598"/>
      <point x="229" y="554"/>
      <point x="229" y="498" type="curve" smooth="yes"/>
      <point x="229" y="468"/>
      <point x="239" y="444"/>
      <point x="256" y="428" type="curve"/>
      <point x="367" y="452" type="line"/>
      <point x="365" y="459"/>
      <point x="364" y="467"/>
      <point x="364" y="477" type="curve" smooth="yes"/>
      <point x="364" y="498"/>
      <point x="374" y="515"/>
      <point x="402" y="515" type="curve" smooth="yes"/>
      <point x="440" y="515"/>
      <point x="458" y="480"/>
      <point x="466" y="438" type="curve"/>
      <point x="474" y="442" type="line"/>
      <point x="437" y="442" type="line" smooth="yes"/>
      <point x="281" y="442"/>
      <point x="196" y="373"/>
      <point x="196" y="244" type="curve" smooth="yes"/>
      <point x="196" y="86"/>
      <point x="310" y="-10"/>
    </contour>
    <contour>
      <point x="32" y="326" type="curve" smooth="yes"/>
      <point x="32" y="196"/>
      <point x="94" y="101"/>
      <point x="165" y="37" type="curve"/>
      <point x="225" y="94" type="line"/>
      <point x="165" y="154"/>
      <point x="120" y="220"/>
      <point x="120" y="316" type="curve" smooth="yes"/>
      <point x="120" y="452"/>
      <point x="219" y="526"/>
      <point x="310" y="526" type="curve" smooth="yes"/>
      <point x="321" y="526"/>
      <point x="330" y="526"/>
      <point x="339" y="525" type="curve"/>
      <point x="371" y="590" type="line"/>
      <point x="355" y="593"/>
      <point x="339" y="595"/>
      <point x="309" y="595" type="curve" smooth="yes"/>
      <point x="169" y="595"/>
      <point x="32" y="504"/>
    </contour>
  </outline>
</glyph>
<glyph name="ttasinh" format="2">
  <advance width="808"/>
  <unicode hex="0DA7"/>
  <outline>
    <contour>
      <point x="357" y="-10" type="curve" smooth="yes"/>
      <point x="657" y="-10"/>
      <point x="776" y="173"/>
      <point x="776" y="412" type="curve" smooth="yes"/>
      <point x="776" y="698"/>
      <point x="601" y="804"/>
      <point x="387" y="804" type="curve" smooth="yes"/>
      <point x="236" y="804"/>
      <point x="131" y="753"/>
      <point x="31" y="694" type="curve"/>
      <point x="78" y="625" type="line"/>
      <point x="162" y="685"/>
      <point x="262" y="731"/>
      <point x="385" y="731" type="curve" smooth="yes"/>
      <point x="546" y="731"/>
      <point x="672" y="656"/>
      <point x="672" y="458" type="curve" smooth="yes"/>
      <point x="672" y="315"/>
      <point x="594" y="188"/>
      <point x="356" y="188" type="curve" smooth="yes"/>
      <point x="210" y="188"/>
      <point x="135" y="224"/>
      <point x="135" y="315" type="curve" smooth="yes"/>
      <point x="135" y="392"/>
      <point x="196" y="437"/>
      <point x="303" y="437" type="curve" smooth="yes"/>
      <point x="350" y="437"/>
      <point x="385" y="431"/>
      <point x="417" y="425" type="curve"/>
      <point x="431" y="497" type="line"/>
      <point x="399" y="504"/>
      <point x="354" y="510"/>
      <point x="310" y="510" type="curve" smooth="yes"/>
      <point x="139" y="510"/>
      <point x="31" y="421"/>
      <point x="31" y="267" type="curve" smooth="yes"/>
      <point x="31" y="88"/>
      <point x="156" y="-10"/>
    </contour>
  </outline>
</glyph>
<glyph name="tthasinh" format="2">
  <advance width="872"/>
  <unicode hex="0DA8"/>
  <outline>
    <contour>
      <point x="613" y="-10" type="curve" smooth="yes"/>
      <point x="723" y="-10"/>
      <point x="836" y="70"/>
      <point x="836" y="327" type="curve" smooth="yes"/>
      <point x="836" y="658"/>
      <point x="608" y="793"/>
      <point x="328" y="817" type="curve"/>
      <point x="317" y="734" type="line"/>
      <point x="557" y="729"/>
      <point x="732" y="624"/>
      <point x="732" y="367" type="curve" smooth="yes"/>
      <point x="732" y="222"/>
      <point x="665" y="182"/>
      <point x="585" y="182" type="curve" smooth="yes"/>
      <point x="506" y="182"/>
      <point x="470" y="222"/>
      <point x="454" y="268" type="curve"/>
      <point x="381" y="268" type="line"/>
      <point x="358" y="210"/>
      <point x="315" y="182"/>
      <point x="244" y="182" type="curve" smooth="yes"/>
      <point x="173" y="182"/>
      <point x="135" y="219"/>
      <point x="135" y="291" type="curve" smooth="yes"/>
      <point x="135" y="374"/>
      <point x="204" y="437"/>
      <point x="316" y="437" type="curve" smooth="yes"/>
      <point x="357" y="437"/>
      <point x="379" y="434"/>
      <point x="409" y="427" type="curve"/>
      <point x="423" y="499" type="line"/>
      <point x="391" y="506"/>
      <point x="359" y="510"/>
      <point x="327" y="510" type="curve" smooth="yes"/>
      <point x="139" y="510"/>
      <point x="31" y="405"/>
      <point x="31" y="233" type="curve" smooth="yes"/>
      <point x="31" y="103"/>
      <point x="90" y="-10"/>
      <point x="227" y="-10" type="curve" smooth="yes"/>
      <point x="340" y="-10"/>
      <point x="394" y="65"/>
      <point x="417" y="135" type="curve"/>
      <point x="445" y="49"/>
      <point x="500" y="-10"/>
    </contour>
    <contour>
      <point x="506" y="540" type="curve" smooth="yes"/>
      <point x="588" y="540"/>
      <point x="630" y="585"/>
      <point x="662" y="667" type="curve"/>
      <point x="599" y="717" type="line"/>
      <point x="575" y="653"/>
      <point x="560" y="625"/>
      <point x="512" y="625" type="curve" smooth="yes"/>
      <point x="478" y="625"/>
      <point x="457" y="641"/>
      <point x="445" y="676" type="curve" smooth="yes"/>
      <point x="427" y="728"/>
      <point x="396" y="765"/>
      <point x="345" y="781" type="curve"/>
      <point x="323" y="737" type="line"/>
      <point x="339" y="732"/>
      <point x="351" y="720"/>
      <point x="363" y="672" type="curve" smooth="yes"/>
      <point x="386" y="583"/>
      <point x="427" y="540"/>
    </contour>
  </outline>
</glyph>
<glyph name="ddasinh" format="2">
  <advance width="875"/>
  <unicode hex="0DA9"/>
  <outline>
    <contour>
      <point x="607" y="-10" type="curve" smooth="yes"/>
      <point x="723" y="-10"/>
      <point x="839" y="75"/>
      <point x="839" y="345" type="curve" smooth="yes"/>
      <point x="839" y="654"/>
      <point x="665" y="804"/>
      <point x="406" y="804" type="curve" smooth="yes"/>
      <point x="257" y="804"/>
      <point x="150" y="753"/>
      <point x="50" y="694" type="curve"/>
      <point x="92" y="625" type="line"/>
      <point x="177" y="685"/>
      <point x="282" y="731"/>
      <point x="407" y="731" type="curve" smooth="yes"/>
      <point x="619" y="731"/>
      <point x="735" y="607"/>
      <point x="735" y="381" type="curve" smooth="yes"/>
      <point x="735" y="222"/>
      <point x="668" y="182"/>
      <point x="588" y="182" type="curve" smooth="yes"/>
      <point x="509" y="182"/>
      <point x="473" y="222"/>
      <point x="457" y="268" type="curve"/>
      <point x="384" y="268" type="line"/>
      <point x="361" y="210"/>
      <point x="318" y="182"/>
      <point x="252" y="182" type="curve" smooth="yes"/>
      <point x="189" y="182"/>
      <point x="151" y="203"/>
      <point x="151" y="258" type="curve" smooth="yes"/>
      <point x="151" y="319"/>
      <point x="203" y="361"/>
      <point x="282" y="379" type="curve"/>
      <point x="204" y="374" type="line"/>
      <point x="422" y="374" type="line"/>
      <point x="422" y="405" type="line" smooth="yes"/>
      <point x="422" y="520"/>
      <point x="352" y="598"/>
      <point x="242" y="598" type="curve" smooth="yes"/>
      <point x="141" y="598"/>
      <point x="94" y="555"/>
      <point x="94" y="499" type="curve" smooth="yes"/>
      <point x="94" y="485"/>
      <point x="96" y="466"/>
      <point x="103" y="452" type="curve"/>
      <point x="235" y="460" type="line"/>
      <point x="234" y="467"/>
      <point x="234" y="473"/>
      <point x="234" y="477" type="curve" smooth="yes"/>
      <point x="234" y="498"/>
      <point x="243" y="515"/>
      <point x="272" y="515" type="curve" smooth="yes"/>
      <point x="310" y="515"/>
      <point x="327" y="480"/>
      <point x="335" y="442" type="curve"/>
      <point x="21" y="442" type="line"/>
      <point x="21" y="374" type="line"/>
      <point x="65" y="374" type="line" smooth="yes"/>
      <point x="98" y="374"/>
      <point x="151" y="376"/>
      <point x="179" y="380" type="curve"/>
      <point x="211" y="409" type="line"/>
      <point x="114" y="379"/>
      <point x="44" y="303"/>
      <point x="44" y="184" type="curve" smooth="yes"/>
      <point x="44" y="62"/>
      <point x="109" y="-10"/>
      <point x="225" y="-10" type="curve" smooth="yes"/>
      <point x="336" y="-10"/>
      <point x="397" y="65"/>
      <point x="420" y="135" type="curve"/>
      <point x="447" y="48"/>
      <point x="503" y="-10"/>
    </contour>
  </outline>
</glyph>
<glyph name="ddhasinh" format="2">
  <advance width="875"/>
  <unicode hex="0DAA"/>
  <outline>
    <contour>
      <point x="616" y="-10" type="curve" smooth="yes"/>
      <point x="726" y="-10"/>
      <point x="839" y="70"/>
      <point x="839" y="327" type="curve" smooth="yes"/>
      <point x="839" y="658"/>
      <point x="611" y="793"/>
      <point x="331" y="817" type="curve"/>
      <point x="320" y="734" type="line"/>
      <point x="560" y="729"/>
      <point x="735" y="624"/>
      <point x="735" y="367" type="curve" smooth="yes"/>
      <point x="735" y="222"/>
      <point x="668" y="182"/>
      <point x="588" y="182" type="curve" smooth="yes"/>
      <point x="509" y="182"/>
      <point x="473" y="222"/>
      <point x="457" y="268" type="curve"/>
      <point x="384" y="268" type="line"/>
      <point x="361" y="210"/>
      <point x="318" y="182"/>
      <point x="252" y="182" type="curve" smooth="yes"/>
      <point x="189" y="182"/>
      <point x="151" y="203"/>
      <point x="151" y="258" type="curve" smooth="yes"/>
      <point x="151" y="319"/>
      <point x="203" y="361"/>
      <point x="282" y="379" type="curve"/>
      <point x="204" y="374" type="line"/>
      <point x="422" y="374" type="line"/>
      <point x="422" y="405" type="line" smooth="yes"/>
      <point x="422" y="520"/>
      <point x="352" y="598"/>
      <point x="242" y="598" type="curve" smooth="yes"/>
      <point x="141" y="598"/>
      <point x="94" y="555"/>
      <point x="94" y="499" type="curve" smooth="yes"/>
      <point x="94" y="485"/>
      <point x="96" y="466"/>
      <point x="103" y="452" type="curve"/>
      <point x="235" y="460" type="line"/>
      <point x="234" y="467"/>
      <point x="234" y="473"/>
      <point x="234" y="477" type="curve" smooth="yes"/>
      <point x="234" y="498"/>
      <point x="244" y="515"/>
      <point x="272" y="515" type="curve" smooth="yes"/>
      <point x="310" y="515"/>
      <point x="327" y="480"/>
      <point x="335" y="442" type="curve"/>
      <point x="21" y="442" type="line"/>
      <point x="21" y="374" type="line"/>
      <point x="65" y="374" type="line" smooth="yes"/>
      <point x="98" y="374"/>
      <point x="151" y="376"/>
      <point x="179" y="380" type="curve"/>
      <point x="211" y="409" type="line"/>
      <point x="114" y="379"/>
      <point x="44" y="303"/>
      <point x="44" y="184" type="curve" smooth="yes"/>
      <point x="44" y="62"/>
      <point x="109" y="-10"/>
      <point x="225" y="-10" type="curve" smooth="yes"/>
      <point x="336" y="-10"/>
      <point x="397" y="65"/>
      <point x="420" y="135" type="curve"/>
      <point x="448" y="49"/>
      <point x="503" y="-10"/>
    </contour>
    <contour>
      <point x="509" y="540" type="curve" smooth="yes"/>
      <point x="591" y="540"/>
      <point x="633" y="585"/>
      <point x="665" y="667" type="curve"/>
      <point x="602" y="717" type="line"/>
      <point x="578" y="653"/>
      <point x="563" y="625"/>
      <point x="515" y="625" type="curve" smooth="yes"/>
      <point x="481" y="625"/>
      <point x="460" y="641"/>
      <point x="448" y="676" type="curve" smooth="yes"/>
      <point x="430" y="728"/>
      <point x="399" y="765"/>
      <point x="348" y="781" type="curve"/>
      <point x="326" y="737" type="line"/>
      <point x="342" y="732"/>
      <point x="354" y="720"/>
      <point x="366" y="672" type="curve" smooth="yes"/>
      <point x="389" y="583"/>
      <point x="430" y="540"/>
    </contour>
  </outline>
</glyph>
<glyph name="nnasinh" format="2">
  <advance width="1204"/>
  <unicode hex="0DAB"/>
  <outline>
    <contour>
      <point x="60" y="124" type="line"/>
      <point x="78" y="157" type="line"/>
      <point x="322" y="370"/>
      <point x="501" y="526"/>
      <point x="885" y="785" type="curve"/>
      <point x="818" y="870" type="line"/>
      <point x="578" y="683"/>
      <point x="246" y="400"/>
      <point x="-4" y="185" type="curve"/>
    </contour>
    <contour>
      <point x="377" y="215" type="curve" smooth="yes"/>
      <point x="486" y="215"/>
      <point x="545" y="257"/>
      <point x="545" y="342" type="curve" smooth="yes"/>
      <point x="545" y="402"/>
      <point x="506" y="456"/>
      <point x="415" y="456" type="curve" smooth="yes"/>
      <point x="347" y="456"/>
      <point x="295" y="408"/>
      <point x="295" y="343" type="curve" smooth="yes"/>
      <point x="295" y="312"/>
      <point x="309" y="279"/>
      <point x="331" y="262" type="curve"/>
      <point x="327" y="288" type="line"/>
      <point x="200" y="303"/>
      <point x="169" y="355"/>
      <point x="169" y="411" type="curve" smooth="yes"/>
      <point x="169" y="482"/>
      <point x="236" y="525"/>
      <point x="380" y="525" type="curve" smooth="yes"/>
      <point x="556" y="525"/>
      <point x="640" y="449"/>
      <point x="640" y="342" type="curve" smooth="yes"/>
      <point x="640" y="209"/>
      <point x="538" y="158"/>
      <point x="381" y="158" type="curve" smooth="yes"/>
      <point x="271" y="158"/>
      <point x="176" y="191"/>
      <point x="141" y="223" type="curve"/>
      <point x="61" y="188" type="line"/>
      <point x="60" y="124" type="line"/>
      <point x="109" y="133" type="line"/>
      <point x="165" y="66"/>
      <point x="233" y="-10"/>
      <point x="420" y="-10" type="curve" smooth="yes"/>
      <point x="591" y="-10"/>
      <point x="740" y="85"/>
      <point x="740" y="295" type="curve" smooth="yes"/>
      <point x="740" y="474"/>
      <point x="610" y="598"/>
      <point x="378" y="598" type="curve" smooth="yes"/>
      <point x="173" y="598"/>
      <point x="86" y="514"/>
      <point x="86" y="413" type="curve" smooth="yes"/>
      <point x="86" y="278"/>
      <point x="216" y="215"/>
    </contour>
    <contour>
      <point x="368" y="341" type="curve" smooth="yes"/>
      <point x="368" y="367"/>
      <point x="385" y="390"/>
      <point x="415" y="390" type="curve" smooth="yes"/>
      <point x="447" y="390"/>
      <point x="464" y="370"/>
      <point x="464" y="341" type="curve" smooth="yes"/>
      <point x="464" y="307"/>
      <point x="445" y="292"/>
      <point x="414" y="292" type="curve" smooth="yes"/>
      <point x="388" y="292"/>
      <point x="368" y="306"/>
    </contour>
    <contour>
      <point x="655" y="332" type="curve"/>
      <point x="735" y="329" type="line"/>
      <point x="735" y="380"/>
      <point x="746" y="406"/>
      <point x="772" y="406" type="curve" smooth="yes"/>
      <point x="799" y="406"/>
      <point x="813" y="368"/>
      <point x="815" y="304" type="curve"/>
      <point x="894" y="304" type="line"/>
      <point x="894" y="385"/>
      <point x="914" y="431"/>
      <point x="953" y="431" type="curve" smooth="yes"/>
      <point x="999" y="431"/>
      <point x="1013" y="369"/>
      <point x="1013" y="249" type="curve" smooth="yes"/>
      <point x="1013" y="123"/>
      <point x="999" y="63"/>
      <point x="935" y="63" type="curve" smooth="yes"/>
      <point x="884" y="63"/>
      <point x="857" y="96"/>
      <point x="828" y="155" type="curve"/>
      <point x="760" y="122" type="line"/>
      <point x="794" y="44"/>
      <point x="854" y="-10"/>
      <point x="956" y="-10" type="curve" smooth="yes"/>
      <point x="1079" y="-10"/>
      <point x="1170" y="50"/>
      <point x="1170" y="249" type="curve" smooth="yes"/>
      <point x="1170" y="437"/>
      <point x="1073" y="504"/>
      <point x="979" y="504" type="curve" smooth="yes"/>
      <point x="910" y="504"/>
      <point x="872" y="470"/>
      <point x="849" y="437" type="curve"/>
      <point x="827" y="465"/>
      <point x="802" y="484"/>
      <point x="762" y="484" type="curve" smooth="yes"/>
      <point x="691" y="484"/>
      <point x="655" y="419"/>
    </contour>
  </outline>
</glyph>
<glyph name="nnddasinh" format="2">
  <advance width="1039"/>
  <unicode hex="0DAC"/>
  <outline>
    <contour>
      <point x="771" y="-10" type="curve" smooth="yes"/>
      <point x="887" y="-10"/>
      <point x="1003" y="75"/>
      <point x="1003" y="345" type="curve" smooth="yes"/>
      <point x="1003" y="654"/>
      <point x="829" y="804"/>
      <point x="570" y="804" type="curve" smooth="yes"/>
      <point x="421" y="804"/>
      <point x="314" y="753"/>
      <point x="214" y="694" type="curve"/>
      <point x="256" y="625" type="line"/>
      <point x="341" y="685"/>
      <point x="446" y="731"/>
      <point x="571" y="731" type="curve" smooth="yes"/>
      <point x="783" y="731"/>
      <point x="899" y="607"/>
      <point x="899" y="381" type="curve" smooth="yes"/>
      <point x="899" y="222"/>
      <point x="832" y="182"/>
      <point x="752" y="182" type="curve" smooth="yes"/>
      <point x="673" y="182"/>
      <point x="637" y="222"/>
      <point x="621" y="268" type="curve"/>
      <point x="548" y="268" type="line"/>
      <point x="525" y="210"/>
      <point x="482" y="182"/>
      <point x="416" y="182" type="curve" smooth="yes"/>
      <point x="353" y="182"/>
      <point x="315" y="203"/>
      <point x="315" y="258" type="curve" smooth="yes"/>
      <point x="315" y="319"/>
      <point x="367" y="361"/>
      <point x="446" y="379" type="curve"/>
      <point x="368" y="374" type="line"/>
      <point x="586" y="374" type="line"/>
      <point x="586" y="405" type="line" smooth="yes"/>
      <point x="586" y="520"/>
      <point x="516" y="598"/>
      <point x="406" y="598" type="curve" smooth="yes"/>
      <point x="305" y="598"/>
      <point x="263" y="555"/>
      <point x="263" y="499" type="curve" smooth="yes"/>
      <point x="263" y="485"/>
      <point x="265" y="466"/>
      <point x="272" y="452" type="curve"/>
      <point x="400" y="460" type="line"/>
      <point x="399" y="467"/>
      <point x="399" y="473"/>
      <point x="399" y="477" type="curve" smooth="yes"/>
      <point x="399" y="498"/>
      <point x="408" y="515"/>
      <point x="436" y="515" type="curve" smooth="yes"/>
      <point x="474" y="515"/>
      <point x="491" y="480"/>
      <point x="499" y="442" type="curve"/>
      <point x="185" y="442" type="line"/>
      <point x="185" y="374" type="line"/>
      <point x="229" y="374" type="line" smooth="yes"/>
      <point x="262" y="374"/>
      <point x="315" y="376"/>
      <point x="343" y="380" type="curve"/>
      <point x="375" y="409" type="line"/>
      <point x="278" y="379"/>
      <point x="208" y="303"/>
      <point x="208" y="184" type="curve" smooth="yes"/>
      <point x="208" y="62"/>
      <point x="273" y="-10"/>
      <point x="389" y="-10" type="curve" smooth="yes"/>
      <point x="500" y="-10"/>
      <point x="561" y="65"/>
      <point x="584" y="135" type="curve"/>
      <point x="611" y="48"/>
      <point x="667" y="-10"/>
    </contour>
    <contour>
      <point x="32" y="326" type="curve" smooth="yes"/>
      <point x="32" y="205"/>
      <point x="84" y="120"/>
      <point x="144" y="57" type="curve"/>
      <point x="207" y="113" type="line"/>
      <point x="158" y="166"/>
      <point x="120" y="229"/>
      <point x="120" y="316" type="curve" smooth="yes"/>
      <point x="120" y="452"/>
      <point x="219" y="523"/>
      <point x="310" y="523" type="curve" smooth="yes"/>
      <point x="321" y="523"/>
      <point x="330" y="523"/>
      <point x="339" y="522" type="curve"/>
      <point x="371" y="590" type="line"/>
      <point x="355" y="593"/>
      <point x="339" y="595"/>
      <point x="309" y="595" type="curve" smooth="yes"/>
      <point x="169" y="595"/>
      <point x="32" y="504"/>
    </contour>
  </outline>
</glyph>
<glyph name="tasinh" format="2">
  <advance width="987"/>
  <unicode hex="0DAD"/>
  <outline>
    <contour>
      <point x="374" y="-10" type="curve" smooth="yes"/>
      <point x="588" y="-10"/>
      <point x="638" y="115"/>
      <point x="638" y="231" type="curve" smooth="yes"/>
      <point x="638" y="314"/>
      <point x="603" y="442"/>
      <point x="391" y="442" type="curve" smooth="yes"/>
      <point x="321" y="442"/>
      <point x="279" y="431"/>
      <point x="253" y="424" type="curve"/>
      <point x="227" y="367" type="line"/>
      <point x="267" y="372"/>
      <point x="329" y="374"/>
      <point x="362" y="374" type="curve" smooth="yes"/>
      <point x="501" y="374"/>
      <point x="538" y="332"/>
      <point x="538" y="276" type="curve" smooth="yes"/>
      <point x="538" y="211"/>
      <point x="473" y="182"/>
      <point x="361" y="182" type="curve" smooth="yes"/>
      <point x="260" y="182"/>
      <point x="204" y="206"/>
      <point x="204" y="251" type="curve" smooth="yes"/>
      <point x="204" y="253"/>
      <point x="204" y="257"/>
      <point x="205" y="263" type="curve"/>
      <point x="124" y="270" type="line"/>
      <point x="73" y="166" type="line"/>
      <point x="149" y="161" type="line"/>
      <point x="124" y="223" type="line"/>
      <point x="121" y="212"/>
      <point x="119" y="201"/>
      <point x="119" y="191" type="curve" smooth="yes"/>
      <point x="119" y="29"/>
      <point x="229" y="-10"/>
    </contour>
    <contour>
      <point x="685" y="-8" type="curve" smooth="yes"/>
      <point x="877" y="-8"/>
      <point x="955" y="112"/>
      <point x="955" y="273" type="curve" smooth="yes"/>
      <point x="955" y="480"/>
      <point x="833" y="598"/>
      <point x="624" y="598" type="curve" smooth="yes"/>
      <point x="418" y="598"/>
      <point x="242" y="435"/>
      <point x="12" y="217" type="curve"/>
      <point x="73" y="166" type="line"/>
      <point x="149" y="250"/>
      <point x="232" y="327"/>
      <point x="332" y="397" type="curve"/>
      <point x="339" y="402"/>
      <point x="354" y="416"/>
      <point x="361" y="420" type="curve"/>
      <point x="416" y="451"/>
      <point x="481" y="471"/>
      <point x="592" y="471" type="curve" smooth="yes"/>
      <point x="758" y="471"/>
      <point x="832" y="372"/>
      <point x="832" y="244" type="curve" smooth="yes"/>
      <point x="832" y="136"/>
      <point x="794" y="65"/>
      <point x="684" y="65" type="curve" smooth="yes"/>
      <point x="657" y="65"/>
      <point x="628" y="69"/>
      <point x="599" y="79" type="curve"/>
      <point x="576" y="7" type="line"/>
      <point x="604" y="-4"/>
      <point x="648" y="-8"/>
    </contour>
    <contour>
      <point x="172" y="578" type="curve" smooth="yes"/>
      <point x="92" y="578"/>
      <point x="28" y="542"/>
      <point x="28" y="458" type="curve" smooth="yes"/>
      <point x="28" y="423"/>
      <point x="41" y="393"/>
      <point x="55" y="369" type="curve"/>
      <point x="181" y="402" type="line"/>
      <point x="175" y="418"/>
      <point x="170" y="433"/>
      <point x="170" y="457" type="curve" smooth="yes"/>
      <point x="170" y="480"/>
      <point x="182" y="495"/>
      <point x="206" y="495" type="curve" smooth="yes"/>
      <point x="238" y="495"/>
      <point x="255" y="459"/>
      <point x="266" y="419" type="curve"/>
      <point x="344" y="438" type="line"/>
      <point x="327" y="504"/>
      <point x="287" y="578"/>
    </contour>
  </outline>
</glyph>
<glyph name="thasinh" format="2">
  <advance width="808"/>
  <unicode hex="0DAE"/>
  <outline>
    <contour>
      <point x="350" y="-10" type="curve" smooth="yes"/>
      <point x="650" y="-10"/>
      <point x="776" y="165"/>
      <point x="776" y="403" type="curve" smooth="yes"/>
      <point x="776" y="659"/>
      <point x="592" y="790"/>
      <point x="305" y="817" type="curve"/>
      <point x="294" y="734" type="line"/>
      <point x="526" y="726"/>
      <point x="672" y="638"/>
      <point x="672" y="439" type="curve" smooth="yes"/>
      <point x="672" y="313"/>
      <point x="597" y="188"/>
      <point x="348" y="188" type="curve" smooth="yes"/>
      <point x="210" y="188"/>
      <point x="135" y="224"/>
      <point x="135" y="315" type="curve" smooth="yes"/>
      <point x="135" y="392"/>
      <point x="196" y="437"/>
      <point x="303" y="437" type="curve" smooth="yes"/>
      <point x="350" y="437"/>
      <point x="385" y="431"/>
      <point x="417" y="425" type="curve"/>
      <point x="431" y="497" type="line"/>
      <point x="399" y="504"/>
      <point x="354" y="510"/>
      <point x="310" y="510" type="curve" smooth="yes"/>
      <point x="139" y="510"/>
      <point x="31" y="421"/>
      <point x="31" y="267" type="curve" smooth="yes"/>
      <point x="31" y="88"/>
      <point x="156" y="-10"/>
    </contour>
    <contour>
      <point x="483" y="540" type="curve" smooth="yes"/>
      <point x="565" y="540"/>
      <point x="607" y="585"/>
      <point x="639" y="667" type="curve"/>
      <point x="576" y="717" type="line"/>
      <point x="552" y="653"/>
      <point x="537" y="625"/>
      <point x="489" y="625" type="curve" smooth="yes"/>
      <point x="455" y="625"/>
      <point x="434" y="641"/>
      <point x="422" y="676" type="curve" smooth="yes"/>
      <point x="404" y="728"/>
      <point x="373" y="765"/>
      <point x="322" y="781" type="curve"/>
      <point x="300" y="737" type="line"/>
      <point x="316" y="732"/>
      <point x="328" y="720"/>
      <point x="340" y="672" type="curve" smooth="yes"/>
      <point x="363" y="583"/>
      <point x="404" y="540"/>
    </contour>
  </outline>
</glyph>
<glyph name="dasinh" format="2">
  <advance width="575"/>
  <unicode hex="0DAF"/>
  <outline>
    <contour>
      <point x="349" y="-10" type="curve" smooth="yes"/>
      <point x="433" y="-10"/>
      <point x="514" y="8"/>
      <point x="575" y="42" type="curve"/>
      <point x="546" y="113" type="line"/>
      <point x="488" y="82"/>
      <point x="444" y="74"/>
      <point x="383" y="74" type="curve" smooth="yes"/>
      <point x="290" y="74"/>
      <point x="220" y="121"/>
      <point x="220" y="218" type="curve" smooth="yes"/>
      <point x="220" y="318"/>
      <point x="276" y="374"/>
      <point x="438" y="374" type="curve" smooth="yes"/>
      <point x="544" y="374" type="line"/>
      <point x="544" y="396" type="line" smooth="yes"/>
      <point x="544" y="519"/>
      <point x="474" y="598"/>
      <point x="365" y="598" type="curve" smooth="yes"/>
      <point x="265" y="598"/>
      <point x="217" y="555"/>
      <point x="217" y="499" type="curve" smooth="yes"/>
      <point x="217" y="479"/>
      <point x="221" y="459"/>
      <point x="229" y="445" type="curve"/>
      <point x="359" y="458" type="line"/>
      <point x="358" y="464"/>
      <point x="357" y="471"/>
      <point x="357" y="478" type="curve" smooth="yes"/>
      <point x="357" y="498"/>
      <point x="367" y="515"/>
      <point x="395" y="515" type="curve" smooth="yes"/>
      <point x="434" y="515"/>
      <point x="449" y="481"/>
      <point x="458" y="442" type="curve"/>
      <point x="409" y="442" type="line" smooth="yes"/>
      <point x="164" y="442"/>
      <point x="28" y="368"/>
      <point x="28" y="213" type="curve" smooth="yes"/>
      <point x="28" y="75"/>
      <point x="124" y="-10"/>
    </contour>
    <contour>
      <point x="454" y="-286" type="curve" smooth="yes"/>
      <point x="517" y="-286"/>
      <point x="569" y="-273"/>
      <point x="624" y="-241" type="curve"/>
      <point x="587" y="-176" type="line"/>
      <point x="555" y="-197"/>
      <point x="528" y="-204"/>
      <point x="498" y="-204" type="curve" smooth="yes"/>
      <point x="442" y="-204"/>
      <point x="406" y="-174"/>
      <point x="406" y="-119" type="curve" smooth="yes"/>
      <point x="406" y="-63"/>
      <point x="433" y="-30"/>
      <point x="520" y="26" type="curve"/>
      <point x="406" y="10" type="line"/>
      <point x="328" y="-18"/>
      <point x="271" y="-63"/>
      <point x="271" y="-143" type="curve" smooth="yes"/>
      <point x="271" y="-230"/>
      <point x="339" y="-286"/>
    </contour>
  </outline>
</glyph>
<glyph name="dhasinh" format="2">
  <advance width="872"/>
  <unicode hex="0DB0"/>
  <outline>
    <contour>
      <point x="604" y="-10" type="curve" smooth="yes"/>
      <point x="720" y="-10"/>
      <point x="836" y="75"/>
      <point x="836" y="345" type="curve" smooth="yes"/>
      <point x="836" y="653"/>
      <point x="662" y="804"/>
      <point x="403" y="804" type="curve" smooth="yes"/>
      <point x="254" y="804"/>
      <point x="147" y="753"/>
      <point x="47" y="694" type="curve"/>
      <point x="89" y="625" type="line"/>
      <point x="174" y="685"/>
      <point x="279" y="731"/>
      <point x="404" y="731" type="curve" smooth="yes"/>
      <point x="616" y="731"/>
      <point x="732" y="607"/>
      <point x="732" y="381" type="curve" smooth="yes"/>
      <point x="732" y="222"/>
      <point x="665" y="182"/>
      <point x="585" y="182" type="curve" smooth="yes"/>
      <point x="506" y="182"/>
      <point x="470" y="222"/>
      <point x="454" y="268" type="curve"/>
      <point x="381" y="268" type="line"/>
      <point x="358" y="210"/>
      <point x="315" y="182"/>
      <point x="244" y="182" type="curve" smooth="yes"/>
      <point x="173" y="182"/>
      <point x="135" y="219"/>
      <point x="135" y="291" type="curve" smooth="yes"/>
      <point x="135" y="374"/>
      <point x="204" y="437"/>
      <point x="316" y="437" type="curve" smooth="yes"/>
      <point x="357" y="437"/>
      <point x="379" y="434"/>
      <point x="409" y="427" type="curve"/>
      <point x="423" y="499" type="line"/>
      <point x="391" y="506"/>
      <point x="359" y="510"/>
      <point x="327" y="510" type="curve" smooth="yes"/>
      <point x="139" y="510"/>
      <point x="31" y="405"/>
      <point x="31" y="233" type="curve" smooth="yes"/>
      <point x="31" y="103"/>
      <point x="90" y="-10"/>
      <point x="227" y="-10" type="curve" smooth="yes"/>
      <point x="340" y="-10"/>
      <point x="394" y="65"/>
      <point x="417" y="135" type="curve"/>
      <point x="444" y="48"/>
      <point x="500" y="-10"/>
    </contour>
  </outline>
</glyph>
<glyph name="nasinh" format="2">
  <advance width="961"/>
  <unicode hex="0DB1"/>
  <outline>
    <contour>
      <point x="339" y="-10" type="curve" smooth="yes"/>
      <point x="541" y="-10"/>
      <point x="613" y="104"/>
      <point x="613" y="245" type="curve" smooth="yes"/>
      <point x="613" y="383"/>
      <point x="518" y="442"/>
      <point x="403" y="442" type="curve" smooth="yes"/>
      <point x="362" y="442"/>
      <point x="329" y="439"/>
      <point x="311" y="437" type="curve"/>
      <point x="270" y="365" type="line"/>
      <point x="299" y="370"/>
      <point x="333" y="374"/>
      <point x="380" y="374" type="curve" smooth="yes"/>
      <point x="467" y="374"/>
      <point x="512" y="341"/>
      <point x="512" y="286" type="curve" smooth="yes"/>
      <point x="512" y="220"/>
      <point x="449" y="182"/>
      <point x="326" y="182" type="curve" smooth="yes"/>
      <point x="202" y="182"/>
      <point x="116" y="219"/>
      <point x="116" y="298" type="curve" smooth="yes"/>
      <point x="116" y="301"/>
      <point x="116" y="309"/>
      <point x="117" y="314" type="curve"/>
      <point x="37" y="318" type="line"/>
      <point x="35" y="308"/>
      <point x="33" y="287"/>
      <point x="33" y="270" type="curve" smooth="yes"/>
      <point x="33" y="99"/>
      <point x="132" y="-10"/>
    </contour>
    <contour>
      <point x="660" y="-8" type="curve" smooth="yes"/>
      <point x="811" y="-8"/>
      <point x="928" y="74"/>
      <point x="928" y="282" type="curve" smooth="yes"/>
      <point x="928" y="476"/>
      <point x="795" y="598"/>
      <point x="604" y="598" type="curve" smooth="yes"/>
      <point x="455" y="598"/>
      <point x="358" y="511"/>
      <point x="273" y="410" type="curve" smooth="yes"/>
      <point x="193" y="314"/>
      <point x="153" y="304"/>
      <point x="116" y="304" type="curve" smooth="yes"/>
      <point x="97" y="304"/>
      <point x="78" y="307"/>
      <point x="65" y="315" type="curve"/>
      <point x="57" y="257" type="line"/>
      <point x="69" y="246"/>
      <point x="94" y="238"/>
      <point x="113" y="238" type="curve" smooth="yes"/>
      <point x="180" y="238"/>
      <point x="237" y="247"/>
      <point x="318" y="347" type="curve" smooth="yes"/>
      <point x="335" y="367"/>
      <point x="350" y="386"/>
      <point x="367" y="402" type="curve"/>
      <point x="382" y="419" type="line"/>
      <point x="434" y="453"/>
      <point x="491" y="471"/>
      <point x="574" y="471" type="curve" smooth="yes"/>
      <point x="708" y="471"/>
      <point x="806" y="388"/>
      <point x="806" y="233" type="curve" smooth="yes"/>
      <point x="806" y="104"/>
      <point x="735" y="65"/>
      <point x="645" y="65" type="curve" smooth="yes"/>
      <point x="609" y="65"/>
      <point x="584" y="68"/>
      <point x="562" y="75" type="curve"/>
      <point x="544" y="2" type="line"/>
      <point x="575" y="-6"/>
      <point x="610" y="-8"/>
    </contour>
    <contour>
      <point x="204" y="578" type="curve" smooth="yes"/>
      <point x="124" y="578"/>
      <point x="60" y="542"/>
      <point x="60" y="458" type="curve" smooth="yes"/>
      <point x="60" y="423"/>
      <point x="73" y="393"/>
      <point x="87" y="369" type="curve"/>
      <point x="213" y="402" type="line"/>
      <point x="207" y="418"/>
      <point x="202" y="433"/>
      <point x="202" y="457" type="curve" smooth="yes"/>
      <point x="202" y="480"/>
      <point x="214" y="495"/>
      <point x="238" y="495" type="curve" smooth="yes"/>
      <point x="270" y="495"/>
      <point x="287" y="459"/>
      <point x="298" y="419" type="curve"/>
      <point x="376" y="438" type="line"/>
      <point x="359" y="504"/>
      <point x="319" y="578"/>
    </contour>
  </outline>
</glyph>
<glyph name="ndasinh" format="2">
  <advance width="713"/>
  <unicode hex="0DB3"/>
  <outline>
    <contour>
      <point x="489" y="-10" type="curve" smooth="yes"/>
      <point x="576" y="-10"/>
      <point x="656" y="8"/>
      <point x="713" y="40" type="curve"/>
      <point x="684" y="111" type="line"/>
      <point x="628" y="81"/>
      <point x="586" y="74"/>
      <point x="526" y="74" type="curve" smooth="yes"/>
      <point x="440" y="74"/>
      <point x="368" y="121"/>
      <point x="368" y="218" type="curve" smooth="yes"/>
      <point x="368" y="318"/>
      <point x="426" y="374"/>
      <point x="590" y="374" type="curve" smooth="yes"/>
      <point x="682" y="374" type="line"/>
      <point x="682" y="396" type="line" smooth="yes"/>
      <point x="682" y="519"/>
      <point x="612" y="598"/>
      <point x="503" y="598" type="curve" smooth="yes"/>
      <point x="403" y="598"/>
      <point x="355" y="555"/>
      <point x="355" y="499" type="curve" smooth="yes"/>
      <point x="355" y="479"/>
      <point x="359" y="459"/>
      <point x="367" y="445" type="curve"/>
      <point x="497" y="458" type="line"/>
      <point x="496" y="464"/>
      <point x="495" y="471"/>
      <point x="495" y="478" type="curve" smooth="yes"/>
      <point x="495" y="498"/>
      <point x="505" y="515"/>
      <point x="533" y="515" type="curve" smooth="yes"/>
      <point x="572" y="515"/>
      <point x="587" y="481"/>
      <point x="596" y="442" type="curve"/>
      <point x="557" y="442" type="line" smooth="yes"/>
      <point x="321" y="442"/>
      <point x="179" y="374"/>
      <point x="179" y="213" type="curve" smooth="yes"/>
      <point x="179" y="75"/>
      <point x="276" y="-10"/>
    </contour>
    <contour>
      <point x="592" y="-286" type="curve" smooth="yes"/>
      <point x="655" y="-286"/>
      <point x="707" y="-273"/>
      <point x="762" y="-241" type="curve"/>
      <point x="725" y="-176" type="line"/>
      <point x="693" y="-197"/>
      <point x="666" y="-204"/>
      <point x="636" y="-204" type="curve" smooth="yes"/>
      <point x="580" y="-204"/>
      <point x="544" y="-174"/>
      <point x="544" y="-119" type="curve" smooth="yes"/>
      <point x="544" y="-63"/>
      <point x="571" y="-30"/>
      <point x="658" y="26" type="curve"/>
      <point x="544" y="10" type="line"/>
      <point x="466" y="-18"/>
      <point x="409" y="-63"/>
      <point x="409" y="-143" type="curve" smooth="yes"/>
      <point x="409" y="-230"/>
      <point x="477" y="-286"/>
    </contour>
    <contour>
      <point x="32" y="330" type="curve" smooth="yes"/>
      <point x="32" y="227"/>
      <point x="65" y="156"/>
      <point x="115" y="91" type="curve"/>
      <point x="183" y="141" type="line"/>
      <point x="146" y="189"/>
      <point x="120" y="245"/>
      <point x="120" y="323" type="curve" smooth="yes"/>
      <point x="120" y="452"/>
      <point x="212" y="522"/>
      <point x="318" y="522" type="curve" smooth="yes"/>
      <point x="337" y="522"/>
      <point x="359" y="520"/>
      <point x="375" y="516" type="curve"/>
      <point x="426" y="584" type="line"/>
      <point x="395" y="593"/>
      <point x="361" y="595"/>
      <point x="316" y="595" type="curve" smooth="yes"/>
      <point x="163" y="595"/>
      <point x="32" y="504"/>
    </contour>
  </outline>
</glyph>
<glyph name="pasinh" format="2">
  <advance width="793"/>
  <unicode hex="0DB4"/>
  <outline>
    <contour>
      <point x="647" y="435" type="curve"/>
      <point x="724" y="414" type="line"/>
      <point x="730" y="431"/>
      <point x="734" y="452"/>
      <point x="734" y="477" type="curve" smooth="yes"/>
      <point x="734" y="539"/>
      <point x="701" y="598"/>
      <point x="592" y="598" type="curve" smooth="yes"/>
      <point x="484" y="598"/>
      <point x="414" y="515"/>
      <point x="414" y="400" type="curve" smooth="yes"/>
      <point x="414" y="374" type="line"/>
      <point x="519" y="374" type="line" smooth="yes"/>
      <point x="603" y="374"/>
      <point x="658" y="360"/>
      <point x="658" y="296" type="curve" smooth="yes"/>
      <point x="658" y="210"/>
      <point x="554" y="188"/>
      <point x="395" y="188" type="curve" smooth="yes"/>
      <point x="231" y="188"/>
      <point x="135" y="214"/>
      <point x="135" y="294" type="curve" smooth="yes"/>
      <point x="135" y="362"/>
      <point x="194" y="374"/>
      <point x="289" y="374" type="curve" smooth="yes"/>
      <point x="388" y="374" type="line"/>
      <point x="388" y="405" type="line" smooth="yes"/>
      <point x="388" y="520"/>
      <point x="318" y="598"/>
      <point x="208" y="598" type="curve" smooth="yes"/>
      <point x="107" y="598"/>
      <point x="60" y="555"/>
      <point x="60" y="499" type="curve" smooth="yes"/>
      <point x="60" y="466"/>
      <point x="70" y="442"/>
      <point x="87" y="427" type="curve"/>
      <point x="203" y="452" type="line"/>
      <point x="201" y="459"/>
      <point x="200" y="467"/>
      <point x="200" y="477" type="curve" smooth="yes"/>
      <point x="200" y="498"/>
      <point x="210" y="515"/>
      <point x="238" y="515" type="curve" smooth="yes"/>
      <point x="276" y="515"/>
      <point x="294" y="480"/>
      <point x="302" y="438" type="curve"/>
      <point x="309" y="442" type="line"/>
      <point x="273" y="442" type="line" smooth="yes"/>
      <point x="117" y="442"/>
      <point x="32" y="373"/>
      <point x="32" y="244" type="curve" smooth="yes"/>
      <point x="32" y="88"/>
      <point x="146" y="-10"/>
      <point x="395" y="-10" type="curve" smooth="yes"/>
      <point x="636" y="-10"/>
      <point x="761" y="81"/>
      <point x="761" y="244" type="curve" smooth="yes"/>
      <point x="761" y="374"/>
      <point x="674" y="442"/>
      <point x="533" y="442" type="curve" smooth="yes"/>
      <point x="493" y="442" type="line"/>
      <point x="503" y="437" type="line"/>
      <point x="514" y="501"/>
      <point x="553" y="516"/>
      <point x="591" y="516" type="curve" smooth="yes"/>
      <point x="625" y="516"/>
      <point x="651" y="497"/>
      <point x="651" y="461" type="curve" smooth="yes"/>
      <point x="651" y="454"/>
      <point x="650" y="444"/>
    </contour>
  </outline>
</glyph>
<glyph name="phasinh" format="2">
  <advance width="818"/>
  <unicode hex="0DB5"/>
  <outline>
    <contour>
      <point x="357" y="-10" type="curve" smooth="yes"/>
      <point x="662" y="-10"/>
      <point x="786" y="165"/>
      <point x="786" y="403" type="curve" smooth="yes"/>
      <point x="786" y="660"/>
      <point x="602" y="790"/>
      <point x="315" y="817" type="curve"/>
      <point x="304" y="734" type="line"/>
      <point x="536" y="726"/>
      <point x="682" y="638"/>
      <point x="682" y="439" type="curve" smooth="yes"/>
      <point x="682" y="313"/>
      <point x="607" y="188"/>
      <point x="355" y="188" type="curve" smooth="yes"/>
      <point x="213" y="188"/>
      <point x="135" y="226"/>
      <point x="135" y="294" type="curve" smooth="yes"/>
      <point x="135" y="325"/>
      <point x="147" y="345"/>
      <point x="173" y="358" type="curve" smooth="yes"/>
      <point x="198" y="371"/>
      <point x="234" y="374"/>
      <point x="281" y="374" type="curve" smooth="yes"/>
      <point x="464" y="374" type="line"/>
      <point x="464" y="396" type="line" smooth="yes"/>
      <point x="464" y="519"/>
      <point x="394" y="598"/>
      <point x="285" y="598" type="curve" smooth="yes"/>
      <point x="185" y="598"/>
      <point x="137" y="555"/>
      <point x="137" y="499" type="curve" smooth="yes"/>
      <point x="137" y="479"/>
      <point x="141" y="460"/>
      <point x="149" y="444" type="curve"/>
      <point x="279" y="457" type="line"/>
      <point x="278" y="463"/>
      <point x="277" y="471"/>
      <point x="277" y="478" type="curve" smooth="yes"/>
      <point x="277" y="498"/>
      <point x="287" y="515"/>
      <point x="315" y="515" type="curve" smooth="yes"/>
      <point x="354" y="515"/>
      <point x="369" y="481"/>
      <point x="378" y="442" type="curve"/>
      <point x="294" y="442" type="line" smooth="yes"/>
      <point x="219" y="442"/>
      <point x="172" y="435"/>
      <point x="131" y="415" type="curve" smooth="yes"/>
      <point x="71" y="386"/>
      <point x="32" y="335"/>
      <point x="32" y="240" type="curve" smooth="yes"/>
      <point x="32" y="84"/>
      <point x="152" y="-10"/>
    </contour>
    <contour>
      <point x="493" y="540" type="curve" smooth="yes"/>
      <point x="575" y="540"/>
      <point x="617" y="585"/>
      <point x="649" y="667" type="curve"/>
      <point x="586" y="717" type="line"/>
      <point x="562" y="653"/>
      <point x="547" y="625"/>
      <point x="499" y="625" type="curve" smooth="yes"/>
      <point x="465" y="625"/>
      <point x="444" y="641"/>
      <point x="432" y="676" type="curve" smooth="yes"/>
      <point x="414" y="728"/>
      <point x="383" y="765"/>
      <point x="332" y="781" type="curve"/>
      <point x="310" y="737" type="line"/>
      <point x="326" y="732"/>
      <point x="338" y="720"/>
      <point x="350" y="672" type="curve" smooth="yes"/>
      <point x="373" y="583"/>
      <point x="414" y="540"/>
    </contour>
  </outline>
</glyph>
<glyph name="basinh" format="2">
  <advance width="858"/>
  <unicode hex="0DB6"/>
  <outline>
    <contour>
      <point x="559" y="-10" type="curve" smooth="yes"/>
      <point x="687" y="-10"/>
      <point x="825" y="97"/>
      <point x="825" y="362" type="curve" smooth="yes"/>
      <point x="825" y="654"/>
      <point x="646" y="804"/>
      <point x="403" y="804" type="curve" smooth="yes"/>
      <point x="233" y="804"/>
      <point x="133" y="753"/>
      <point x="33" y="694" type="curve"/>
      <point x="75" y="625" type="line"/>
      <point x="160" y="685"/>
      <point x="265" y="731"/>
      <point x="396" y="731" type="curve" smooth="yes"/>
      <point x="608" y="731"/>
      <point x="721" y="592"/>
      <point x="721" y="391" type="curve" smooth="yes"/>
      <point x="721" y="244"/>
      <point x="648" y="149"/>
      <point x="569" y="149" type="curve" smooth="yes"/>
      <point x="547" y="149"/>
      <point x="534" y="156"/>
      <point x="534" y="175" type="curve" smooth="yes"/>
      <point x="534" y="213"/>
      <point x="593" y="251"/>
      <point x="593" y="353" type="curve" smooth="yes"/>
      <point x="593" y="457"/>
      <point x="517" y="563"/>
      <point x="334" y="563" type="curve" smooth="yes"/>
      <point x="176" y="563"/>
      <point x="32" y="456"/>
      <point x="32" y="257" type="curve" smooth="yes"/>
      <point x="32" y="100"/>
      <point x="121" y="-10"/>
      <point x="272" y="-10" type="curve" smooth="yes"/>
      <point x="364" y="-10"/>
      <point x="414" y="45"/>
      <point x="414" y="127" type="curve" smooth="yes"/>
      <point x="414" y="202"/>
      <point x="365" y="255"/>
      <point x="276" y="255" type="curve" smooth="yes"/>
      <point x="185" y="255"/>
      <point x="146" y="195"/>
      <point x="146" y="133" type="curve" smooth="yes"/>
      <point x="146" y="109"/>
      <point x="164" y="66"/>
      <point x="175" y="57" type="curve"/>
      <point x="191" y="64" type="line"/>
      <point x="148" y="110"/>
      <point x="130" y="151"/>
      <point x="130" y="218" type="curve" smooth="yes"/>
      <point x="130" y="327"/>
      <point x="199" y="405"/>
      <point x="326" y="405" type="curve" smooth="yes"/>
      <point x="432" y="405"/>
      <point x="476" y="350"/>
      <point x="476" y="289" type="curve" smooth="yes"/>
      <point x="476" y="207"/>
      <point x="426" y="182"/>
      <point x="426" y="104" type="curve" smooth="yes"/>
      <point x="426" y="32"/>
      <point x="468" y="-10"/>
    </contour>
    <contour>
      <point x="277" y="185" type="curve" smooth="yes"/>
      <point x="316" y="185"/>
      <point x="333" y="159"/>
      <point x="333" y="127" type="curve" smooth="yes"/>
      <point x="333" y="94"/>
      <point x="313" y="72"/>
      <point x="277" y="72" type="curve" smooth="yes"/>
      <point x="241" y="72"/>
      <point x="223" y="95"/>
      <point x="223" y="128" type="curve" smooth="yes"/>
      <point x="223" y="160"/>
      <point x="239" y="185"/>
    </contour>
  </outline>
</glyph>
<glyph name="bhasinh" format="2">
  <advance width="995"/>
  <unicode hex="0DB7"/>
  <outline>
    <contour>
      <point x="335" y="-10" type="curve" smooth="yes"/>
      <point x="548" y="-10"/>
      <point x="612" y="110"/>
      <point x="612" y="210" type="curve" smooth="yes"/>
      <point x="612" y="316"/>
      <point x="546" y="354"/>
      <point x="473" y="354" type="curve" smooth="yes"/>
      <point x="458" y="354"/>
      <point x="441" y="352"/>
      <point x="429" y="349" type="curve"/>
      <point x="471" y="315" type="line"/>
      <point x="511" y="418"/>
      <point x="577" y="462"/>
      <point x="667" y="462" type="curve" smooth="yes"/>
      <point x="758" y="462"/>
      <point x="839" y="403"/>
      <point x="839" y="248" type="curve" smooth="yes"/>
      <point x="839" y="142"/>
      <point x="782" y="65"/>
      <point x="667" y="65" type="curve" smooth="yes"/>
      <point x="629" y="65"/>
      <point x="606" y="68"/>
      <point x="582" y="74" type="curve"/>
      <point x="563" y="2" type="line"/>
      <point x="591" y="-4"/>
      <point x="629" y="-8"/>
      <point x="676" y="-8" type="curve" smooth="yes"/>
      <point x="790" y="-8"/>
      <point x="962" y="45"/>
      <point x="962" y="297" type="curve" smooth="yes"/>
      <point x="962" y="498"/>
      <point x="831" y="598"/>
      <point x="692" y="598" type="curve" smooth="yes"/>
      <point x="533" y="598"/>
      <point x="429" y="489"/>
      <point x="399" y="292" type="curve"/>
      <point x="456" y="278" type="line"/>
      <point x="464" y="281"/>
      <point x="472" y="283"/>
      <point x="482" y="283" type="curve" smooth="yes"/>
      <point x="504" y="283"/>
      <point x="514" y="271"/>
      <point x="514" y="253" type="curve" smooth="yes"/>
      <point x="514" y="210"/>
      <point x="459" y="187"/>
      <point x="331" y="187" type="curve" smooth="yes"/>
      <point x="218" y="187"/>
      <point x="162" y="216"/>
      <point x="162" y="279" type="curve" smooth="yes"/>
      <point x="162" y="327"/>
      <point x="193" y="363"/>
      <point x="274" y="383" type="curve"/>
      <point x="205" y="374" type="line"/>
      <point x="408" y="374" type="line"/>
      <point x="408" y="405" type="line" smooth="yes"/>
      <point x="408" y="520"/>
      <point x="338" y="598"/>
      <point x="228" y="598" type="curve" smooth="yes"/>
      <point x="127" y="598"/>
      <point x="80" y="555"/>
      <point x="80" y="499" type="curve" smooth="yes"/>
      <point x="80" y="485"/>
      <point x="82" y="466"/>
      <point x="89" y="452" type="curve"/>
      <point x="221" y="460" type="line"/>
      <point x="220" y="467"/>
      <point x="220" y="473"/>
      <point x="220" y="477" type="curve" smooth="yes"/>
      <point x="220" y="498"/>
      <point x="230" y="515"/>
      <point x="258" y="515" type="curve" smooth="yes"/>
      <point x="296" y="515"/>
      <point x="313" y="480"/>
      <point x="321" y="442" type="curve"/>
      <point x="21" y="442" type="line"/>
      <point x="21" y="374" type="line"/>
      <point x="46" y="374" type="line" smooth="yes"/>
      <point x="79" y="374"/>
      <point x="132" y="376"/>
      <point x="160" y="380" type="curve"/>
      <point x="193" y="407" type="line"/>
      <point x="113" y="375"/>
      <point x="55" y="315"/>
      <point x="55" y="216" type="curve" smooth="yes"/>
      <point x="55" y="84"/>
      <point x="158" y="-10"/>
    </contour>
  </outline>
</glyph>
<glyph name="masinh" format="2">
  <advance width="848"/>
  <unicode hex="0DB8"/>
  <outline>
    <contour>
      <point x="409" y="-10" type="curve" smooth="yes"/>
      <point x="693" y="-10"/>
      <point x="816" y="176"/>
      <point x="816" y="412" type="curve" smooth="yes"/>
      <point x="816" y="689"/>
      <point x="637" y="804"/>
      <point x="399" y="804" type="curve" smooth="yes"/>
      <point x="239" y="804"/>
      <point x="137" y="755"/>
      <point x="38" y="694" type="curve"/>
      <point x="85" y="625" type="line"/>
      <point x="169" y="685"/>
      <point x="270" y="731"/>
      <point x="403" y="731" type="curve" smooth="yes"/>
      <point x="586" y="731"/>
      <point x="712" y="647"/>
      <point x="712" y="459" type="curve" smooth="yes"/>
      <point x="712" y="307"/>
      <point x="630" y="170"/>
      <point x="405" y="170" type="curve" smooth="yes"/>
      <point x="245" y="170"/>
      <point x="133" y="231"/>
      <point x="133" y="380" type="curve" smooth="yes"/>
      <point x="133" y="452"/>
      <point x="162" y="495"/>
      <point x="192" y="495" type="curve" smooth="yes"/>
      <point x="211" y="495"/>
      <point x="213" y="483"/>
      <point x="213" y="468" type="curve" smooth="yes"/>
      <point x="213" y="435"/>
      <point x="205" y="426"/>
      <point x="205" y="387" type="curve" smooth="yes"/>
      <point x="205" y="290"/>
      <point x="269" y="224"/>
      <point x="415" y="224" type="curve" smooth="yes"/>
      <point x="537" y="224"/>
      <point x="626" y="286"/>
      <point x="626" y="412" type="curve" smooth="yes"/>
      <point x="626" y="506"/>
      <point x="559" y="581"/>
      <point x="445" y="581" type="curve" smooth="yes"/>
      <point x="343" y="581"/>
      <point x="302" y="520"/>
      <point x="302" y="461" type="curve" smooth="yes"/>
      <point x="302" y="392"/>
      <point x="344" y="346"/>
      <point x="429" y="346" type="curve" smooth="yes"/>
      <point x="501" y="346"/>
      <point x="538" y="390"/>
      <point x="538" y="452" type="curve" smooth="yes"/>
      <point x="538" y="477"/>
      <point x="524" y="502"/>
      <point x="500" y="519" type="curve"/>
      <point x="507" y="502" type="line"/>
      <point x="531" y="484"/>
      <point x="548" y="454"/>
      <point x="548" y="413" type="curve" smooth="yes"/>
      <point x="548" y="346"/>
      <point x="502" y="303"/>
      <point x="412" y="303" type="curve" smooth="yes"/>
      <point x="329" y="303"/>
      <point x="285" y="337"/>
      <point x="285" y="401" type="curve" smooth="yes"/>
      <point x="285" y="435"/>
      <point x="294" y="457"/>
      <point x="294" y="484" type="curve" smooth="yes"/>
      <point x="294" y="533"/>
      <point x="271" y="567"/>
      <point x="203" y="567" type="curve" smooth="yes"/>
      <point x="112" y="567"/>
      <point x="32" y="486"/>
      <point x="32" y="332" type="curve" smooth="yes"/>
      <point x="32" y="111"/>
      <point x="172" y="-10"/>
    </contour>
    <contour>
      <point x="478" y="463" type="curve" smooth="yes"/>
      <point x="478" y="436"/>
      <point x="467" y="414"/>
      <point x="431" y="414" type="curve" smooth="yes"/>
      <point x="395" y="414"/>
      <point x="382" y="437"/>
      <point x="382" y="464" type="curve" smooth="yes"/>
      <point x="382" y="489"/>
      <point x="398" y="511"/>
      <point x="431" y="511" type="curve" smooth="yes"/>
      <point x="463" y="511"/>
      <point x="478" y="490"/>
    </contour>
  </outline>
</glyph>
<glyph name="mbasinh" format="2">
  <advance width="895"/>
  <unicode hex="0DB9"/>
  <outline>
    <contour>
      <point x="298" y="-10" type="curve" smooth="yes"/>
      <point x="339" y="-10"/>
      <point x="359" y="-6"/>
      <point x="387" y="1" type="curve"/>
      <point x="332" y="182" type="line"/>
      <point x="318" y="178"/>
      <point x="298" y="177"/>
      <point x="279" y="177" type="curve" smooth="yes"/>
      <point x="183" y="177"/>
      <point x="136" y="213"/>
      <point x="136" y="323" type="curve" smooth="yes"/>
      <point x="136" y="419"/>
      <point x="183" y="495"/>
      <point x="221" y="495" type="curve" smooth="yes"/>
      <point x="240" y="495"/>
      <point x="242" y="483"/>
      <point x="242" y="468" type="curve" smooth="yes"/>
      <point x="242" y="435"/>
      <point x="234" y="426"/>
      <point x="234" y="387" type="curve" smooth="yes"/>
      <point x="234" y="290"/>
      <point x="298" y="232"/>
      <point x="444" y="232" type="curve" smooth="yes"/>
      <point x="566" y="232"/>
      <point x="655" y="286"/>
      <point x="655" y="412" type="curve" smooth="yes"/>
      <point x="655" y="506"/>
      <point x="588" y="581"/>
      <point x="474" y="581" type="curve" smooth="yes"/>
      <point x="372" y="581"/>
      <point x="331" y="520"/>
      <point x="331" y="461" type="curve" smooth="yes"/>
      <point x="331" y="392"/>
      <point x="373" y="346"/>
      <point x="458" y="346" type="curve" smooth="yes"/>
      <point x="530" y="346"/>
      <point x="567" y="390"/>
      <point x="567" y="452" type="curve" smooth="yes"/>
      <point x="567" y="477"/>
      <point x="553" y="502"/>
      <point x="529" y="519" type="curve"/>
      <point x="536" y="502" type="line"/>
      <point x="560" y="484"/>
      <point x="577" y="454"/>
      <point x="577" y="413" type="curve" smooth="yes"/>
      <point x="577" y="346"/>
      <point x="531" y="303"/>
      <point x="441" y="303" type="curve" smooth="yes"/>
      <point x="358" y="303"/>
      <point x="314" y="337"/>
      <point x="314" y="401" type="curve" smooth="yes"/>
      <point x="314" y="435"/>
      <point x="323" y="457"/>
      <point x="323" y="484" type="curve" smooth="yes"/>
      <point x="323" y="533"/>
      <point x="300" y="567"/>
      <point x="233" y="567" type="curve" smooth="yes"/>
      <point x="124" y="567"/>
      <point x="35" y="456"/>
      <point x="35" y="277" type="curve" smooth="yes"/>
      <point x="35" y="91"/>
      <point x="124" y="-10"/>
    </contour>
    <contour>
      <point x="560" y="-10" type="curve" smooth="yes"/>
      <point x="735" y="-10"/>
      <point x="863" y="89"/>
      <point x="863" y="354" type="curve" smooth="yes"/>
      <point x="863" y="652"/>
      <point x="689" y="804"/>
      <point x="412" y="804" type="curve" smooth="yes"/>
      <point x="247" y="804"/>
      <point x="142" y="754"/>
      <point x="42" y="694" type="curve"/>
      <point x="84" y="625" type="line"/>
      <point x="170" y="684"/>
      <point x="272" y="731"/>
      <point x="415" y="731" type="curve" smooth="yes"/>
      <point x="643" y="731"/>
      <point x="759" y="601"/>
      <point x="759" y="394" type="curve" smooth="yes"/>
      <point x="759" y="227"/>
      <point x="688" y="177"/>
      <point x="568" y="177" type="curve" smooth="yes"/>
      <point x="555" y="177"/>
      <point x="540" y="180"/>
      <point x="522" y="184" type="curve"/>
      <point x="461" y="0" type="line"/>
      <point x="488" y="-6"/>
      <point x="520" y="-10"/>
    </contour>
    <contour>
      <point x="507" y="463" type="curve" smooth="yes"/>
      <point x="507" y="436"/>
      <point x="496" y="414"/>
      <point x="460" y="414" type="curve" smooth="yes"/>
      <point x="424" y="414"/>
      <point x="411" y="437"/>
      <point x="411" y="464" type="curve" smooth="yes"/>
      <point x="411" y="489"/>
      <point x="427" y="511"/>
      <point x="460" y="511" type="curve" smooth="yes"/>
      <point x="492" y="511"/>
      <point x="507" y="490"/>
    </contour>
    <contour>
      <point x="423" y="210" type="curve" smooth="yes"/>
      <point x="481" y="210"/>
      <point x="501" y="189"/>
      <point x="501" y="168" type="curve" smooth="yes"/>
      <point x="501" y="149"/>
      <point x="490" y="140"/>
      <point x="473" y="134" type="curve"/>
      <point x="461" y="0" type="line"/>
      <point x="499" y="72" type="line"/>
      <point x="547" y="83"/>
      <point x="583" y="112"/>
      <point x="583" y="170" type="curve" smooth="yes"/>
      <point x="583" y="225"/>
      <point x="540" y="277"/>
      <point x="424" y="277" type="curve" smooth="yes"/>
      <point x="307" y="277"/>
      <point x="266" y="230"/>
      <point x="266" y="171" type="curve" smooth="yes"/>
      <point x="266" y="115"/>
      <point x="296" y="87"/>
      <point x="353" y="71" type="curve"/>
      <point x="387" y="1" type="line"/>
      <point x="375" y="134" type="line"/>
      <point x="360" y="142"/>
      <point x="350" y="152"/>
      <point x="350" y="169" type="curve" smooth="yes"/>
      <point x="350" y="191"/>
      <point x="371" y="210"/>
    </contour>
  </outline>
</glyph>
<glyph name="yasinh" format="2">
  <advance width="813"/>
  <unicode hex="0DBA"/>
  <outline>
    <contour>
      <point x="590" y="-10" type="curve" smooth="yes"/>
      <point x="714" y="-10"/>
      <point x="780" y="74"/>
      <point x="780" y="205" type="curve" smooth="yes"/>
      <point x="780" y="366"/>
      <point x="665" y="442"/>
      <point x="494" y="442" type="curve"/>
      <point x="517" y="437" type="line"/>
      <point x="528" y="501"/>
      <point x="567" y="516"/>
      <point x="609" y="516" type="curve" smooth="yes"/>
      <point x="644" y="516"/>
      <point x="670" y="497"/>
      <point x="670" y="461" type="curve" smooth="yes"/>
      <point x="670" y="448"/>
      <point x="667" y="437"/>
      <point x="664" y="428" type="curve"/>
      <point x="740" y="405" type="line"/>
      <point x="748" y="428"/>
      <point x="753" y="449"/>
      <point x="753" y="477" type="curve" smooth="yes"/>
      <point x="753" y="539"/>
      <point x="720" y="598"/>
      <point x="610" y="598" type="curve" smooth="yes"/>
      <point x="498" y="598"/>
      <point x="428" y="515"/>
      <point x="428" y="400" type="curve" smooth="yes"/>
      <point x="428" y="374" type="line"/>
      <point x="477" y="374" type="line" smooth="yes"/>
      <point x="625" y="374"/>
      <point x="677" y="329"/>
      <point x="677" y="262" type="curve" smooth="yes"/>
      <point x="677" y="213"/>
      <point x="648" y="182"/>
      <point x="574" y="182" type="curve" smooth="yes"/>
      <point x="502" y="182"/>
      <point x="461" y="211"/>
      <point x="445" y="268" type="curve"/>
      <point x="372" y="268" type="line"/>
      <point x="349" y="210"/>
      <point x="303" y="182"/>
      <point x="237" y="182" type="curve" smooth="yes"/>
      <point x="173" y="182"/>
      <point x="134" y="207"/>
      <point x="134" y="267" type="curve" smooth="yes"/>
      <point x="134" y="329"/>
      <point x="185" y="375"/>
      <point x="279" y="375" type="curve" smooth="yes"/>
      <point x="307" y="375"/>
      <point x="329" y="374"/>
      <point x="339" y="372" type="curve"/>
      <point x="346" y="445" type="line"/>
      <point x="333" y="447"/>
      <point x="307" y="448"/>
      <point x="289" y="448" type="curve" smooth="yes"/>
      <point x="126" y="448"/>
      <point x="31" y="352"/>
      <point x="31" y="209" type="curve" smooth="yes"/>
      <point x="31" y="67"/>
      <point x="103" y="-10"/>
      <point x="218" y="-10" type="curve" smooth="yes"/>
      <point x="324" y="-10"/>
      <point x="379" y="58"/>
      <point x="405" y="135" type="curve"/>
      <point x="431" y="55"/>
      <point x="480" y="-10"/>
    </contour>
  </outline>
</glyph>
<glyph name="rasinh" format="2">
  <advance width="719"/>
  <unicode hex="0DBB"/>
  <outline>
    <contour>
      <point x="359" y="-10" type="curve" smooth="yes"/>
      <point x="562" y="-10"/>
      <point x="686" y="89"/>
      <point x="686" y="297" type="curve" smooth="yes"/>
      <point x="686" y="460"/>
      <point x="561" y="590"/>
      <point x="359" y="590" type="curve" smooth="yes"/>
      <point x="169" y="590"/>
      <point x="33" y="468"/>
      <point x="33" y="294" type="curve" smooth="yes"/>
      <point x="33" y="91"/>
      <point x="152" y="-10"/>
    </contour>
    <contour>
      <point x="360" y="188" type="curve" smooth="yes"/>
      <point x="229" y="188"/>
      <point x="140" y="232"/>
      <point x="140" y="346" type="curve" smooth="yes"/>
      <point x="140" y="457"/>
      <point x="231" y="518"/>
      <point x="359" y="518" type="curve" smooth="yes"/>
      <point x="475" y="518"/>
      <point x="579" y="461"/>
      <point x="579" y="347" type="curve" smooth="yes"/>
      <point x="579" y="235"/>
      <point x="492" y="188"/>
    </contour>
    <contour>
      <point x="228" y="539" type="curve"/>
      <point x="322" y="532" type="line"/>
      <point x="446" y="594"/>
      <point x="611" y="707"/>
      <point x="699" y="782" type="curve"/>
      <point x="622" y="870" type="line"/>
      <point x="529" y="782"/>
      <point x="379" y="645"/>
    </contour>
  </outline>
</glyph>
<glyph name="lasinh" format="2">
  <advance width="889"/>
  <unicode hex="0DBD"/>
  <outline>
    <contour>
      <point x="480" y="-275" type="curve" smooth="yes"/>
      <point x="761" y="-275"/>
      <point x="874" y="-126"/>
      <point x="874" y="61" type="curve" smooth="yes"/>
      <point x="874" y="80"/>
      <point x="874" y="103"/>
      <point x="872" y="121" type="curve"/>
      <point x="792" y="115" type="line"/>
      <point x="793" y="105"/>
      <point x="793" y="92"/>
      <point x="793" y="81" type="curve" smooth="yes"/>
      <point x="793" y="-70"/>
      <point x="703" y="-151"/>
      <point x="525" y="-151" type="curve" smooth="yes"/>
      <point x="332" y="-151"/>
      <point x="201" y="-47"/>
      <point x="201" y="193" type="curve" smooth="yes"/>
      <point x="201" y="399"/>
      <point x="324" y="541"/>
      <point x="545" y="541" type="curve" smooth="yes"/>
      <point x="700" y="541"/>
      <point x="772" y="477"/>
      <point x="772" y="379" type="curve" smooth="yes"/>
      <point x="772" y="293"/>
      <point x="718" y="260"/>
      <point x="655" y="260" type="curve" smooth="yes"/>
      <point x="599" y="260"/>
      <point x="571" y="278"/>
      <point x="571" y="317" type="curve" smooth="yes"/>
      <point x="571" y="346"/>
      <point x="590" y="366"/>
      <point x="619" y="379" type="curve"/>
      <point x="564" y="364" type="line"/>
      <point x="719" y="364" type="line"/>
      <point x="719" y="442" type="line"/>
      <point x="371" y="442" type="line"/>
      <point x="371" y="366" type="line"/>
      <point x="435" y="366" type="line" smooth="yes"/>
      <point x="479" y="366"/>
      <point x="512" y="368"/>
      <point x="542" y="374" type="curve"/>
      <point x="558" y="404" type="line"/>
      <point x="509" y="388"/>
      <point x="476" y="346"/>
      <point x="476" y="293" type="curve" smooth="yes"/>
      <point x="476" y="220"/>
      <point x="518" y="154"/>
      <point x="644" y="154" type="curve" smooth="yes"/>
      <point x="797" y="154"/>
      <point x="856" y="254"/>
      <point x="856" y="368" type="curve" smooth="yes"/>
      <point x="856" y="501"/>
      <point x="766" y="614"/>
      <point x="533" y="614" type="curve" smooth="yes"/>
      <point x="217" y="614"/>
      <point x="28" y="419"/>
      <point x="28" y="159" type="curve" smooth="yes"/>
      <point x="28" y="-136"/>
      <point x="211" y="-275"/>
    </contour>
  </outline>
</glyph>
<glyph name="vasinh" format="2">
  <advance width="818"/>
  <unicode hex="0DC0"/>
  <outline>
    <contour>
      <point x="357" y="-10" type="curve" smooth="yes"/>
      <point x="667" y="-10"/>
      <point x="786" y="173"/>
      <point x="786" y="412" type="curve" smooth="yes"/>
      <point x="786" y="698"/>
      <point x="607" y="804"/>
      <point x="391" y="804" type="curve" smooth="yes"/>
      <point x="238" y="804"/>
      <point x="132" y="753"/>
      <point x="32" y="694" type="curve"/>
      <point x="79" y="625" type="line"/>
      <point x="163" y="685"/>
      <point x="264" y="731"/>
      <point x="390" y="731" type="curve" smooth="yes"/>
      <point x="556" y="731"/>
      <point x="682" y="656"/>
      <point x="682" y="458" type="curve" smooth="yes"/>
      <point x="682" y="313"/>
      <point x="608" y="188"/>
      <point x="352" y="188" type="curve" smooth="yes"/>
      <point x="213" y="188"/>
      <point x="135" y="226"/>
      <point x="135" y="294" type="curve" smooth="yes"/>
      <point x="135" y="325"/>
      <point x="147" y="345"/>
      <point x="173" y="358" type="curve" smooth="yes"/>
      <point x="198" y="371"/>
      <point x="234" y="374"/>
      <point x="281" y="374" type="curve" smooth="yes"/>
      <point x="476" y="374" type="line"/>
      <point x="476" y="396" type="line" smooth="yes"/>
      <point x="476" y="519"/>
      <point x="406" y="598"/>
      <point x="297" y="598" type="curve" smooth="yes"/>
      <point x="197" y="598"/>
      <point x="149" y="555"/>
      <point x="149" y="499" type="curve" smooth="yes"/>
      <point x="149" y="479"/>
      <point x="153" y="460"/>
      <point x="160" y="446" type="curve"/>
      <point x="291" y="458" type="line"/>
      <point x="290" y="464"/>
      <point x="289" y="471"/>
      <point x="289" y="478" type="curve" smooth="yes"/>
      <point x="289" y="498"/>
      <point x="299" y="515"/>
      <point x="327" y="515" type="curve" smooth="yes"/>
      <point x="366" y="515"/>
      <point x="381" y="481"/>
      <point x="390" y="442" type="curve"/>
      <point x="294" y="442" type="line" smooth="yes"/>
      <point x="219" y="442"/>
      <point x="172" y="435"/>
      <point x="131" y="415" type="curve" smooth="yes"/>
      <point x="71" y="386"/>
      <point x="32" y="335"/>
      <point x="32" y="240" type="curve" smooth="yes"/>
      <point x="32" y="84"/>
      <point x="152" y="-10"/>
    </contour>
  </outline>
</glyph>
<glyph name="shasinh" format="2">
  <advance width="940"/>
  <unicode hex="0DC1"/>
  <outline>
    <contour>
      <point x="601" y="-8" type="curve" smooth="yes"/>
      <point x="765" y="-8"/>
      <point x="907" y="73"/>
      <point x="907" y="292" type="curve" smooth="yes"/>
      <point x="907" y="492"/>
      <point x="776" y="598"/>
      <point x="633" y="598" type="curve" smooth="yes"/>
      <point x="478" y="598"/>
      <point x="373" y="491"/>
      <point x="344" y="292" type="curve"/>
      <point x="401" y="278" type="line"/>
      <point x="409" y="281"/>
      <point x="417" y="283"/>
      <point x="427" y="283" type="curve" smooth="yes"/>
      <point x="449" y="283"/>
      <point x="459" y="271"/>
      <point x="459" y="253" type="curve" smooth="yes"/>
      <point x="459" y="206"/>
      <point x="396" y="187"/>
      <point x="315" y="187" type="curve" smooth="yes"/>
      <point x="178" y="187"/>
      <point x="137" y="261"/>
      <point x="137" y="341" type="curve" smooth="yes"/>
      <point x="137" y="436"/>
      <point x="202" y="525"/>
      <point x="363" y="525" type="curve" smooth="yes"/>
      <point x="385" y="525"/>
      <point x="406" y="523"/>
      <point x="419" y="521" type="curve"/>
      <point x="424" y="594" type="line"/>
      <point x="409" y="596"/>
      <point x="384" y="598"/>
      <point x="361" y="598" type="curve" smooth="yes"/>
      <point x="179" y="598"/>
      <point x="33" y="495"/>
      <point x="33" y="288" type="curve" smooth="yes"/>
      <point x="33" y="107"/>
      <point x="125" y="-10"/>
      <point x="307" y="-10" type="curve" smooth="yes"/>
      <point x="496" y="-10"/>
      <point x="557" y="103"/>
      <point x="557" y="210" type="curve" smooth="yes"/>
      <point x="557" y="314"/>
      <point x="491" y="354"/>
      <point x="418" y="354" type="curve" smooth="yes"/>
      <point x="400" y="354"/>
      <point x="386" y="352"/>
      <point x="374" y="349" type="curve"/>
      <point x="416" y="315" type="line"/>
      <point x="456" y="418"/>
      <point x="522" y="462"/>
      <point x="612" y="462" type="curve" smooth="yes"/>
      <point x="718" y="462"/>
      <point x="791" y="403"/>
      <point x="791" y="253" type="curve" smooth="yes"/>
      <point x="791" y="145"/>
      <point x="736" y="69"/>
      <point x="626" y="69" type="curve" smooth="yes"/>
      <point x="603" y="69"/>
      <point x="580" y="70"/>
      <point x="567" y="72" type="curve"/>
      <point x="562" y="-6" type="line"/>
      <point x="571" y="-7"/>
      <point x="592" y="-8"/>
    </contour>
    <contour>
      <point x="698" y="322" type="curve" smooth="yes"/>
      <point x="624" y="322"/>
      <point x="580" y="279"/>
      <point x="580" y="214" type="curve" smooth="yes"/>
      <point x="580" y="157"/>
      <point x="601" y="130"/>
      <point x="601" y="96" type="curve" smooth="yes"/>
      <point x="601" y="73"/>
      <point x="592" y="60"/>
      <point x="572" y="45" type="curve"/>
      <point x="650" y="37" type="line"/>
      <point x="664" y="52"/>
      <point x="676" y="76"/>
      <point x="676" y="107" type="curve" smooth="yes"/>
      <point x="676" y="140"/>
      <point x="661" y="168"/>
      <point x="661" y="201" type="curve" smooth="yes"/>
      <point x="661" y="237"/>
      <point x="686" y="252"/>
      <point x="720" y="252" type="curve" smooth="yes"/>
      <point x="762" y="252"/>
      <point x="791" y="228"/>
      <point x="813" y="200" type="curve"/>
      <point x="843" y="264" type="line"/>
      <point x="799" y="298"/>
      <point x="760" y="322"/>
    </contour>
  </outline>
</glyph>
<glyph name="ssasinh" format="2">
  <advance width="793"/>
  <unicode hex="0DC2"/>
  <outline>
    <contour>
      <point x="395" y="-10" type="curve" smooth="yes"/>
      <point x="636" y="-10"/>
      <point x="761" y="81"/>
      <point x="761" y="244" type="curve" smooth="yes"/>
      <point x="761" y="374"/>
      <point x="674" y="442"/>
      <point x="533" y="442" type="curve" smooth="yes"/>
      <point x="493" y="442" type="line"/>
      <point x="503" y="437" type="line"/>
      <point x="514" y="501"/>
      <point x="553" y="516"/>
      <point x="591" y="516" type="curve" smooth="yes"/>
      <point x="625" y="516"/>
      <point x="654" y="497"/>
      <point x="654" y="458" type="curve" smooth="yes"/>
      <point x="654" y="368"/>
      <point x="578" y="351"/>
      <point x="478" y="351" type="curve" smooth="yes"/>
      <point x="348" y="351" type="line" smooth="yes"/>
      <point x="261" y="351"/>
      <point x="214" y="328"/>
      <point x="214" y="269" type="curve" smooth="yes"/>
      <point x="214" y="194"/>
      <point x="281" y="169"/>
      <point x="388" y="169" type="curve" smooth="yes"/>
      <point x="531" y="169"/>
      <point x="575" y="199"/>
      <point x="575" y="254" type="curve" smooth="yes"/>
      <point x="575" y="290"/>
      <point x="550" y="314"/>
      <point x="524" y="324" type="curve"/>
      <point x="460" y="293" type="line"/>
      <point x="484" y="288"/>
      <point x="495" y="281"/>
      <point x="495" y="268" type="curve" smooth="yes"/>
      <point x="495" y="244"/>
      <point x="487" y="236"/>
      <point x="391" y="236" type="curve" smooth="yes"/>
      <point x="310" y="236"/>
      <point x="294" y="244"/>
      <point x="294" y="265" type="curve" smooth="yes"/>
      <point x="294" y="279"/>
      <point x="309" y="284"/>
      <point x="332" y="284" type="curve" smooth="yes"/>
      <point x="469" y="284" type="line" smooth="yes"/>
      <point x="583" y="284"/>
      <point x="744" y="322"/>
      <point x="744" y="471" type="curve" smooth="yes"/>
      <point x="744" y="537"/>
      <point x="702" y="598"/>
      <point x="602" y="598" type="curve" smooth="yes"/>
      <point x="483" y="598"/>
      <point x="414" y="515"/>
      <point x="414" y="400" type="curve" smooth="yes"/>
      <point x="414" y="374" type="line"/>
      <point x="519" y="374" type="line" smooth="yes"/>
      <point x="603" y="374"/>
      <point x="660" y="361"/>
      <point x="660" y="289" type="curve" smooth="yes"/>
      <point x="660" y="186"/>
      <point x="554" y="144"/>
      <point x="395" y="144" type="curve" smooth="yes"/>
      <point x="231" y="144"/>
      <point x="133" y="197"/>
      <point x="133" y="287" type="curve" smooth="yes"/>
      <point x="133" y="362"/>
      <point x="194" y="374"/>
      <point x="289" y="374" type="curve" smooth="yes"/>
      <point x="388" y="374" type="line"/>
      <point x="388" y="405" type="line" smooth="yes"/>
      <point x="388" y="520"/>
      <point x="318" y="598"/>
      <point x="208" y="598" type="curve" smooth="yes"/>
      <point x="107" y="598"/>
      <point x="60" y="555"/>
      <point x="60" y="499" type="curve" smooth="yes"/>
      <point x="60" y="466"/>
      <point x="70" y="442"/>
      <point x="87" y="427" type="curve"/>
      <point x="203" y="452" type="line"/>
      <point x="201" y="459"/>
      <point x="200" y="467"/>
      <point x="200" y="477" type="curve" smooth="yes"/>
      <point x="200" y="498"/>
      <point x="210" y="515"/>
      <point x="238" y="515" type="curve" smooth="yes"/>
      <point x="276" y="515"/>
      <point x="294" y="480"/>
      <point x="302" y="438" type="curve"/>
      <point x="309" y="442" type="line"/>
      <point x="273" y="442" type="line" smooth="yes"/>
      <point x="117" y="442"/>
      <point x="32" y="373"/>
      <point x="32" y="244" type="curve" smooth="yes"/>
      <point x="32" y="88"/>
      <point x="146" y="-10"/>
    </contour>
  </outline>
</glyph>
<glyph name="sasinh" format="2">
  <advance width="824"/>
  <unicode hex="0DC3"/>
  <outline>
    <contour>
      <point x="602" y="-10" type="curve" smooth="yes"/>
      <point x="725" y="-10"/>
      <point x="792" y="74"/>
      <point x="792" y="205" type="curve" smooth="yes"/>
      <point x="792" y="366"/>
      <point x="677" y="442"/>
      <point x="506" y="442" type="curve"/>
      <point x="527" y="437" type="line"/>
      <point x="538" y="501"/>
      <point x="577" y="516"/>
      <point x="615" y="516" type="curve" smooth="yes"/>
      <point x="649" y="516"/>
      <point x="675" y="497"/>
      <point x="675" y="461" type="curve" smooth="yes"/>
      <point x="675" y="448"/>
      <point x="672" y="437"/>
      <point x="669" y="428" type="curve"/>
      <point x="745" y="405" type="line"/>
      <point x="753" y="428"/>
      <point x="758" y="449"/>
      <point x="758" y="477" type="curve" smooth="yes"/>
      <point x="758" y="539"/>
      <point x="725" y="598"/>
      <point x="616" y="598" type="curve" smooth="yes"/>
      <point x="508" y="598"/>
      <point x="438" y="515"/>
      <point x="438" y="400" type="curve" smooth="yes"/>
      <point x="438" y="374" type="line"/>
      <point x="489" y="374" type="line" smooth="yes"/>
      <point x="637" y="374"/>
      <point x="689" y="329"/>
      <point x="689" y="262" type="curve" smooth="yes"/>
      <point x="689" y="213"/>
      <point x="660" y="182"/>
      <point x="586" y="182" type="curve" smooth="yes"/>
      <point x="514" y="182"/>
      <point x="473" y="211"/>
      <point x="457" y="268" type="curve"/>
      <point x="384" y="268" type="line"/>
      <point x="361" y="210"/>
      <point x="318" y="182"/>
      <point x="252" y="182" type="curve" smooth="yes"/>
      <point x="189" y="182"/>
      <point x="151" y="203"/>
      <point x="151" y="258" type="curve" smooth="yes"/>
      <point x="151" y="319"/>
      <point x="203" y="361"/>
      <point x="282" y="379" type="curve"/>
      <point x="204" y="374" type="line"/>
      <point x="412" y="374" type="line"/>
      <point x="412" y="405" type="line" smooth="yes"/>
      <point x="412" y="520"/>
      <point x="342" y="598"/>
      <point x="232" y="598" type="curve" smooth="yes"/>
      <point x="131" y="598"/>
      <point x="84" y="555"/>
      <point x="84" y="499" type="curve" smooth="yes"/>
      <point x="84" y="485"/>
      <point x="86" y="466"/>
      <point x="93" y="452" type="curve"/>
      <point x="225" y="460" type="line"/>
      <point x="224" y="466"/>
      <point x="224" y="473"/>
      <point x="224" y="477" type="curve" smooth="yes"/>
      <point x="224" y="498"/>
      <point x="234" y="515"/>
      <point x="262" y="515" type="curve" smooth="yes"/>
      <point x="300" y="515"/>
      <point x="317" y="480"/>
      <point x="325" y="442" type="curve"/>
      <point x="21" y="442" type="line"/>
      <point x="21" y="374" type="line"/>
      <point x="65" y="374" type="line" smooth="yes"/>
      <point x="98" y="374"/>
      <point x="151" y="376"/>
      <point x="179" y="380" type="curve"/>
      <point x="211" y="409" type="line"/>
      <point x="114" y="379"/>
      <point x="44" y="303"/>
      <point x="44" y="184" type="curve" smooth="yes"/>
      <point x="44" y="62"/>
      <point x="109" y="-10"/>
      <point x="225" y="-10" type="curve" smooth="yes"/>
      <point x="336" y="-10"/>
      <point x="393" y="60"/>
      <point x="418" y="135" type="curve"/>
      <point x="443" y="55"/>
      <point x="491" y="-10"/>
    </contour>
  </outline>
</glyph>
<glyph name="hasinh" format="2">
  <advance width="975"/>
  <unicode hex="0DC4"/>
  <outline>
    <contour>
      <point x="656" y="-8" type="curve" smooth="yes"/>
      <point x="770" y="-8"/>
      <point x="942" y="45"/>
      <point x="942" y="297" type="curve" smooth="yes"/>
      <point x="942" y="498"/>
      <point x="811" y="598"/>
      <point x="672" y="598" type="curve" smooth="yes"/>
      <point x="513" y="598"/>
      <point x="409" y="489"/>
      <point x="379" y="292" type="curve"/>
      <point x="436" y="278" type="line"/>
      <point x="444" y="281"/>
      <point x="452" y="283"/>
      <point x="462" y="283" type="curve" smooth="yes"/>
      <point x="484" y="283"/>
      <point x="494" y="271"/>
      <point x="494" y="253" type="curve" smooth="yes"/>
      <point x="494" y="210"/>
      <point x="439" y="187"/>
      <point x="317" y="187" type="curve" smooth="yes"/>
      <point x="215" y="187"/>
      <point x="135" y="214"/>
      <point x="135" y="290" type="curve" smooth="yes"/>
      <point x="135" y="356"/>
      <point x="192" y="374"/>
      <point x="274" y="374" type="curve" smooth="yes"/>
      <point x="388" y="374" type="line"/>
      <point x="388" y="405" type="line" smooth="yes"/>
      <point x="388" y="522"/>
      <point x="318" y="598"/>
      <point x="208" y="598" type="curve" smooth="yes"/>
      <point x="107" y="598"/>
      <point x="60" y="555"/>
      <point x="60" y="499" type="curve" smooth="yes"/>
      <point x="60" y="466"/>
      <point x="70" y="442"/>
      <point x="87" y="427" type="curve"/>
      <point x="203" y="452" type="line"/>
      <point x="201" y="459"/>
      <point x="200" y="467"/>
      <point x="200" y="477" type="curve" smooth="yes"/>
      <point x="200" y="498"/>
      <point x="210" y="515"/>
      <point x="238" y="515" type="curve" smooth="yes"/>
      <point x="276" y="515"/>
      <point x="294" y="480"/>
      <point x="302" y="438" type="curve"/>
      <point x="309" y="442" type="line"/>
      <point x="273" y="442" type="line" smooth="yes"/>
      <point x="117" y="442"/>
      <point x="32" y="373"/>
      <point x="32" y="244" type="curve" smooth="yes"/>
      <point x="32" y="87"/>
      <point x="141" y="-10"/>
      <point x="318" y="-10" type="curve" smooth="yes"/>
      <point x="530" y="-10"/>
      <point x="592" y="103"/>
      <point x="592" y="210" type="curve" smooth="yes"/>
      <point x="592" y="316"/>
      <point x="526" y="354"/>
      <point x="453" y="354" type="curve" smooth="yes"/>
      <point x="438" y="354"/>
      <point x="421" y="352"/>
      <point x="409" y="349" type="curve"/>
      <point x="451" y="315" type="line"/>
      <point x="491" y="418"/>
      <point x="557" y="462"/>
      <point x="647" y="462" type="curve" smooth="yes"/>
      <point x="738" y="462"/>
      <point x="819" y="403"/>
      <point x="819" y="248" type="curve" smooth="yes"/>
      <point x="819" y="142"/>
      <point x="762" y="65"/>
      <point x="647" y="65" type="curve" smooth="yes"/>
      <point x="609" y="65"/>
      <point x="586" y="68"/>
      <point x="562" y="74" type="curve"/>
      <point x="543" y="2" type="line"/>
      <point x="571" y="-4"/>
      <point x="609" y="-8"/>
    </contour>
  </outline>
</glyph>
<glyph name="llasinh" format="2">
  <advance width="822"/>
  <unicode hex="0DC5"/>
  <outline>
    <contour>
      <point x="421" y="-275" type="curve" smooth="yes"/>
      <point x="705" y="-275"/>
      <point x="813" y="-125"/>
      <point x="813" y="59" type="curve" smooth="yes"/>
      <point x="813" y="74"/>
      <point x="812" y="98"/>
      <point x="811" y="108" type="curve"/>
      <point x="731" y="104" type="line"/>
      <point x="732" y="95"/>
      <point x="732" y="84"/>
      <point x="732" y="78" type="curve" smooth="yes"/>
      <point x="732" y="-74"/>
      <point x="642" y="-151"/>
      <point x="461" y="-151" type="curve" smooth="yes"/>
      <point x="273" y="-151"/>
      <point x="189" y="-56"/>
      <point x="189" y="93" type="curve" smooth="yes"/>
      <point x="189" y="253"/>
      <point x="291" y="371"/>
      <point x="588" y="371" type="curve" smooth="yes"/>
      <point x="756" y="371" type="line"/>
      <point x="756" y="401" type="line" smooth="yes"/>
      <point x="756" y="517"/>
      <point x="690" y="598"/>
      <point x="589" y="598" type="curve" smooth="yes"/>
      <point x="509" y="598"/>
      <point x="472" y="552"/>
      <point x="456" y="504" type="curve"/>
      <point x="509" y="515" type="line"/>
      <point x="494" y="548"/>
      <point x="465" y="598"/>
      <point x="382" y="598" type="curve" smooth="yes"/>
      <point x="277" y="598"/>
      <point x="206" y="524"/>
      <point x="206" y="390" type="curve" smooth="yes"/>
      <point x="206" y="357"/>
      <point x="209" y="332"/>
      <point x="210" y="322" type="curve"/>
      <point x="216" y="188"/>
      <point x="301" y="66"/>
      <point x="485" y="66" type="curve" smooth="yes"/>
      <point x="653" y="66"/>
      <point x="739" y="151"/>
      <point x="754" y="312" type="curve"/>
      <point x="681" y="322" type="line"/>
      <point x="665" y="214"/>
      <point x="584" y="190"/>
      <point x="493" y="190" type="curve" smooth="yes"/>
      <point x="366" y="190"/>
      <point x="290" y="259"/>
      <point x="290" y="358" type="curve" smooth="yes"/>
      <point x="290" y="380" type="line" smooth="yes"/>
      <point x="290" y="473"/>
      <point x="331" y="515"/>
      <point x="372" y="515" type="curve" smooth="yes"/>
      <point x="412" y="515"/>
      <point x="420" y="487"/>
      <point x="425" y="461" type="curve"/>
      <point x="555" y="461" type="line"/>
      <point x="559" y="493"/>
      <point x="573" y="515"/>
      <point x="604" y="515" type="curve" smooth="yes"/>
      <point x="639" y="515"/>
      <point x="663" y="494"/>
      <point x="670" y="442" type="curve"/>
      <point x="557" y="442" type="line" smooth="yes"/>
      <point x="226" y="442"/>
      <point x="25" y="313"/>
      <point x="25" y="73" type="curve" smooth="yes"/>
      <point x="25" y="-124"/>
      <point x="146" y="-275"/>
    </contour>
  </outline>
</glyph>
<glyph name="fasinh" format="2">
  <advance width="845"/>
  <unicode hex="0DC6"/>
  <outline>
    <contour>
      <point x="552" y="-10" type="curve" smooth="yes"/>
      <point x="712" y="-10"/>
      <point x="807" y="87"/>
      <point x="807" y="296" type="curve" smooth="yes"/>
      <point x="807" y="490"/>
      <point x="728" y="598"/>
      <point x="606" y="598" type="curve" smooth="yes"/>
      <point x="500" y="598"/>
      <point x="447" y="532"/>
      <point x="423" y="442" type="curve"/>
      <point x="402" y="536"/>
      <point x="347" y="598"/>
      <point x="253" y="598" type="curve" smooth="yes"/>
      <point x="125" y="598"/>
      <point x="38" y="478"/>
      <point x="38" y="292" type="curve" smooth="yes"/>
      <point x="38" y="86"/>
      <point x="129" y="-10"/>
      <point x="288" y="-10" type="curve" smooth="yes"/>
      <point x="326" y="-10"/>
      <point x="339" y="-8"/>
      <point x="353" y="-5" type="curve"/>
      <point x="344" y="68" type="line"/>
      <point x="324" y="64"/>
      <point x="312" y="63"/>
      <point x="291" y="63" type="curve" smooth="yes"/>
      <point x="183" y="63"/>
      <point x="143" y="142"/>
      <point x="143" y="238" type="curve" smooth="yes"/>
      <point x="143" y="349"/>
      <point x="188" y="410"/>
      <point x="263" y="410" type="curve" smooth="yes"/>
      <point x="329" y="410"/>
      <point x="373" y="363"/>
      <point x="386" y="291" type="curve"/>
      <point x="459" y="291" type="line"/>
      <point x="476" y="374"/>
      <point x="525" y="410"/>
      <point x="582" y="410" type="curve" smooth="yes"/>
      <point x="664" y="410"/>
      <point x="702" y="342"/>
      <point x="702" y="244" type="curve" smooth="yes"/>
      <point x="702" y="142"/>
      <point x="662" y="63"/>
      <point x="550" y="63" type="curve" smooth="yes"/>
      <point x="533" y="63"/>
      <point x="519" y="64"/>
      <point x="497" y="69" type="curve"/>
      <point x="492" y="-6" type="line"/>
      <point x="507" y="-8"/>
      <point x="527" y="-10"/>
    </contour>
  </outline>
</glyph>
<glyph name="viramasinh" format="2">
  <unicode hex="0DCA"/>
  <outline>
    <contour>
      <point x="-230" y="963" type="curve" smooth="yes"/>
      <point x="-256" y="963"/>
      <point x="-274" y="958"/>
      <point x="-285" y="953" type="curve"/>
      <point x="-274" y="889" type="line"/>
      <point x="-268" y="890"/>
      <point x="-261" y="891"/>
      <point x="-254" y="891" type="curve" smooth="yes"/>
      <point x="-232" y="891"/>
      <point x="-214" y="879"/>
      <point x="-214" y="835" type="curve" smooth="yes"/>
      <point x="-214" y="476" type="line"/>
      <point x="-142" y="476" type="line"/>
      <point x="-142" y="728" type="line" smooth="yes"/>
      <point x="-142" y="758"/>
      <point x="-142" y="789"/>
      <point x="-145" y="819" type="curve"/>
      <point x="-142" y="836" type="line"/>
      <point x="-142" y="901" type="line"/>
      <point x="-153" y="901" type="line"/>
      <point x="-164" y="941"/>
      <point x="-196" y="963"/>
    </contour>
    <contour>
      <point x="-88" y="963" type="curve" smooth="yes"/>
      <point x="-130" y="963"/>
      <point x="-163" y="937"/>
      <point x="-183" y="896" type="curve"/>
      <point x="-144" y="863" type="line"/>
      <point x="-139" y="886"/>
      <point x="-123" y="899"/>
      <point x="-107" y="899" type="curve" smooth="yes"/>
      <point x="-84" y="899"/>
      <point x="-73" y="882"/>
      <point x="-73" y="855" type="curve" smooth="yes"/>
      <point x="-73" y="829"/>
      <point x="-85" y="814"/>
      <point x="-105" y="814" type="curve" smooth="yes"/>
      <point x="-130" y="814"/>
      <point x="-141" y="834"/>
      <point x="-146" y="862" type="curve"/>
      <point x="-164" y="795" type="line"/>
      <point x="-151" y="764"/>
      <point x="-117" y="749"/>
      <point x="-89" y="749" type="curve" smooth="yes"/>
      <point x="-29" y="749"/>
      <point x="-1" y="793"/>
      <point x="-1" y="856" type="curve" smooth="yes"/>
      <point x="-1" y="920"/>
      <point x="-32" y="963"/>
    </contour>
  </outline>
</glyph>
<glyph name="aavowelsignsinh" format="2">
  <advance width="420"/>
  <unicode hex="0DCF"/>
  <outline>
    <contour>
      <point x="386" y="249" type="curve" smooth="yes"/>
      <point x="386" y="437"/>
      <point x="291" y="504"/>
      <point x="178" y="504" type="curve" smooth="yes"/>
      <point x="95" y="504"/>
      <point x="36" y="455"/>
      <point x="2" y="393" type="curve"/>
      <point x="70" y="360" type="line"/>
      <point x="94" y="407"/>
      <point x="119" y="431"/>
      <point x="155" y="431" type="curve" smooth="yes"/>
      <point x="206" y="431"/>
      <point x="230" y="385"/>
      <point x="230" y="249" type="curve" smooth="yes"/>
      <point x="230" y="114"/>
      <point x="210" y="63"/>
      <point x="153" y="63" type="curve" smooth="yes"/>
      <point x="113" y="63"/>
      <point x="91" y="88"/>
      <point x="68" y="138" type="curve"/>
      <point x="0" y="105" type="line"/>
      <point x="35" y="35"/>
      <point x="88" y="-10"/>
      <point x="178" y="-10" type="curve" smooth="yes"/>
      <point x="293" y="-10"/>
      <point x="386" y="52"/>
    </contour>
  </outline>
</glyph>
<glyph name="aevowelsignsinh" format="2">
  <advance width="318"/>
  <unicode hex="0DD0"/>
  <outline>
    <contour>
      <point x="10" y="391" type="line"/>
      <point x="10" y="318" type="line"/>
      <point x="147" y="318" type="line" smooth="yes"/>
      <point x="179" y="318"/>
      <point x="204" y="319"/>
      <point x="224" y="321" type="curve"/>
      <point x="235" y="346" type="line"/>
      <point x="94" y="246"/>
      <point x="5" y="138"/>
      <point x="5" y="5" type="curve" smooth="yes"/>
      <point x="5" y="-136"/>
      <point x="90" y="-188"/>
      <point x="194" y="-188" type="curve" smooth="yes"/>
      <point x="259" y="-188"/>
      <point x="311" y="-175"/>
      <point x="360" y="-149" type="curve"/>
      <point x="325" y="-81" type="line"/>
      <point x="297" y="-98"/>
      <point x="275" y="-106"/>
      <point x="247" y="-106" type="curve" smooth="yes"/>
      <point x="192" y="-106"/>
      <point x="157" y="-69"/>
      <point x="157" y="17" type="curve" smooth="yes"/>
      <point x="157" y="123"/>
      <point x="203" y="225"/>
      <point x="305" y="322" type="curve"/>
      <point x="267" y="391" type="line"/>
    </contour>
  </outline>
</glyph>
